<?xml version="1.0" encoding="UTF-8" standalone="no"?><svg xmlns="http://www.w3.org/2000/svg" xmlns:xlink="http://www.w3.org/1999/xlink" contentScriptType="application/ecmascript" contentStyleType="text/css" height="301px" preserveAspectRatio="none" style="width:647px;height:301px;" version="1.1" viewBox="0 0 647 301" width="647px" zoomAndPan="magnify"><defs><filter height="300%" id="ff26lczka3zop" width="300%" x="-1" y="-1"><feGaussianBlur result="blurOut" stdDeviation="2.0"/><feColorMatrix in="blurOut" result="blurOut2" type="matrix" values="0 0 0 0 0 0 0 0 0 0 0 0 0 0 0 0 0 0 .4 0"/><feOffset dx="4.0" dy="4.0" in="blurOut2" result="blurOut3"/><feBlend in="SourceGraphic" in2="blurOut3" mode="normal"/></filter></defs><g><!--entity 用户--><ellipse cx="225.5" cy="127" fill="#FEFECE" filter="url(#ff26lczka3zop)" rx="8" ry="8" style="stroke: #A80036; stroke-width: 2.0;"/><path d="M225.5,135 L225.5,162 M212.5,143 L238.5,143 M225.5,162 L212.5,177 M225.5,162 L238.5,177 " fill="none" filter="url(#ff26lczka3zop)" style="stroke: #A80036; stroke-width: 2.0;"/><text fill="#000000" font-family="sans-serif" font-size="14" lengthAdjust="spacingAndGlyphs" textLength="28" x="211.5" y="196.9951">用户</text><ellipse cx="225.6107" cy="23.8221" fill="#FEFECE" filter="url(#ff26lczka3zop)" rx="67.1107" ry="15.8221" style="stroke: #A80036; stroke-width: 1.5;"/><text fill="#000000" font-family="sans-serif" font-size="14" lengthAdjust="spacingAndGlyphs" textLength="99" x="176.1107" y="28.4706">登录XBB聊天室</text><ellipse cx="80.598" cy="24.0236" fill="#FEFECE" filter="url(#ff26lczka3zop)" rx="42.598" ry="14.5236" style="stroke: #A80036; stroke-width: 1.5;"/><text fill="#000000" font-family="sans-serif" font-size="14" lengthAdjust="spacingAndGlyphs" textLength="56" x="52.598" y="28.6721">注册账号</text><ellipse cx="353.5143" cy="158.7029" fill="#FEFECE" filter="url(#ff26lczka3zop)" rx="61.5143" ry="14.7029" style="stroke: #A80036; stroke-width: 1.5;"/><text fill="#000000" font-family="sans-serif" font-size="14" lengthAdjust="spacingAndGlyphs" textLength="84" x="311.5143" y="163.3513">修改个人资料</text><ellipse cx="574.5143" cy="158.7029" fill="#FEFECE" filter="url(#ff26lczka3zop)" rx="61.5143" ry="14.7029" style="stroke: #A80036; stroke-width: 1.5;"/><text fill="#000000" font-family="sans-serif" font-size="14" lengthAdjust="spacingAndGlyphs" textLength="84" x="532.5143" y="163.3513">修改个人头像</text><ellipse cx="370.598" cy="24.0236" fill="#FEFECE" filter="url(#ff26lczka3zop)" rx="42.598" ry="14.5236" style="stroke: #A80036; stroke-width: 1.5;"/><text fill="#000000" font-family="sans-serif" font-size="14" lengthAdjust="spacingAndGlyphs" textLength="56" x="342.598" y="28.6721">修改昵称</text><ellipse cx="67.5143" cy="275.7029" fill="#FEFECE" filter="url(#ff26lczka3zop)" rx="61.5143" ry="14.7029" style="stroke: #A80036; stroke-width: 1.5;"/><text fill="#000000" font-family="sans-serif" font-size="14" lengthAdjust="spacingAndGlyphs" textLength="84" x="25.5143" y="280.3513">发送聊天消息</text><ellipse cx="225.5143" cy="275.7029" fill="#FEFECE" filter="url(#ff26lczka3zop)" rx="61.5143" ry="14.7029" style="stroke: #A80036; stroke-width: 1.5;"/><text fill="#000000" font-family="sans-serif" font-size="14" lengthAdjust="spacingAndGlyphs" textLength="84" x="183.5143" y="280.3513">查看历史消息</text><ellipse cx="383.5143" cy="275.7029" fill="#FEFECE" filter="url(#ff26lczka3zop)" rx="61.5143" ry="14.7029" style="stroke: #A80036; stroke-width: 1.5;"/><text fill="#000000" font-family="sans-serif" font-size="14" lengthAdjust="spacingAndGlyphs" textLength="84" x="341.5143" y="280.3513">查看他人资料</text><!--link 登录XBB聊天室 to 用户--><path d="M225.5,45.272 C225.5,64.231 225.5,93.103 225.5,116.814 " fill="none" id="登录XBB聊天室-用户" style="stroke: #A80036; stroke-width: 1.0;"/><polygon fill="#A80036" points="225.5,40.199,221.5,49.199,225.5,45.199,229.5,49.199,225.5,40.199" style="stroke: #A80036; stroke-width: 1.0;"/><!--link 注册账号 to 用户--><path d="M98.4412,41.395 C127.19,67.665 183.084,118.741 210.12,143.446 " fill="none" id="注册账号-用户" style="stroke: #A80036; stroke-width: 1.0;"/><polygon fill="#A80036" points="94.4032,37.705,98.3475,46.7295,98.0938,41.0784,103.7449,40.8246,94.4032,37.705" style="stroke: #A80036; stroke-width: 1.0;"/><!--link 用户 to 修改个人资料--><path d="M240.5,158.5 C255.834,158.5 271.169,158.5 286.503,158.5 " fill="none" id="用户-修改个人资料" style="stroke: #A80036; stroke-width: 1.0;"/><polygon fill="#A80036" points="291.703,158.5,282.703,154.5,286.703,158.5,282.703,162.5,291.703,158.5" style="stroke: #A80036; stroke-width: 1.0;"/><!--link 修改个人资料 to 修改个人头像--><path d="M415.061,158.5 C443.916,158.5 478.351,158.5 507.823,158.5 " fill="none" id="修改个人资料-修改个人头像" style="stroke: #A80036; stroke-width: 1.0; stroke-dasharray: 7.0,7.0;"/><polygon fill="#A80036" points="512.886,158.5,503.886,154.5,507.886,158.5,503.886,162.5,512.886,158.5" style="stroke: #A80036; stroke-width: 1.0;"/><text fill="#000000" font-family="sans-serif" font-size="13" lengthAdjust="spacingAndGlyphs" textLength="61" x="433.5" y="151.5669">«include»</text><!--link 修改昵称 to 修改个人资料--><path d="M368.093,43.764 C364.633,70.727 358.336,119.804 355.271,143.695 " fill="none" id="修改昵称-修改个人资料" style="stroke: #A80036; stroke-width: 1.0; stroke-dasharray: 7.0,7.0;"/><polygon fill="#A80036" points="368.745,38.681,363.6306,47.0978,368.1078,43.6402,371.5654,48.1174,368.745,38.681" style="stroke: #A80036; stroke-width: 1.0;"/><text fill="#000000" font-family="sans-serif" font-size="13" lengthAdjust="spacingAndGlyphs" textLength="61" x="365.5" y="83.0669">«include»</text><!--link 用户 to 发送聊天消息--><path d="M210.35,170.527 C182.261,190.9716 122.004,234.8293 89.4484,258.5249 " fill="none" id="用户-发送聊天消息" style="stroke: #A80036; stroke-width: 1.0;"/><polygon fill="#A80036" points="85.2362,261.5907,94.8667,259.5284,89.2787,258.6483,90.1589,253.0603,85.2362,261.5907" style="stroke: #A80036; stroke-width: 1.0;"/><!--link 用户 to 查看历史消息--><path d="M225.5,200.0447 C225.5,218.9354 225.5,240.5074 225.5,255.5516 " fill="none" id="用户-查看历史消息" style="stroke: #A80036; stroke-width: 1.0;"/><polygon fill="#A80036" points="225.5,260.7817,229.5,251.7817,225.5,255.7817,221.5,251.7817,225.5,260.7817" style="stroke: #A80036; stroke-width: 1.0;"/><!--link 用户 to 查看他人资料--><path d="M240.659,172.635 C250.196,180.746 262.86,191.24 274.5,200 C302.831,221.3202 336.721,244.0762 359.109,258.7484 " fill="none" id="用户-查看他人资料" style="stroke: #A80036; stroke-width: 1.0;"/><polygon fill="#A80036" points="363.428,261.5723,358.0855,253.2984,359.2436,258.8354,353.7065,259.9935,363.428,261.5723" style="stroke: #A80036; stroke-width: 1.0;"/><!--
@startuml
actor 用户

用户 -up-> (登录XBB聊天室)
用户 -up-> (注册账号)
用户 -right-> (修改个人资料)
(修改个人资料) .right.> (修改个人头像):<<include>>
(修改个人资料) .up.> (修改昵称):<<include>>
用户 -down-> (发送聊天消息)
用户 -down-> (查看历史消息)
用户 -down-> (查看他人资料)
@enduml

PlantUML version 1.2019.01(Sat Feb 09 15:32:04 UTC 2019)
(GPL source distribution)
Java Runtime: OpenJDK Runtime Environment
JVM: OpenJDK 64-Bit Server VM
Java Version: 1.8.0_181-8u181-b13-2~deb9u1-b13
Operating System: Linux
OS Version: 3.10.0-957.5.1.el7.x86_64
Default Encoding: UTF-8
Language: en
Country: null
--></g></svg>