<?xml version="1.0" encoding="UTF-8" standalone="no"?><svg xmlns="http://www.w3.org/2000/svg" xmlns:xlink="http://www.w3.org/1999/xlink" contentScriptType="application/ecmascript" contentStyleType="text/css" height="432px" preserveAspectRatio="none" style="width:501px;height:432px;" version="1.1" viewBox="0 0 501 432" width="501px" zoomAndPan="magnify"><defs><filter height="300%" id="f1xiee9n5ak0zw" width="300%" x="-1" y="-1"><feGaussianBlur result="blurOut" stdDeviation="2.0"/><feColorMatrix in="blurOut" result="blurOut2" type="matrix" values="0 0 0 0 0 0 0 0 0 0 0 0 0 0 0 0 0 0 .4 0"/><feOffset dx="4.0" dy="4.0" in="blurOut2" result="blurOut3"/><feBlend in="SourceGraphic" in2="blurOut3" mode="normal"/></filter></defs><g><ellipse cx="250" cy="20" fill="#000000" filter="url(#f1xiee9n5ak0zw)" rx="10" ry="10" style="stroke: none; stroke-width: 1.0;"/><rect fill="#FEFECE" filter="url(#f1xiee9n5ak0zw)" height="33.9688" rx="12.5" ry="12.5" style="stroke: #A80036; stroke-width: 1.5;" width="140" x="180" y="50"/><text fill="#000000" font-family="sans-serif" font-size="12" lengthAdjust="spacingAndGlyphs" textLength="120" x="190" y="71.1387">点击查阅个人统计信息</text><rect fill="#000000" filter="url(#f1xiee9n5ak0zw)" height="6" rx="2.5" ry="2.5" style="stroke: #000000; stroke-width: 1.0;" width="480" x="10" y="103.9688"/><rect fill="#FEFECE" filter="url(#f1xiee9n5ak0zw)" height="33.9688" rx="12.5" ry="12.5" style="stroke: #A80036; stroke-width: 1.5;" width="140" x="24" y="129.9688"/><text fill="#000000" font-family="sans-serif" font-size="12" lengthAdjust="spacingAndGlyphs" textLength="120" x="34" y="151.1074">查询用户登录系统记录</text><rect fill="#FEFECE" filter="url(#f1xiee9n5ak0zw)" height="33.9688" rx="12.5" ry="12.5" style="stroke: #A80036; stroke-width: 1.5;" width="140" x="24" y="198.9375"/><text fill="#000000" font-family="sans-serif" font-size="12" lengthAdjust="spacingAndGlyphs" textLength="120" x="34" y="220.0762">查询用户离开系统记录</text><rect fill="#FEFECE" filter="url(#f1xiee9n5ak0zw)" height="33.9688" rx="12.5" ry="12.5" style="stroke: #A80036; stroke-width: 1.5;" width="140" x="24" y="267.9063"/><text fill="#000000" font-family="sans-serif" font-size="12" lengthAdjust="spacingAndGlyphs" textLength="120" x="34" y="289.0449">计算用户在图书馆时长</text><rect fill="#FEFECE" filter="url(#f1xiee9n5ak0zw)" height="33.9688" rx="12.5" ry="12.5" style="stroke: #A80036; stroke-width: 1.5;" width="140" x="192" y="164.4531"/><text fill="#000000" font-family="sans-serif" font-size="12" lengthAdjust="spacingAndGlyphs" textLength="120" x="202" y="185.5918">查询用户用户借书记录</text><rect fill="#FEFECE" filter="url(#f1xiee9n5ak0zw)" height="33.9688" rx="12.5" ry="12.5" style="stroke: #A80036; stroke-width: 1.5;" width="116" x="204" y="233.4219"/><text fill="#000000" font-family="sans-serif" font-size="12" lengthAdjust="spacingAndGlyphs" textLength="96" x="214" y="254.5605">计算用户借书频次</text><rect fill="#FEFECE" filter="url(#f1xiee9n5ak0zw)" height="33.9688" rx="12.5" ry="12.5" style="stroke: #A80036; stroke-width: 1.5;" width="116" x="360" y="164.4531"/><text fill="#000000" font-family="sans-serif" font-size="12" lengthAdjust="spacingAndGlyphs" textLength="96" x="370" y="185.5918">查询用户信誉记录</text><rect fill="#FEFECE" filter="url(#f1xiee9n5ak0zw)" height="33.9688" rx="12.5" ry="12.5" style="stroke: #A80036; stroke-width: 1.5;" width="116" x="360" y="233.4219"/><text fill="#000000" font-family="sans-serif" font-size="12" lengthAdjust="spacingAndGlyphs" textLength="96" x="370" y="254.5605">计算用户信誉等级</text><rect fill="#000000" filter="url(#f1xiee9n5ak0zw)" height="6" rx="2.5" ry="2.5" style="stroke: #000000; stroke-width: 1.0;" width="480" x="10" y="321.875"/><rect fill="#FEFECE" filter="url(#f1xiee9n5ak0zw)" height="33.9688" rx="12.5" ry="12.5" style="stroke: #A80036; stroke-width: 1.5;" width="140" x="180" y="347.875"/><text fill="#000000" font-family="sans-serif" font-size="12" lengthAdjust="spacingAndGlyphs" textLength="120" x="190" y="369.0137">显示用户个人统计信息</text><ellipse cx="250" cy="411.8438" fill="none" filter="url(#f1xiee9n5ak0zw)" rx="10" ry="10" style="stroke: #000000; stroke-width: 1.0;"/><ellipse cx="250.5" cy="412.3438" fill="#000000" filter="url(#f1xiee9n5ak0zw)" rx="6" ry="6" style="stroke: none; stroke-width: 1.0;"/><line style="stroke: #A80036; stroke-width: 1.5;" x1="250" x2="250" y1="30" y2="50"/><polygon fill="#A80036" points="246,40,250,50,254,40,250,44" style="stroke: #A80036; stroke-width: 1.0;"/><line style="stroke: #A80036; stroke-width: 1.5;" x1="94" x2="94" y1="163.9375" y2="198.9375"/><polygon fill="#A80036" points="90,188.9375,94,198.9375,98,188.9375,94,192.9375" style="stroke: #A80036; stroke-width: 1.0;"/><line style="stroke: #A80036; stroke-width: 1.5;" x1="94" x2="94" y1="232.9063" y2="267.9063"/><polygon fill="#A80036" points="90,257.9063,94,267.9063,98,257.9063,94,261.9063" style="stroke: #A80036; stroke-width: 1.0;"/><line style="stroke: #A80036; stroke-width: 1.5;" x1="262" x2="262" y1="198.4219" y2="233.4219"/><polygon fill="#A80036" points="258,223.4219,262,233.4219,266,223.4219,262,227.4219" style="stroke: #A80036; stroke-width: 1.0;"/><line style="stroke: #A80036; stroke-width: 1.5;" x1="418" x2="418" y1="198.4219" y2="233.4219"/><polygon fill="#A80036" points="414,223.4219,418,233.4219,422,223.4219,418,227.4219" style="stroke: #A80036; stroke-width: 1.0;"/><line style="stroke: #A80036; stroke-width: 1.5;" x1="94" x2="94" y1="109.9688" y2="129.9688"/><polygon fill="#A80036" points="90,119.9688,94,129.9688,98,119.9688,94,123.9688" style="stroke: #A80036; stroke-width: 1.0;"/><line style="stroke: #A80036; stroke-width: 1.5;" x1="262" x2="262" y1="109.9688" y2="164.4531"/><polygon fill="#A80036" points="258,154.4531,262,164.4531,266,154.4531,262,158.4531" style="stroke: #A80036; stroke-width: 1.0;"/><line style="stroke: #A80036; stroke-width: 1.5;" x1="418" x2="418" y1="109.9688" y2="164.4531"/><polygon fill="#A80036" points="414,154.4531,418,164.4531,422,154.4531,418,158.4531" style="stroke: #A80036; stroke-width: 1.0;"/><line style="stroke: #A80036; stroke-width: 1.5;" x1="94" x2="94" y1="301.875" y2="321.875"/><polygon fill="#A80036" points="90,311.875,94,321.875,98,311.875,94,315.875" style="stroke: #A80036; stroke-width: 1.0;"/><line style="stroke: #A80036; stroke-width: 1.5;" x1="262" x2="262" y1="267.3906" y2="321.875"/><polygon fill="#A80036" points="258,311.875,262,321.875,266,311.875,262,315.875" style="stroke: #A80036; stroke-width: 1.0;"/><line style="stroke: #A80036; stroke-width: 1.5;" x1="418" x2="418" y1="267.3906" y2="321.875"/><polygon fill="#A80036" points="414,311.875,418,321.875,422,311.875,418,315.875" style="stroke: #A80036; stroke-width: 1.0;"/><line style="stroke: #A80036; stroke-width: 1.5;" x1="250" x2="250" y1="83.9688" y2="103.9688"/><polygon fill="#A80036" points="246,93.9688,250,103.9688,254,93.9688,250,97.9688" style="stroke: #A80036; stroke-width: 1.0;"/><line style="stroke: #A80036; stroke-width: 1.5;" x1="250" x2="250" y1="327.875" y2="347.875"/><polygon fill="#A80036" points="246,337.875,250,347.875,254,337.875,250,341.875" style="stroke: #A80036; stroke-width: 1.0;"/><line style="stroke: #A80036; stroke-width: 1.5;" x1="250" x2="250" y1="381.8438" y2="401.8438"/><polygon fill="#A80036" points="246,391.8438,250,401.8438,254,391.8438,250,395.8438" style="stroke: #A80036; stroke-width: 1.0;"/><!--
@startuml
start
:点击查阅个人统计信息;
fork
:查询用户登录系统记录;
:查询用户离开系统记录;
:计算用户在图书馆时长;
fork again
:查询用户用户借书记录;
:计算用户借书频次;
fork again
:查询用户信誉记录;
:计算用户信誉等级;
end fork
:显示用户个人统计信息;
stop
@enduml

PlantUML version 1.2019.01(Sat Feb 09 15:32:04 UTC 2019)
(GPL source distribution)
Java Runtime: OpenJDK Runtime Environment
JVM: OpenJDK 64-Bit Server VM
Java Version: 1.8.0_181-8u181-b13-2~deb9u1-b13
Operating System: Linux
OS Version: 3.10.0-957.5.1.el7.x86_64
Default Encoding: UTF-8
Language: en
Country: null
--></g></svg>