<?xml version="1.0" encoding="UTF-8" standalone="no"?><svg xmlns="http://www.w3.org/2000/svg" xmlns:xlink="http://www.w3.org/1999/xlink" contentScriptType="application/ecmascript" contentStyleType="text/css" height="402px" preserveAspectRatio="none" style="width:309px;height:402px;" version="1.1" viewBox="0 0 309 402" width="309px" zoomAndPan="magnify"><defs><filter height="300%" id="f3ko095ock5az" width="300%" x="-1" y="-1"><feGaussianBlur result="blurOut" stdDeviation="2.0"/><feColorMatrix in="blurOut" result="blurOut2" type="matrix" values="0 0 0 0 0 0 0 0 0 0 0 0 0 0 0 0 0 0 .4 0"/><feOffset dx="4.0" dy="4.0" in="blurOut2" result="blurOut3"/><feBlend in="SourceGraphic" in2="blurOut3" mode="normal"/></filter></defs><g><ellipse cx="154" cy="20" fill="#000000" filter="url(#f3ko095ock5az)" rx="10" ry="10" style="stroke: none; stroke-width: 1.0;"/><rect fill="#FEFECE" filter="url(#f3ko095ock5az)" height="33.9688" rx="12.5" ry="12.5" style="stroke: #A80036; stroke-width: 1.5;" width="80" x="114" y="50"/><text fill="#000000" font-family="sans-serif" font-size="12" lengthAdjust="spacingAndGlyphs" textLength="60" x="124" y="71.1387">输入用户ID</text><rect fill="#FEFECE" filter="url(#f3ko095ock5az)" height="33.9688" rx="12.5" ry="12.5" style="stroke: #A80036; stroke-width: 1.5;" width="116" x="96" y="103.9688"/><text fill="#000000" font-family="sans-serif" font-size="12" lengthAdjust="spacingAndGlyphs" textLength="96" x="106" y="125.1074">点击查询用户信誉</text><rect fill="#000000" filter="url(#f3ko095ock5az)" height="6" rx="2.5" ry="2.5" style="stroke: #000000; stroke-width: 1.0;" width="288" x="10" y="157.9375"/><rect fill="#FEFECE" filter="url(#f3ko095ock5az)" height="33.9688" rx="12.5" ry="12.5" style="stroke: #A80036; stroke-width: 1.5;" width="116" x="24" y="183.9375"/><text fill="#000000" font-family="sans-serif" font-size="12" lengthAdjust="spacingAndGlyphs" textLength="96" x="34" y="205.0762">搜索用户信誉记录</text><rect fill="#FEFECE" filter="url(#f3ko095ock5az)" height="33.9688" rx="12.5" ry="12.5" style="stroke: #A80036; stroke-width: 1.5;" width="116" x="168" y="183.9375"/><text fill="#000000" font-family="sans-serif" font-size="12" lengthAdjust="spacingAndGlyphs" textLength="96" x="178" y="205.0762">搜索用户罚款记录</text><rect fill="#000000" filter="url(#f3ko095ock5az)" height="6" rx="2.5" ry="2.5" style="stroke: #000000; stroke-width: 1.0;" width="288" x="10" y="237.9063"/><rect fill="#FEFECE" filter="url(#f3ko095ock5az)" height="33.9688" rx="12.5" ry="12.5" style="stroke: #A80036; stroke-width: 1.5;" width="116" x="96" y="263.9063"/><text fill="#000000" font-family="sans-serif" font-size="12" lengthAdjust="spacingAndGlyphs" textLength="96" x="106" y="285.0449">计算用户信誉等级</text><rect fill="#FEFECE" filter="url(#f3ko095ock5az)" height="33.9688" rx="12.5" ry="12.5" style="stroke: #A80036; stroke-width: 1.5;" width="152" x="78" y="317.875"/><text fill="#000000" font-family="sans-serif" font-size="12" lengthAdjust="spacingAndGlyphs" textLength="132" x="88" y="339.0137">显示用户信誉记录及等级</text><ellipse cx="154" cy="381.8438" fill="none" filter="url(#f3ko095ock5az)" rx="10" ry="10" style="stroke: #000000; stroke-width: 1.0;"/><ellipse cx="154.5" cy="382.3438" fill="#000000" filter="url(#f3ko095ock5az)" rx="6" ry="6" style="stroke: none; stroke-width: 1.0;"/><line style="stroke: #A80036; stroke-width: 1.5;" x1="154" x2="154" y1="30" y2="50"/><polygon fill="#A80036" points="150,40,154,50,158,40,154,44" style="stroke: #A80036; stroke-width: 1.0;"/><line style="stroke: #A80036; stroke-width: 1.5;" x1="154" x2="154" y1="83.9688" y2="103.9688"/><polygon fill="#A80036" points="150,93.9688,154,103.9688,158,93.9688,154,97.9688" style="stroke: #A80036; stroke-width: 1.0;"/><line style="stroke: #A80036; stroke-width: 1.5;" x1="82" x2="82" y1="163.9375" y2="183.9375"/><polygon fill="#A80036" points="78,173.9375,82,183.9375,86,173.9375,82,177.9375" style="stroke: #A80036; stroke-width: 1.0;"/><line style="stroke: #A80036; stroke-width: 1.5;" x1="226" x2="226" y1="163.9375" y2="183.9375"/><polygon fill="#A80036" points="222,173.9375,226,183.9375,230,173.9375,226,177.9375" style="stroke: #A80036; stroke-width: 1.0;"/><line style="stroke: #A80036; stroke-width: 1.5;" x1="82" x2="82" y1="217.9063" y2="237.9063"/><polygon fill="#A80036" points="78,227.9063,82,237.9063,86,227.9063,82,231.9063" style="stroke: #A80036; stroke-width: 1.0;"/><line style="stroke: #A80036; stroke-width: 1.5;" x1="226" x2="226" y1="217.9063" y2="237.9063"/><polygon fill="#A80036" points="222,227.9063,226,237.9063,230,227.9063,226,231.9063" style="stroke: #A80036; stroke-width: 1.0;"/><line style="stroke: #A80036; stroke-width: 1.5;" x1="154" x2="154" y1="137.9375" y2="157.9375"/><polygon fill="#A80036" points="150,147.9375,154,157.9375,158,147.9375,154,151.9375" style="stroke: #A80036; stroke-width: 1.0;"/><line style="stroke: #A80036; stroke-width: 1.5;" x1="154" x2="154" y1="243.9063" y2="263.9063"/><polygon fill="#A80036" points="150,253.9063,154,263.9063,158,253.9063,154,257.9063" style="stroke: #A80036; stroke-width: 1.0;"/><line style="stroke: #A80036; stroke-width: 1.5;" x1="154" x2="154" y1="297.875" y2="317.875"/><polygon fill="#A80036" points="150,307.875,154,317.875,158,307.875,154,311.875" style="stroke: #A80036; stroke-width: 1.0;"/><line style="stroke: #A80036; stroke-width: 1.5;" x1="154" x2="154" y1="351.8438" y2="371.8438"/><polygon fill="#A80036" points="150,361.8438,154,371.8438,158,361.8438,154,365.8438" style="stroke: #A80036; stroke-width: 1.0;"/><!--
@startuml
start
:输入用户ID;
:点击查询用户信誉;
fork
:搜索用户信誉记录;
fork again
:搜索用户罚款记录;
end fork
:计算用户信誉等级;
:显示用户信誉记录及等级;
stop
@enduml

PlantUML version 1.2019.01(Sat Feb 09 15:32:04 UTC 2019)
(GPL source distribution)
Java Runtime: OpenJDK Runtime Environment
JVM: OpenJDK 64-Bit Server VM
Java Version: 1.8.0_181-8u181-b13-2~deb9u1-b13
Operating System: Linux
OS Version: 3.10.0-957.5.1.el7.x86_64
Default Encoding: UTF-8
Language: en
Country: null
--></g></svg>