<?xml version="1.0" encoding="UTF-8" standalone="no"?><svg xmlns="http://www.w3.org/2000/svg" xmlns:xlink="http://www.w3.org/1999/xlink" contentScriptType="application/ecmascript" contentStyleType="text/css" height="930px" preserveAspectRatio="none" style="width:669px;height:930px;" version="1.1" viewBox="0 0 669 930" width="669px" zoomAndPan="magnify"><defs><filter height="300%" id="fkdz2ksr1uk3l" width="300%" x="-1" y="-1"><feGaussianBlur result="blurOut" stdDeviation="2.0"/><feColorMatrix in="blurOut" result="blurOut2" type="matrix" values="0 0 0 0 0 0 0 0 0 0 0 0 0 0 0 0 0 0 .4 0"/><feOffset dx="4.0" dy="4.0" in="blurOut2" result="blurOut3"/><feBlend in="SourceGraphic" in2="blurOut3" mode="normal"/></filter></defs><g><ellipse cx="334" cy="20" fill="#000000" filter="url(#fkdz2ksr1uk3l)" rx="10" ry="10" style="stroke: none; stroke-width: 1.0;"/><rect fill="#FEFECE" filter="url(#fkdz2ksr1uk3l)" height="33.9688" rx="12.5" ry="12.5" style="stroke: #A80036; stroke-width: 1.5;" width="68" x="300" y="50"/><text fill="#000000" font-family="sans-serif" font-size="12" lengthAdjust="spacingAndGlyphs" textLength="48" x="310" y="71.1387">点击借书</text><rect fill="#FEFECE" filter="url(#fkdz2ksr1uk3l)" height="33.9688" rx="12.5" ry="12.5" style="stroke: #A80036; stroke-width: 1.5;" width="152" x="258" y="103.9688"/><text fill="#000000" font-family="sans-serif" font-size="12" lengthAdjust="spacingAndGlyphs" textLength="132" x="268" y="125.1074">系统提示扫描书内二维码</text><rect fill="#FEFECE" filter="url(#fkdz2ksr1uk3l)" height="33.9688" rx="12.5" ry="12.5" style="stroke: #A80036; stroke-width: 1.5;" width="80" x="294" y="213.6479"/><text fill="#000000" font-family="sans-serif" font-size="12" lengthAdjust="spacingAndGlyphs" textLength="60" x="304" y="234.7866">扫描二维码</text><rect fill="#FEFECE" filter="url(#fkdz2ksr1uk3l)" height="33.9688" rx="12.5" ry="12.5" style="stroke: #A80036; stroke-width: 1.5;" width="92" x="288" y="276.7144"/><text fill="#000000" font-family="sans-serif" font-size="12" lengthAdjust="spacingAndGlyphs" textLength="72" x="298" y="297.853">展示书籍信息</text><polygon fill="#FEFECE" filter="url(#fkdz2ksr1uk3l)" points="290,157.9375,378,157.9375,390,169.9375,378,181.9375,290,181.9375,278,169.9375,290,157.9375" style="stroke: #A80036; stroke-width: 1.5;"/><text fill="#000000" font-family="sans-serif" font-size="11" lengthAdjust="spacingAndGlyphs" textLength="11" x="338" y="192.1479">对</text><text fill="#000000" font-family="sans-serif" font-size="11" lengthAdjust="spacingAndGlyphs" textLength="88" x="290" y="173.7456">还有书籍没有借阅</text><text fill="#000000" font-family="sans-serif" font-size="11" lengthAdjust="spacingAndGlyphs" textLength="11" x="267" y="167.3433">否</text><rect fill="#FEFECE" filter="url(#fkdz2ksr1uk3l)" height="33.9688" rx="12.5" ry="12.5" style="stroke: #A80036; stroke-width: 1.5;" width="92" x="288" y="352.6831"/><text fill="#000000" font-family="sans-serif" font-size="12" lengthAdjust="spacingAndGlyphs" textLength="72" x="298" y="373.8218">提交借阅请求</text><rect fill="#000000" filter="url(#fkdz2ksr1uk3l)" height="6" rx="2.5" ry="2.5" style="stroke: #000000; stroke-width: 1.0;" width="648" x="10" y="406.6519"/><rect fill="#FEFECE" filter="url(#fkdz2ksr1uk3l)" height="33.9688" rx="12.5" ry="12.5" style="stroke: #A80036; stroke-width: 1.5;" width="152" x="99" y="432.6519"/><text fill="#000000" font-family="sans-serif" font-size="12" lengthAdjust="spacingAndGlyphs" textLength="132" x="109" y="453.7905">系统查询借阅者信誉记录</text><polygon fill="#FEFECE" filter="url(#fkdz2ksr1uk3l)" points="120,486.6206,230,486.6206,242,498.6206,230,510.6206,120,510.6206,108,498.6206,120,486.6206" style="stroke: #A80036; stroke-width: 1.5;"/><text fill="#000000" font-family="sans-serif" font-size="11" lengthAdjust="spacingAndGlyphs" textLength="110" x="120" y="502.4287">信誉等级为中及中以上</text><text fill="#000000" font-family="sans-serif" font-size="11" lengthAdjust="spacingAndGlyphs" textLength="11" x="97" y="496.0264">是</text><text fill="#000000" font-family="sans-serif" font-size="11" lengthAdjust="spacingAndGlyphs" textLength="11" x="242" y="496.0264">否</text><rect fill="#FEFECE" filter="url(#fkdz2ksr1uk3l)" height="33.9688" rx="12.5" ry="12.5" style="stroke: #A80036; stroke-width: 1.5;" width="128" x="34" y="520.6206"/><text fill="#000000" font-family="sans-serif" font-size="12" lengthAdjust="spacingAndGlyphs" textLength="108" x="44" y="541.7593">返回同意借阅状态码</text><rect fill="#FEFECE" filter="url(#fkdz2ksr1uk3l)" height="33.9688" rx="12.5" ry="12.5" style="stroke: #A80036; stroke-width: 1.5;" width="140" x="182" y="520.6206"/><text fill="#000000" font-family="sans-serif" font-size="12" lengthAdjust="spacingAndGlyphs" textLength="120" x="192" y="541.7593">返回不同意借阅状态码</text><polygon fill="#FEFECE" filter="url(#fkdz2ksr1uk3l)" points="175,560.5894,187,572.5894,175,584.5894,163,572.5894,175,560.5894" style="stroke: #A80036; stroke-width: 1.5;"/><rect fill="#FEFECE" filter="url(#fkdz2ksr1uk3l)" height="33.9688" rx="12.5" ry="12.5" style="stroke: #A80036; stroke-width: 1.5;" width="140" x="429" y="432.6519"/><text fill="#000000" font-family="sans-serif" font-size="12" lengthAdjust="spacingAndGlyphs" textLength="120" x="439" y="453.7905">系统查询书籍借阅状态</text><polygon fill="#FEFECE" filter="url(#fkdz2ksr1uk3l)" points="455,486.6206,543,486.6206,555,498.6206,543,510.6206,455,510.6206,443,498.6206,455,486.6206" style="stroke: #A80036; stroke-width: 1.5;"/><text fill="#000000" font-family="sans-serif" font-size="11" lengthAdjust="spacingAndGlyphs" textLength="88" x="455" y="502.4287">借阅状态为可借阅</text><text fill="#000000" font-family="sans-serif" font-size="11" lengthAdjust="spacingAndGlyphs" textLength="11" x="432" y="496.0264">是</text><text fill="#000000" font-family="sans-serif" font-size="11" lengthAdjust="spacingAndGlyphs" textLength="11" x="555" y="496.0264">否</text><rect fill="#FEFECE" filter="url(#fkdz2ksr1uk3l)" height="33.9688" rx="12.5" ry="12.5" style="stroke: #A80036; stroke-width: 1.5;" width="116" x="370" y="520.6206"/><text fill="#000000" font-family="sans-serif" font-size="12" lengthAdjust="spacingAndGlyphs" textLength="96" x="380" y="541.7593">返回可借阅状态码</text><rect fill="#FEFECE" filter="url(#fkdz2ksr1uk3l)" height="33.9688" rx="12.5" ry="12.5" style="stroke: #A80036; stroke-width: 1.5;" width="128" x="506" y="520.6206"/><text fill="#000000" font-family="sans-serif" font-size="12" lengthAdjust="spacingAndGlyphs" textLength="108" x="516" y="541.7593">返回不可借阅状态码</text><polygon fill="#FEFECE" filter="url(#fkdz2ksr1uk3l)" points="499,560.5894,511,572.5894,499,584.5894,487,572.5894,499,560.5894" style="stroke: #A80036; stroke-width: 1.5;"/><rect fill="#000000" filter="url(#fkdz2ksr1uk3l)" height="6" rx="2.5" ry="2.5" style="stroke: #000000; stroke-width: 1.0;" width="648" x="10" y="604.5894"/><polygon fill="#FEFECE" filter="url(#fkdz2ksr1uk3l)" points="218.5,630.5894,449.5,630.5894,461.5,642.5894,449.5,654.5894,218.5,654.5894,206.5,642.5894,218.5,630.5894" style="stroke: #A80036; stroke-width: 1.5;"/><text fill="#000000" font-family="sans-serif" font-size="11" lengthAdjust="spacingAndGlyphs" textLength="231" x="218.5" y="646.3975">用户借阅状态为可借阅且书籍借阅状态为可借阅</text><text fill="#000000" font-family="sans-serif" font-size="11" lengthAdjust="spacingAndGlyphs" textLength="11" x="195.5" y="639.9951">是</text><text fill="#000000" font-family="sans-serif" font-size="11" lengthAdjust="spacingAndGlyphs" textLength="11" x="461.5" y="639.9951">否</text><rect fill="#FEFECE" filter="url(#fkdz2ksr1uk3l)" height="33.9688" rx="12.5" ry="12.5" style="stroke: #A80036; stroke-width: 1.5;" width="164" x="114.5" y="664.5894"/><text fill="#000000" font-family="sans-serif" font-size="12" lengthAdjust="spacingAndGlyphs" textLength="144" x="124.5" y="685.728">更新书籍借阅状态为已借阅</text><rect fill="#FEFECE" filter="url(#fkdz2ksr1uk3l)" height="33.9688" rx="12.5" ry="12.5" style="stroke: #A80036; stroke-width: 1.5;" width="116" x="138.5" y="718.5581"/><text fill="#000000" font-family="sans-serif" font-size="12" lengthAdjust="spacingAndGlyphs" textLength="96" x="148.5" y="739.6968">添加书籍借阅记录</text><rect fill="#FEFECE" filter="url(#fkdz2ksr1uk3l)" height="33.9688" rx="12.5" ry="12.5" style="stroke: #A80036; stroke-width: 1.5;" width="116" x="138.5" y="787.5269"/><text fill="#000000" font-family="sans-serif" font-size="12" lengthAdjust="spacingAndGlyphs" textLength="96" x="148.5" y="808.6655">系统显示借阅成功</text><rect fill="#FEFECE" filter="url(#fkdz2ksr1uk3l)" height="33.9688" rx="12.5" ry="12.5" style="stroke: #A80036; stroke-width: 1.5;" width="116" x="413.5" y="664.5894"/><text fill="#000000" font-family="sans-serif" font-size="12" lengthAdjust="spacingAndGlyphs" textLength="96" x="423.5" y="685.728">显示不可借阅原因</text><rect fill="#FEFECE" filter="url(#fkdz2ksr1uk3l)" height="33.9688" rx="12.5" ry="12.5" style="stroke: #A80036; stroke-width: 1.5;" width="128" x="407.5" y="766.9604"/><text fill="#000000" font-family="sans-serif" font-size="12" lengthAdjust="spacingAndGlyphs" textLength="108" x="417.5" y="788.0991">跳转至逾期缴费功能</text><polygon fill="#FEFECE" filter="url(#fkdz2ksr1uk3l)" points="416.5,718.5581,526.5,718.5581,538.5,730.5581,526.5,742.5581,416.5,742.5581,404.5,730.5581,416.5,718.5581" style="stroke: #A80036; stroke-width: 1.5;"/><text fill="#000000" font-family="sans-serif" font-size="11" lengthAdjust="spacingAndGlyphs" textLength="11" x="475.5" y="752.7686">是</text><text fill="#000000" font-family="sans-serif" font-size="11" lengthAdjust="spacingAndGlyphs" textLength="110" x="416.5" y="734.3662">用户因欠费而不可借阅</text><polygon fill="#FEFECE" filter="url(#fkdz2ksr1uk3l)" points="471.5,825.3315,483.5,837.3315,471.5,849.3315,459.5,837.3315,471.5,825.3315" style="stroke: #A80036; stroke-width: 1.5;"/><polygon fill="#FEFECE" filter="url(#fkdz2ksr1uk3l)" points="334,855.3315,346,867.3315,334,879.3315,322,867.3315,334,855.3315" style="stroke: #A80036; stroke-width: 1.5;"/><ellipse cx="334" cy="909.3315" fill="none" filter="url(#fkdz2ksr1uk3l)" rx="10" ry="10" style="stroke: #000000; stroke-width: 1.0;"/><ellipse cx="334.5" cy="909.8315" fill="#000000" filter="url(#fkdz2ksr1uk3l)" rx="6" ry="6" style="stroke: none; stroke-width: 1.0;"/><line style="stroke: #A80036; stroke-width: 1.5;" x1="334" x2="334" y1="30" y2="50"/><polygon fill="#A80036" points="330,40,334,50,338,40,334,44" style="stroke: #A80036; stroke-width: 1.0;"/><line style="stroke: #A80036; stroke-width: 1.5;" x1="334" x2="334" y1="83.9688" y2="103.9688"/><polygon fill="#A80036" points="330,93.9688,334,103.9688,338,93.9688,334,97.9688" style="stroke: #A80036; stroke-width: 1.0;"/><line style="stroke: #A80036; stroke-width: 1.5;" x1="334" x2="334" y1="247.6167" y2="276.7144"/><polygon fill="#A80036" points="330,266.7144,334,276.7144,338,266.7144,334,270.7144" style="stroke: #A80036; stroke-width: 1.0;"/><line style="stroke: #A80036; stroke-width: 1.5;" x1="334" x2="334" y1="181.9375" y2="213.6479"/><polygon fill="#A80036" points="330,203.6479,334,213.6479,338,203.6479,334,207.6479" style="stroke: #A80036; stroke-width: 1.0;"/><line style="stroke: #A80036; stroke-width: 1.5;" x1="334" x2="334" y1="310.6831" y2="320.6831"/><line style="stroke: #A80036; stroke-width: 1.5;" x1="334" x2="402" y1="320.6831" y2="320.6831"/><polygon fill="#A80036" points="398,256.7144,402,246.7144,406,256.7144,402,252.7144" style="stroke: #A80036; stroke-width: 1.5;"/><line style="stroke: #A80036; stroke-width: 1.5;" x1="402" x2="402" y1="169.9375" y2="320.6831"/><line style="stroke: #A80036; stroke-width: 1.5;" x1="402" x2="390" y1="169.9375" y2="169.9375"/><polygon fill="#A80036" points="400,165.9375,390,169.9375,400,173.9375,396,169.9375" style="stroke: #A80036; stroke-width: 1.0;"/><line style="stroke: #A80036; stroke-width: 1.5;" x1="278" x2="266" y1="169.9375" y2="169.9375"/><polygon fill="#A80036" points="262,242.7144,266,252.7144,270,242.7144,266,246.7144" style="stroke: #A80036; stroke-width: 1.5;"/><line style="stroke: #A80036; stroke-width: 1.5;" x1="266" x2="266" y1="169.9375" y2="332.6831"/><line style="stroke: #A80036; stroke-width: 1.5;" x1="266" x2="334" y1="332.6831" y2="332.6831"/><line style="stroke: #A80036; stroke-width: 1.5;" x1="334" x2="334" y1="332.6831" y2="352.6831"/><polygon fill="#A80036" points="330,342.6831,334,352.6831,338,342.6831,334,346.6831" style="stroke: #A80036; stroke-width: 1.0;"/><line style="stroke: #A80036; stroke-width: 1.5;" x1="334" x2="334" y1="137.9375" y2="157.9375"/><polygon fill="#A80036" points="330,147.9375,334,157.9375,338,147.9375,334,151.9375" style="stroke: #A80036; stroke-width: 1.0;"/><line style="stroke: #A80036; stroke-width: 1.5;" x1="108" x2="98" y1="498.6206" y2="498.6206"/><line style="stroke: #A80036; stroke-width: 1.5;" x1="98" x2="98" y1="498.6206" y2="520.6206"/><polygon fill="#A80036" points="94,510.6206,98,520.6206,102,510.6206,98,514.6206" style="stroke: #A80036; stroke-width: 1.0;"/><line style="stroke: #A80036; stroke-width: 1.5;" x1="242" x2="252" y1="498.6206" y2="498.6206"/><line style="stroke: #A80036; stroke-width: 1.5;" x1="252" x2="252" y1="498.6206" y2="520.6206"/><polygon fill="#A80036" points="248,510.6206,252,520.6206,256,510.6206,252,514.6206" style="stroke: #A80036; stroke-width: 1.0;"/><line style="stroke: #A80036; stroke-width: 1.5;" x1="98" x2="98" y1="554.5894" y2="572.5894"/><line style="stroke: #A80036; stroke-width: 1.5;" x1="98" x2="163" y1="572.5894" y2="572.5894"/><polygon fill="#A80036" points="153,568.5894,163,572.5894,153,576.5894,157,572.5894" style="stroke: #A80036; stroke-width: 1.0;"/><line style="stroke: #A80036; stroke-width: 1.5;" x1="252" x2="252" y1="554.5894" y2="572.5894"/><line style="stroke: #A80036; stroke-width: 1.5;" x1="252" x2="187" y1="572.5894" y2="572.5894"/><polygon fill="#A80036" points="197,568.5894,187,572.5894,197,576.5894,193,572.5894" style="stroke: #A80036; stroke-width: 1.0;"/><line style="stroke: #A80036; stroke-width: 1.5;" x1="175" x2="175" y1="466.6206" y2="486.6206"/><polygon fill="#A80036" points="171,476.6206,175,486.6206,179,476.6206,175,480.6206" style="stroke: #A80036; stroke-width: 1.0;"/><line style="stroke: #A80036; stroke-width: 1.5;" x1="443" x2="428" y1="498.6206" y2="498.6206"/><line style="stroke: #A80036; stroke-width: 1.5;" x1="428" x2="428" y1="498.6206" y2="520.6206"/><polygon fill="#A80036" points="424,510.6206,428,520.6206,432,510.6206,428,514.6206" style="stroke: #A80036; stroke-width: 1.0;"/><line style="stroke: #A80036; stroke-width: 1.5;" x1="555" x2="570" y1="498.6206" y2="498.6206"/><line style="stroke: #A80036; stroke-width: 1.5;" x1="570" x2="570" y1="498.6206" y2="520.6206"/><polygon fill="#A80036" points="566,510.6206,570,520.6206,574,510.6206,570,514.6206" style="stroke: #A80036; stroke-width: 1.0;"/><line style="stroke: #A80036; stroke-width: 1.5;" x1="428" x2="428" y1="554.5894" y2="572.5894"/><line style="stroke: #A80036; stroke-width: 1.5;" x1="428" x2="487" y1="572.5894" y2="572.5894"/><polygon fill="#A80036" points="477,568.5894,487,572.5894,477,576.5894,481,572.5894" style="stroke: #A80036; stroke-width: 1.0;"/><line style="stroke: #A80036; stroke-width: 1.5;" x1="570" x2="570" y1="554.5894" y2="572.5894"/><line style="stroke: #A80036; stroke-width: 1.5;" x1="570" x2="511" y1="572.5894" y2="572.5894"/><polygon fill="#A80036" points="521,568.5894,511,572.5894,521,576.5894,517,572.5894" style="stroke: #A80036; stroke-width: 1.0;"/><line style="stroke: #A80036; stroke-width: 1.5;" x1="499" x2="499" y1="466.6206" y2="486.6206"/><polygon fill="#A80036" points="495,476.6206,499,486.6206,503,476.6206,499,480.6206" style="stroke: #A80036; stroke-width: 1.0;"/><line style="stroke: #A80036; stroke-width: 1.5;" x1="175" x2="175" y1="412.6519" y2="432.6519"/><polygon fill="#A80036" points="171,422.6519,175,432.6519,179,422.6519,175,426.6519" style="stroke: #A80036; stroke-width: 1.0;"/><line style="stroke: #A80036; stroke-width: 1.5;" x1="499" x2="499" y1="412.6519" y2="432.6519"/><polygon fill="#A80036" points="495,422.6519,499,432.6519,503,422.6519,499,426.6519" style="stroke: #A80036; stroke-width: 1.0;"/><line style="stroke: #A80036; stroke-width: 1.5;" x1="175" x2="175" y1="584.5894" y2="604.5894"/><polygon fill="#A80036" points="171,594.5894,175,604.5894,179,594.5894,175,598.5894" style="stroke: #A80036; stroke-width: 1.0;"/><line style="stroke: #A80036; stroke-width: 1.5;" x1="499" x2="499" y1="584.5894" y2="604.5894"/><polygon fill="#A80036" points="495,594.5894,499,604.5894,503,594.5894,499,598.5894" style="stroke: #A80036; stroke-width: 1.0;"/><line style="stroke: #A80036; stroke-width: 1.5;" x1="334" x2="334" y1="386.6519" y2="406.6519"/><polygon fill="#A80036" points="330,396.6519,334,406.6519,338,396.6519,334,400.6519" style="stroke: #A80036; stroke-width: 1.0;"/><line style="stroke: #A80036; stroke-width: 1.5;" x1="196.5" x2="196.5" y1="698.5581" y2="718.5581"/><polygon fill="#A80036" points="192.5,708.5581,196.5,718.5581,200.5,708.5581,196.5,712.5581" style="stroke: #A80036; stroke-width: 1.0;"/><line style="stroke: #A80036; stroke-width: 1.5;" x1="196.5" x2="196.5" y1="752.5269" y2="787.5269"/><polygon fill="#A80036" points="192.5,777.5269,196.5,787.5269,200.5,777.5269,196.5,781.5269" style="stroke: #A80036; stroke-width: 1.0;"/><line style="stroke: #A80036; stroke-width: 1.5;" x1="471.5" x2="471.5" y1="742.5581" y2="766.9604"/><polygon fill="#A80036" points="467.5,756.9604,471.5,766.9604,475.5,756.9604,471.5,760.9604" style="stroke: #A80036; stroke-width: 1.0;"/><line style="stroke: #A80036; stroke-width: 1.5;" x1="538.5" x2="550.5" y1="730.5581" y2="730.5581"/><polygon fill="#A80036" points="546.5,773.9448,550.5,783.9448,554.5,773.9448,550.5,777.9448" style="stroke: #A80036; stroke-width: 1.5;"/><line style="stroke: #A80036; stroke-width: 1.5;" x1="550.5" x2="550.5" y1="730.5581" y2="837.3315"/><line style="stroke: #A80036; stroke-width: 1.5;" x1="550.5" x2="483.5" y1="837.3315" y2="837.3315"/><polygon fill="#A80036" points="493.5,833.3315,483.5,837.3315,493.5,841.3315,489.5,837.3315" style="stroke: #A80036; stroke-width: 1.0;"/><line style="stroke: #A80036; stroke-width: 1.5;" x1="471.5" x2="471.5" y1="800.9292" y2="825.3315"/><polygon fill="#A80036" points="467.5,815.3315,471.5,825.3315,475.5,815.3315,471.5,819.3315" style="stroke: #A80036; stroke-width: 1.0;"/><line style="stroke: #A80036; stroke-width: 1.5;" x1="471.5" x2="471.5" y1="698.5581" y2="718.5581"/><polygon fill="#A80036" points="467.5,708.5581,471.5,718.5581,475.5,708.5581,471.5,712.5581" style="stroke: #A80036; stroke-width: 1.0;"/><line style="stroke: #A80036; stroke-width: 1.5;" x1="206.5" x2="196.5" y1="642.5894" y2="642.5894"/><line style="stroke: #A80036; stroke-width: 1.5;" x1="196.5" x2="196.5" y1="642.5894" y2="664.5894"/><polygon fill="#A80036" points="192.5,654.5894,196.5,664.5894,200.5,654.5894,196.5,658.5894" style="stroke: #A80036; stroke-width: 1.0;"/><line style="stroke: #A80036; stroke-width: 1.5;" x1="461.5" x2="471.5" y1="642.5894" y2="642.5894"/><line style="stroke: #A80036; stroke-width: 1.5;" x1="471.5" x2="471.5" y1="642.5894" y2="664.5894"/><polygon fill="#A80036" points="467.5,654.5894,471.5,664.5894,475.5,654.5894,471.5,658.5894" style="stroke: #A80036; stroke-width: 1.0;"/><line style="stroke: #A80036; stroke-width: 1.5;" x1="196.5" x2="196.5" y1="821.4956" y2="867.3315"/><line style="stroke: #A80036; stroke-width: 1.5;" x1="196.5" x2="322" y1="867.3315" y2="867.3315"/><polygon fill="#A80036" points="312,863.3315,322,867.3315,312,871.3315,316,867.3315" style="stroke: #A80036; stroke-width: 1.0;"/><line style="stroke: #A80036; stroke-width: 1.5;" x1="471.5" x2="471.5" y1="849.3315" y2="867.3315"/><line style="stroke: #A80036; stroke-width: 1.5;" x1="471.5" x2="346" y1="867.3315" y2="867.3315"/><polygon fill="#A80036" points="356,863.3315,346,867.3315,356,871.3315,352,867.3315" style="stroke: #A80036; stroke-width: 1.0;"/><line style="stroke: #A80036; stroke-width: 1.5;" x1="334" x2="334" y1="610.5894" y2="630.5894"/><polygon fill="#A80036" points="330,620.5894,334,630.5894,338,620.5894,334,624.5894" style="stroke: #A80036; stroke-width: 1.0;"/><line style="stroke: #A80036; stroke-width: 1.5;" x1="334" x2="334" y1="879.3315" y2="899.3315"/><polygon fill="#A80036" points="330,889.3315,334,899.3315,338,889.3315,334,893.3315" style="stroke: #A80036; stroke-width: 1.0;"/><!--
@startuml
start
:点击借书;
:系统提示扫描书内二维码;
while (还有书籍没有借阅) is (对)
:扫描二维码;
:展示书籍信息;
endwhile (否)
:提交借阅请求;
fork
:系统查询借阅者信誉记录;
if (信誉等级为中及中以上) then (是)
:返回同意借阅状态码;
else (否)
:返回不同意借阅状态码;
endif
fork again
:系统查询书籍借阅状态;
if (借阅状态为可借阅) then (是)
:返回可借阅状态码;
else (否)
:返回不可借阅状态码;
endif
end fork
if (用户借阅状态为可借阅且书籍借阅状态为可借阅) then (是)
:更新书籍借阅状态为已借阅;
:添加书籍借阅记录;
:系统显示借阅成功;
else (否)
:显示不可借阅原因;
if (用户因欠费而不可借阅) then (是)
:跳转至逾期缴费功能;
endif
endif
stop
@enduml

PlantUML version 1.2019.01(Sat Feb 09 15:32:04 UTC 2019)
(GPL source distribution)
Java Runtime: OpenJDK Runtime Environment
JVM: OpenJDK 64-Bit Server VM
Java Version: 1.8.0_181-8u181-b13-2~deb9u1-b13
Operating System: Linux
OS Version: 3.10.0-957.5.1.el7.x86_64
Default Encoding: UTF-8
Language: en
Country: null
--></g></svg>