<?xml version="1.0" encoding="UTF-8" standalone="no"?><svg xmlns="http://www.w3.org/2000/svg" xmlns:xlink="http://www.w3.org/1999/xlink" contentScriptType="application/ecmascript" contentStyleType="text/css" height="908px" preserveAspectRatio="none" style="width:447px;height:908px;" version="1.1" viewBox="0 0 447 908" width="447px" zoomAndPan="magnify"><defs><filter height="300%" id="fbc2zad6gefrt" width="300%" x="-1" y="-1"><feGaussianBlur result="blurOut" stdDeviation="2.0"/><feColorMatrix in="blurOut" result="blurOut2" type="matrix" values="0 0 0 0 0 0 0 0 0 0 0 0 0 0 0 0 0 0 .4 0"/><feOffset dx="4.0" dy="4.0" in="blurOut2" result="blurOut3"/><feBlend in="SourceGraphic" in2="blurOut3" mode="normal"/></filter></defs><g><ellipse cx="269" cy="18" fill="#000000" filter="url(#fbc2zad6gefrt)" rx="10" ry="10" style="stroke: none; stroke-width: 1.0;"/><rect fill="#FEFECE" filter="url(#fbc2zad6gefrt)" height="50" rx="12.5" ry="12.5" style="stroke: #A80036; stroke-width: 1.5;" width="50" x="244" y="215"/><line style="stroke: #A80036; stroke-width: 1.5;" x1="244" x2="294" y1="241.2969" y2="241.2969"/><text fill="#000000" font-family="sans-serif" font-size="14" lengthAdjust="spacingAndGlyphs" textLength="28" x="255" y="232.9951">登录</text><rect fill="#FEFECE" filter="url(#fbc2zad6gefrt)" height="50" rx="12.5" ry="12.5" style="stroke: #A80036; stroke-width: 1.5;" width="50" x="179" y="468"/><line style="stroke: #A80036; stroke-width: 1.5;" x1="179" x2="229" y1="494.2969" y2="494.2969"/><text fill="#000000" font-family="sans-serif" font-size="14" lengthAdjust="spacingAndGlyphs" textLength="28" x="190" y="485.9951">空闲</text><rect fill="#FEFECE" filter="url(#fbc2zad6gefrt)" height="216.2969" rx="12.5" ry="12.5" style="stroke: #A80036; stroke-width: 1.5;" width="134" x="13" y="638"/><rect fill="#FFFFFF" height="184" rx="12.5" ry="12.5" style="stroke: #FFFFFF; stroke-width: 1.0;" width="128" x="16" y="667.2969"/><line style="stroke: #A80036; stroke-width: 1.5;" x1="13" x2="147" y1="664.2969" y2="664.2969"/><text fill="#000000" font-family="sans-serif" font-size="14" lengthAdjust="spacingAndGlyphs" textLength="56" x="52" y="655.9951">取件开始</text><ellipse cx="69" cy="687.2969" fill="#000000" filter="url(#fbc2zad6gefrt)" rx="10" ry="10" style="stroke: none; stroke-width: 1.0;"/><rect fill="#FEFECE" filter="url(#fbc2zad6gefrt)" height="50" rx="12.5" ry="12.5" style="stroke: #A80036; stroke-width: 1.5;" width="90" x="24" y="733.2969"/><line style="stroke: #A80036; stroke-width: 1.5;" x1="24" x2="114" y1="759.5938" y2="759.5938"/><text fill="#000000" font-family="sans-serif" font-size="14" lengthAdjust="spacingAndGlyphs" textLength="70" x="34" y="751.292">打开快递柜</text><ellipse cx="69" cy="829.2969" fill="none" filter="url(#fbc2zad6gefrt)" rx="10" ry="10" style="stroke: #000000; stroke-width: 1.0;"/><ellipse cx="69.5" cy="829.7969" fill="#000000" rx="6" ry="6" style="stroke: none; stroke-width: 1.0;"/><!--link *start*取件开始 to 打开快递柜--><path d="M69,697.3179 C69,705.1739 69,717.0129 69,728.1019 " fill="none" id="*start*取件开始-打开快递柜" style="stroke: #A80036; stroke-width: 1.0;"/><polygon fill="#A80036" points="69,733.1279,73,724.1279,69,728.1279,65,724.1279,69,733.1279" style="stroke: #A80036; stroke-width: 1.0;"/><!--link 打开快递柜 to *end*取件开始--><path d="M69,783.4298 C69,793.5996 69,805.0944 69,813.903 " fill="none" id="打开快递柜-*end*取件开始" style="stroke: #A80036; stroke-width: 1.0;"/><polygon fill="#A80036" points="69,819.0047,73,810.0047,69,814.0047,65,810.0047,69,819.0047" style="stroke: #A80036; stroke-width: 1.0;"/><rect fill="#FEFECE" filter="url(#fbc2zad6gefrt)" height="302.2969" rx="12.5" ry="12.5" style="stroke: #A80036; stroke-width: 1.5;" width="176" x="6" y="89"/><rect fill="#FFFFFF" height="270" rx="12.5" ry="12.5" style="stroke: #FFFFFF; stroke-width: 1.0;" width="170" x="9" y="118.2969"/><line style="stroke: #A80036; stroke-width: 1.5;" x1="6" x2="182" y1="115.2969" y2="115.2969"/><text fill="#000000" font-family="sans-serif" font-size="14" lengthAdjust="spacingAndGlyphs" textLength="56" x="66" y="106.9951">确认取件</text><ellipse cx="83" cy="138.2969" fill="#000000" filter="url(#fbc2zad6gefrt)" rx="10" ry="10" style="stroke: none; stroke-width: 1.0;"/><rect fill="#FEFECE" filter="url(#fbc2zad6gefrt)" height="50" rx="12.5" ry="12.5" style="stroke: #A80036; stroke-width: 1.5;" width="104" x="31" y="184.2969"/><line style="stroke: #A80036; stroke-width: 1.5;" x1="31" x2="135" y1="210.5938" y2="210.5938"/><text fill="#000000" font-family="sans-serif" font-size="14" lengthAdjust="spacingAndGlyphs" textLength="84" x="41" y="202.292">上传快递单号</text><rect fill="#FEFECE" filter="url(#fbc2zad6gefrt)" height="50" rx="12.5" ry="12.5" style="stroke: #A80036; stroke-width: 1.5;" width="132" x="17" y="270.2969"/><line style="stroke: #A80036; stroke-width: 1.5;" x1="17" x2="149" y1="296.5938" y2="296.5938"/><text fill="#000000" font-family="sans-serif" font-size="14" lengthAdjust="spacingAndGlyphs" textLength="112" x="27" y="288.292">告知用户寄件状态</text><ellipse cx="83" cy="366.2969" fill="none" filter="url(#fbc2zad6gefrt)" rx="10" ry="10" style="stroke: #000000; stroke-width: 1.0;"/><ellipse cx="83.5" cy="366.7969" fill="#000000" rx="6" ry="6" style="stroke: none; stroke-width: 1.0;"/><!--link *start*确认取件 to 上传快递单号--><path d="M83,148.3179 C83,156.1739 83,168.0129 83,179.1019 " fill="none" id="*start*确认取件-上传快递单号" style="stroke: #A80036; stroke-width: 1.0;"/><polygon fill="#A80036" points="83,184.1279,87,175.1279,83,179.1279,79,175.1279,83,184.1279" style="stroke: #A80036; stroke-width: 1.0;"/><!--link 上传快递单号 to 告知用户寄件状态--><path d="M83,234.5929 C83,244.0829 83,255.0499 83,264.9739 " fill="none" id="上传快递单号-告知用户寄件状态" style="stroke: #A80036; stroke-width: 1.0;"/><polygon fill="#A80036" points="83,270.0549,87,261.0549,83,265.0549,79,261.0549,83,270.0549" style="stroke: #A80036; stroke-width: 1.0;"/><!--link 告知用户寄件状态 to *end*确认取件--><path d="M83,320.4298 C83,330.5996 83,342.0944 83,350.903 " fill="none" id="告知用户寄件状态-*end*确认取件" style="stroke: #A80036; stroke-width: 1.0;"/><polygon fill="#A80036" points="83,356.0047,87,347.0047,83,351.0047,79,347.0047,83,356.0047" style="stroke: #A80036; stroke-width: 1.0;"/><rect fill="#FEFECE" filter="url(#fbc2zad6gefrt)" height="302.2969" rx="12.5" ry="12.5" style="stroke: #A80036; stroke-width: 1.5;" width="176" x="259" y="595"/><rect fill="#FFFFFF" height="270" rx="12.5" ry="12.5" style="stroke: #FFFFFF; stroke-width: 1.0;" width="170" x="262" y="624.2969"/><line style="stroke: #A80036; stroke-width: 1.5;" x1="259" x2="435" y1="621.2969" y2="621.2969"/><text fill="#000000" font-family="sans-serif" font-size="14" lengthAdjust="spacingAndGlyphs" textLength="56" x="319" y="612.9951">拒收取件</text><ellipse cx="336" cy="644.2969" fill="#000000" filter="url(#fbc2zad6gefrt)" rx="10" ry="10" style="stroke: none; stroke-width: 1.0;"/><rect fill="#FEFECE" filter="url(#fbc2zad6gefrt)" height="50" rx="12.5" ry="12.5" style="stroke: #A80036; stroke-width: 1.5;" width="104" x="284" y="690.2969"/><line style="stroke: #A80036; stroke-width: 1.5;" x1="284" x2="388" y1="716.5938" y2="716.5938"/><text fill="#000000" font-family="sans-serif" font-size="14" lengthAdjust="spacingAndGlyphs" textLength="84" x="294" y="708.292">上传拒收理由</text><rect fill="#FEFECE" filter="url(#fbc2zad6gefrt)" height="50" rx="12.5" ry="12.5" style="stroke: #A80036; stroke-width: 1.5;" width="132" x="270" y="776.2969"/><line style="stroke: #A80036; stroke-width: 1.5;" x1="270" x2="402" y1="802.5938" y2="802.5938"/><text fill="#000000" font-family="sans-serif" font-size="14" lengthAdjust="spacingAndGlyphs" textLength="112" x="280" y="794.292">通知用户取回寄件</text><ellipse cx="336" cy="872.2969" fill="none" filter="url(#fbc2zad6gefrt)" rx="10" ry="10" style="stroke: #000000; stroke-width: 1.0;"/><ellipse cx="336.5" cy="872.7969" fill="#000000" rx="6" ry="6" style="stroke: none; stroke-width: 1.0;"/><!--link *start*拒收取件 to 上传拒收理由--><path d="M336,654.3179 C336,662.1739 336,674.0129 336,685.1019 " fill="none" id="*start*拒收取件-上传拒收理由" style="stroke: #A80036; stroke-width: 1.0;"/><polygon fill="#A80036" points="336,690.1279,340,681.1279,336,685.1279,332,681.1279,336,690.1279" style="stroke: #A80036; stroke-width: 1.0;"/><!--link 上传拒收理由 to 通知用户取回寄件--><path d="M336,740.5929 C336,750.0829 336,761.0499 336,770.9739 " fill="none" id="上传拒收理由-通知用户取回寄件" style="stroke: #A80036; stroke-width: 1.0;"/><polygon fill="#A80036" points="336,776.0549,340,767.0549,336,771.0549,332,767.0549,336,776.0549" style="stroke: #A80036; stroke-width: 1.0;"/><!--link 通知用户取回寄件 to *end*拒收取件--><path d="M336,826.4298 C336,836.5996 336,848.0944 336,856.903 " fill="none" id="通知用户取回寄件-*end*拒收取件" style="stroke: #A80036; stroke-width: 1.0;"/><polygon fill="#A80036" points="336,862.0047,340,853.0047,336,857.0047,332,853.0047,336,862.0047" style="stroke: #A80036; stroke-width: 1.0;"/><!--link *start to 登录--><path d="M269,28.173 C269,58.93 269,159.293 269,209.64 " fill="none" id="*start-登录" style="stroke: #A80036; stroke-width: 1.0;"/><polygon fill="#A80036" points="269,214.939,273,205.939,269,209.939,265,205.939,269,214.939" style="stroke: #A80036; stroke-width: 1.0;"/><!--link 登录 to 登录--><path d="M286.505,214.953 C306.265,197.725 329,206.074 329,240 C329,271.54 309.35,280.974 290.708,268.301 " fill="none" id="登录-登录" style="stroke: #A80036; stroke-width: 1.0;"/><polygon fill="#A80036" points="286.505,265.047,291.1728,273.7195,290.4586,268.1079,296.0702,267.3937,286.505,265.047" style="stroke: #A80036; stroke-width: 1.0;"/><text fill="#000000" font-family="sans-serif" font-size="13" lengthAdjust="spacingAndGlyphs" textLength="62" x="335" y="244.5669">[登录失败]</text><!--link 登录 to 空闲--><path d="M255.339,265.058 C237.106,298.687 205.752,362.242 194,421 C191.263,434.685 192.841,450.002 195.48,462.896 " fill="none" id="登录-空闲" style="stroke: #A80036; stroke-width: 1.0;"/><polygon fill="#A80036" points="196.58,467.893,198.5527,458.2437,195.5056,463.0098,190.7396,459.9627,196.58,467.893" style="stroke: #A80036; stroke-width: 1.0;"/><text fill="#000000" font-family="sans-serif" font-size="13" lengthAdjust="spacingAndGlyphs" textLength="62" x="195" y="434.0669">[登录成功]</text><!--link 登录 to 空闲--><path d="M274.645,270.25 C280.904,310.17 287.098,383.03 262,438 C254.972,453.394 241.308,466.461 229.007,475.884 " fill="none" id="登录-空闲" style="stroke: #A80036; stroke-width: 1.0;"/><polygon fill="#A80036" points="273.804,265.076,271.2986,274.6009,274.6056,270.0113,279.1951,273.3183,273.804,265.076" style="stroke: #A80036; stroke-width: 1.0;"/><text fill="#000000" font-family="sans-serif" font-size="13" lengthAdjust="spacingAndGlyphs" textLength="36" x="269" y="434.0669">[注销]</text><!--link 空闲 to 取件开始--><path d="M192.11,518.067 C178.863,544.882 156.5,590.149 135.216,633.232 " fill="none" id="空闲-取件开始" style="stroke: #A80036; stroke-width: 1.0;"/><polygon fill="#A80036" points="132.894,637.932,140.4661,631.6342,135.1083,633.4491,133.2934,628.0912,132.894,637.932" style="stroke: #A80036; stroke-width: 1.0;"/><text fill="#000000" font-family="sans-serif" font-size="13" lengthAdjust="spacingAndGlyphs" textLength="62" x="179" y="561.0669">[新的取件]</text><!--link 确认取件 to 取件开始--><path d="M89.6853,396.329 C87.5102,474.633 84.9273,567.616 82.9761,637.86 " fill="none" id="确认取件-取件开始" style="stroke: #A80036; stroke-width: 1.0;"/><polygon fill="#A80036" points="89.828,391.193,85.5776,400.0775,89.688,396.191,93.5744,400.3015,89.828,391.193" style="stroke: #A80036; stroke-width: 1.0;"/><text fill="#000000" font-family="sans-serif" font-size="13" lengthAdjust="spacingAndGlyphs" textLength="62" x="89" y="497.5669">[验收通过]</text><!--link 取件开始 to 拒收取件--><path d="M147.031,746 C179.275,746 218.464,746 253.577,746 " fill="none" id="取件开始-拒收取件" style="stroke: #A80036; stroke-width: 1.0;"/><polygon fill="#A80036" points="258.726,746,249.726,742,253.726,746,249.726,750,258.726,746" style="stroke: #A80036; stroke-width: 1.0;"/><text fill="#000000" font-family="sans-serif" font-size="13" lengthAdjust="spacingAndGlyphs" textLength="75" x="165.5" y="739.0669">[验收未通过]</text><!--link 确认取件 to 空闲--><path d="M159.893,391.355 C171.854,418.649 183.1,444.309 191.242,462.889 " fill="none" id="确认取件-空闲" style="stroke: #A80036; stroke-width: 1.0;"/><polygon fill="#A80036" points="193.454,467.937,193.5051,458.0883,191.4471,463.3575,186.1779,461.2994,193.454,467.937" style="stroke: #A80036; stroke-width: 1.0;"/><!--link 拒收取件 to 空闲--><path d="M278.003,594.899 C269.138,578.744 259.738,562.813 250,548 C244.186,539.156 237.092,530.165 230.232,522.122 " fill="none" id="拒收取件-空闲" style="stroke: #A80036; stroke-width: 1.0;"/><polygon fill="#A80036" points="226.89,518.254,229.7475,527.6792,230.159,522.0373,235.8009,522.4488,226.89,518.254" style="stroke: #A80036; stroke-width: 1.0;"/><!--
@startuml
[*] - -> 登录
登录 - -> 登录: [登录失败]

登录 -right-> 空闲: [登录成功]
空闲 -up-> 登录: [注销]

空闲 -down-> 取件开始: [新的取件]

state 取件开始 {
  [*] - -> 打开快递柜
  打开快递柜 - -> [*]
}

取件开始 -left-> 确认取件: [验收通过]

取件开始 -right-> 拒收取件: [验收未通过]

state 确认取件{
  [*] - -> 上传快递单号
  上传快递单号 - -> 告知用户寄件状态
  告知用户寄件状态 - -> [*]
}

state 拒收取件{
  [*] - -> 上传拒收理由
  上传拒收理由 - -> 通知用户取回寄件
  通知用户取回寄件 - -> [*]
}

确认取件 - -> 空闲
拒收取件 - -> 空闲
@enduml

PlantUML version 1.2019.01(Sat Feb 09 15:32:04 UTC 2019)
(GPL source distribution)
Java Runtime: OpenJDK Runtime Environment
JVM: OpenJDK 64-Bit Server VM
Java Version: 1.8.0_181-8u181-b13-2~deb9u1-b13
Operating System: Linux
OS Version: 3.10.0-957.5.1.el7.x86_64
Default Encoding: UTF-8
Language: en
Country: null
--></g></svg>