<?xml version="1.0" encoding="UTF-8" standalone="no"?><svg xmlns="http://www.w3.org/2000/svg" xmlns:xlink="http://www.w3.org/1999/xlink" contentScriptType="application/ecmascript" contentStyleType="text/css" height="634px" preserveAspectRatio="none" style="width:332px;height:634px;" version="1.1" viewBox="0 0 332 634" width="332px" zoomAndPan="magnify"><defs><filter height="300%" id="fh4c73q656m3w" width="300%" x="-1" y="-1"><feGaussianBlur result="blurOut" stdDeviation="2.0"/><feColorMatrix in="blurOut" result="blurOut2" type="matrix" values="0 0 0 0 0 0 0 0 0 0 0 0 0 0 0 0 0 0 .4 0"/><feOffset dx="4.0" dy="4.0" in="blurOut2" result="blurOut3"/><feBlend in="SourceGraphic" in2="blurOut3" mode="normal"/></filter></defs><g><!--class 用户--><rect fill="#FEFECE" filter="url(#fh4c73q656m3w)" height="99.2188" id="用户" style="stroke: #A80036; stroke-width: 1.5;" width="56" x="133" y="416"/><ellipse cx="148" cy="432" fill="#ADD1B2" rx="11" ry="11" style="stroke: #A80036; stroke-width: 1.0;"/><path d="M150.9688,437.6406 Q150.3906,437.9375 149.75,438.0859 Q149.1094,438.2344 148.4063,438.2344 Q145.9063,438.2344 144.5859,436.5859 Q143.2656,434.9375 143.2656,431.8125 Q143.2656,428.6875 144.5859,427.0313 Q145.9063,425.375 148.4063,425.375 Q149.1094,425.375 149.7578,425.5313 Q150.4063,425.6875 150.9688,425.9844 L150.9688,428.7031 Q150.3438,428.125 149.75,427.8516 Q149.1563,427.5781 148.5313,427.5781 Q147.1875,427.5781 146.5,428.6484 Q145.8125,429.7188 145.8125,431.8125 Q145.8125,433.9063 146.5,434.9766 Q147.1875,436.0469 148.5313,436.0469 Q149.1563,436.0469 149.75,435.7734 Q150.3438,435.5 150.9688,434.9219 L150.9688,437.6406 Z "/><text fill="#000000" font-family="sans-serif" font-size="12" lengthAdjust="spacingAndGlyphs" textLength="24" x="162" y="436.1543">用户</text><line style="stroke: #A80036; stroke-width: 1.5;" x1="134" x2="188" y1="448" y2="448"/><text fill="#000000" font-family="sans-serif" font-size="11" lengthAdjust="spacingAndGlyphs" textLength="11" x="139" y="462.2104">ID</text><text fill="#000000" font-family="sans-serif" font-size="11" lengthAdjust="spacingAndGlyphs" textLength="33" x="139" y="475.0151">用户名</text><text fill="#000000" font-family="sans-serif" font-size="11" lengthAdjust="spacingAndGlyphs" textLength="22" x="139" y="487.8198">密码</text><text fill="#000000" font-family="sans-serif" font-size="11" lengthAdjust="spacingAndGlyphs" textLength="44" x="139" y="500.6245">用户身份</text><line style="stroke: #A80036; stroke-width: 1.5;" x1="134" x2="188" y1="507.2188" y2="507.2188"/><!--class 书籍--><rect fill="#FEFECE" filter="url(#fh4c73q656m3w)" height="176.0469" id="书籍" style="stroke: #A80036; stroke-width: 1.5;" width="90" x="106" y="8"/><ellipse cx="136.3" cy="24" fill="#ADD1B2" rx="11" ry="11" style="stroke: #A80036; stroke-width: 1.0;"/><path d="M139.2688,29.6406 Q138.6906,29.9375 138.05,30.0859 Q137.4094,30.2344 136.7063,30.2344 Q134.2063,30.2344 132.8859,28.5859 Q131.5656,26.9375 131.5656,23.8125 Q131.5656,20.6875 132.8859,19.0313 Q134.2063,17.375 136.7063,17.375 Q137.4094,17.375 138.0578,17.5313 Q138.7063,17.6875 139.2688,17.9844 L139.2688,20.7031 Q138.6438,20.125 138.05,19.8516 Q137.4563,19.5781 136.8313,19.5781 Q135.4875,19.5781 134.8,20.6484 Q134.1125,21.7188 134.1125,23.8125 Q134.1125,25.9063 134.8,26.9766 Q135.4875,28.0469 136.8313,28.0469 Q137.4563,28.0469 138.05,27.7734 Q138.6438,27.5 139.2688,26.9219 L139.2688,29.6406 Z "/><text fill="#000000" font-family="sans-serif" font-size="12" lengthAdjust="spacingAndGlyphs" textLength="24" x="153.7" y="28.1543">书籍</text><line style="stroke: #A80036; stroke-width: 1.5;" x1="107" x2="195" y1="40" y2="40"/><text fill="#000000" font-family="sans-serif" font-size="11" lengthAdjust="spacingAndGlyphs" textLength="33" x="112" y="54.2104">馆藏号</text><text fill="#000000" font-family="sans-serif" font-size="11" lengthAdjust="spacingAndGlyphs" textLength="38" x="112" y="67.0151">ISBN号</text><text fill="#000000" font-family="sans-serif" font-size="11" lengthAdjust="spacingAndGlyphs" textLength="22" x="112" y="79.8198">书名</text><text fill="#000000" font-family="sans-serif" font-size="11" lengthAdjust="spacingAndGlyphs" textLength="22" x="112" y="92.6245">作者</text><text fill="#000000" font-family="sans-serif" font-size="11" lengthAdjust="spacingAndGlyphs" textLength="33" x="112" y="105.4292">出版社</text><text fill="#000000" font-family="sans-serif" font-size="11" lengthAdjust="spacingAndGlyphs" textLength="44" x="112" y="118.2339">出版日期</text><text fill="#000000" font-family="sans-serif" font-size="11" lengthAdjust="spacingAndGlyphs" textLength="55" x="112" y="131.0386">是否可借阅</text><line style="stroke: #A80036; stroke-width: 1.5;" x1="107" x2="195" y1="137.6328" y2="137.6328"/><ellipse cx="117" cy="149.5352" fill="#84BE84" rx="3" ry="3" style="stroke: #038048; stroke-width: 1.0;"/><text fill="#000000" font-family="sans-serif" font-size="11" lengthAdjust="spacingAndGlyphs" textLength="47" x="126" y="151.8433">getInfo()</text><polygon fill="#FFFF44" points="117,157.3398,121,161.3398,117,165.3398,113,161.3398" style="stroke: #B38D22; stroke-width: 1.0;"/><text fill="#000000" font-family="sans-serif" font-size="11" lengthAdjust="spacingAndGlyphs" textLength="47" x="126" y="164.6479">setInfo()</text><polygon fill="#FFFF44" points="117,170.1445,121,174.1445,117,178.1445,113,174.1445" style="stroke: #B38D22; stroke-width: 1.0;"/><text fill="#000000" font-family="sans-serif" font-size="11" lengthAdjust="spacingAndGlyphs" textLength="64" x="126" y="177.4526">deleteInfo()</text><!--class 借阅记录--><rect fill="#FEFECE" filter="url(#fh4c73q656m3w)" height="112.0234" id="借阅记录" style="stroke: #A80036; stroke-width: 1.5;" width="80" x="121" y="244"/><ellipse cx="136" cy="260" fill="#ADD1B2" rx="11" ry="11" style="stroke: #A80036; stroke-width: 1.0;"/><path d="M138.9688,265.6406 Q138.3906,265.9375 137.75,266.0859 Q137.1094,266.2344 136.4063,266.2344 Q133.9063,266.2344 132.5859,264.5859 Q131.2656,262.9375 131.2656,259.8125 Q131.2656,256.6875 132.5859,255.0313 Q133.9063,253.375 136.4063,253.375 Q137.1094,253.375 137.7578,253.5313 Q138.4063,253.6875 138.9688,253.9844 L138.9688,256.7031 Q138.3438,256.125 137.75,255.8516 Q137.1563,255.5781 136.5313,255.5781 Q135.1875,255.5781 134.5,256.6484 Q133.8125,257.7188 133.8125,259.8125 Q133.8125,261.9063 134.5,262.9766 Q135.1875,264.0469 136.5313,264.0469 Q137.1563,264.0469 137.75,263.7734 Q138.3438,263.5 138.9688,262.9219 L138.9688,265.6406 Z "/><text fill="#000000" font-family="sans-serif" font-size="12" lengthAdjust="spacingAndGlyphs" textLength="48" x="150" y="264.1543">借阅记录</text><line style="stroke: #A80036; stroke-width: 1.5;" x1="122" x2="200" y1="276" y2="276"/><text fill="#000000" font-family="sans-serif" font-size="11" lengthAdjust="spacingAndGlyphs" textLength="33" x="127" y="290.2104">借阅ID</text><text fill="#000000" font-family="sans-serif" font-size="11" lengthAdjust="spacingAndGlyphs" textLength="55" x="127" y="303.0151">书籍馆藏号</text><text fill="#000000" font-family="sans-serif" font-size="11" lengthAdjust="spacingAndGlyphs" textLength="33" x="127" y="315.8198">用户ID</text><text fill="#000000" font-family="sans-serif" font-size="11" lengthAdjust="spacingAndGlyphs" textLength="44" x="127" y="328.6245">借阅日期</text><text fill="#000000" font-family="sans-serif" font-size="11" lengthAdjust="spacingAndGlyphs" textLength="55" x="127" y="341.4292">应归还日期</text><line style="stroke: #A80036; stroke-width: 1.5;" x1="122" x2="200" y1="348.0234" y2="348.0234"/><!--class 归还记录--><rect fill="#FEFECE" filter="url(#fh4c73q656m3w)" height="73.6094" id="归还记录" style="stroke: #A80036; stroke-width: 1.5;" width="80" x="236" y="263"/><ellipse cx="251" cy="279" fill="#ADD1B2" rx="11" ry="11" style="stroke: #A80036; stroke-width: 1.0;"/><path d="M253.9688,284.6406 Q253.3906,284.9375 252.75,285.0859 Q252.1094,285.2344 251.4063,285.2344 Q248.9063,285.2344 247.5859,283.5859 Q246.2656,281.9375 246.2656,278.8125 Q246.2656,275.6875 247.5859,274.0313 Q248.9063,272.375 251.4063,272.375 Q252.1094,272.375 252.7578,272.5313 Q253.4063,272.6875 253.9688,272.9844 L253.9688,275.7031 Q253.3438,275.125 252.75,274.8516 Q252.1563,274.5781 251.5313,274.5781 Q250.1875,274.5781 249.5,275.6484 Q248.8125,276.7188 248.8125,278.8125 Q248.8125,280.9063 249.5,281.9766 Q250.1875,283.0469 251.5313,283.0469 Q252.1563,283.0469 252.75,282.7734 Q253.3438,282.5 253.9688,281.9219 L253.9688,284.6406 Z "/><text fill="#000000" font-family="sans-serif" font-size="12" lengthAdjust="spacingAndGlyphs" textLength="48" x="265" y="283.1543">归还记录</text><line style="stroke: #A80036; stroke-width: 1.5;" x1="237" x2="315" y1="295" y2="295"/><text fill="#000000" font-family="sans-serif" font-size="11" lengthAdjust="spacingAndGlyphs" textLength="33" x="242" y="309.2104">借阅ID</text><text fill="#000000" font-family="sans-serif" font-size="11" lengthAdjust="spacingAndGlyphs" textLength="66" x="242" y="322.0151">实际归还日期</text><line style="stroke: #A80036; stroke-width: 1.5;" x1="237" x2="315" y1="328.6094" y2="328.6094"/><!--class 信誉记录--><rect fill="#FEFECE" filter="url(#fh4c73q656m3w)" height="137.6328" id="信誉记录" style="stroke: #A80036; stroke-width: 1.5;" width="90" x="231" y="27"/><ellipse cx="250.5" cy="43" fill="#ADD1B2" rx="11" ry="11" style="stroke: #A80036; stroke-width: 1.0;"/><path d="M253.4688,48.6406 Q252.8906,48.9375 252.25,49.0859 Q251.6094,49.2344 250.9063,49.2344 Q248.4063,49.2344 247.0859,47.5859 Q245.7656,45.9375 245.7656,42.8125 Q245.7656,39.6875 247.0859,38.0313 Q248.4063,36.375 250.9063,36.375 Q251.6094,36.375 252.2578,36.5313 Q252.9063,36.6875 253.4688,36.9844 L253.4688,39.7031 Q252.8438,39.125 252.25,38.8516 Q251.6563,38.5781 251.0313,38.5781 Q249.6875,38.5781 249,39.6484 Q248.3125,40.7188 248.3125,42.8125 Q248.3125,44.9063 249,45.9766 Q249.6875,47.0469 251.0313,47.0469 Q251.6563,47.0469 252.25,46.7734 Q252.8438,46.5 253.4688,45.9219 L253.4688,48.6406 Z "/><text fill="#000000" font-family="sans-serif" font-size="12" lengthAdjust="spacingAndGlyphs" textLength="48" x="265.5" y="47.1543">信誉记录</text><line style="stroke: #A80036; stroke-width: 1.5;" x1="232" x2="320" y1="59" y2="59"/><text fill="#000000" font-family="sans-serif" font-size="11" lengthAdjust="spacingAndGlyphs" textLength="33" x="237" y="73.2104">用户ID</text><text fill="#000000" font-family="sans-serif" font-size="11" lengthAdjust="spacingAndGlyphs" textLength="44" x="237" y="86.0151">违规日期</text><text fill="#000000" font-family="sans-serif" font-size="11" lengthAdjust="spacingAndGlyphs" textLength="22" x="237" y="98.8198">图书</text><text fill="#000000" font-family="sans-serif" font-size="11" lengthAdjust="spacingAndGlyphs" textLength="44" x="237" y="111.6245">违规原因</text><line style="stroke: #A80036; stroke-width: 1.5;" x1="232" x2="320" y1="118.2188" y2="118.2188"/><ellipse cx="242" cy="130.1211" fill="#84BE84" rx="3" ry="3" style="stroke: #038048; stroke-width: 1.0;"/><text fill="#000000" font-family="sans-serif" font-size="11" lengthAdjust="spacingAndGlyphs" textLength="47" x="251" y="132.4292">getInfo()</text><polygon fill="#FFFF44" points="242,137.9258,246,141.9258,242,145.9258,238,141.9258" style="stroke: #B38D22; stroke-width: 1.0;"/><text fill="#000000" font-family="sans-serif" font-size="11" lengthAdjust="spacingAndGlyphs" textLength="47" x="251" y="145.2339">setInfo()</text><polygon fill="#FFFF44" points="242,150.7305,246,154.7305,242,158.7305,238,154.7305" style="stroke: #B38D22; stroke-width: 1.0;"/><text fill="#000000" font-family="sans-serif" font-size="11" lengthAdjust="spacingAndGlyphs" textLength="64" x="251" y="158.0386">deleteInfo()</text><!--class 读者--><rect fill="#FEFECE" filter="url(#fh4c73q656m3w)" height="48" id="读者" style="stroke: #A80036; stroke-width: 1.5;" width="56" x="224" y="441.5"/><ellipse cx="239" cy="457.5" fill="#ADD1B2" rx="11" ry="11" style="stroke: #A80036; stroke-width: 1.0;"/><path d="M241.9688,463.1406 Q241.3906,463.4375 240.75,463.5859 Q240.1094,463.7344 239.4063,463.7344 Q236.9063,463.7344 235.5859,462.0859 Q234.2656,460.4375 234.2656,457.3125 Q234.2656,454.1875 235.5859,452.5313 Q236.9063,450.875 239.4063,450.875 Q240.1094,450.875 240.7578,451.0313 Q241.4063,451.1875 241.9688,451.4844 L241.9688,454.2031 Q241.3438,453.625 240.75,453.3516 Q240.1563,453.0781 239.5313,453.0781 Q238.1875,453.0781 237.5,454.1484 Q236.8125,455.2188 236.8125,457.3125 Q236.8125,459.4063 237.5,460.4766 Q238.1875,461.5469 239.5313,461.5469 Q240.1563,461.5469 240.75,461.2734 Q241.3438,461 241.9688,460.4219 L241.9688,463.1406 Z "/><text fill="#000000" font-family="sans-serif" font-size="12" lengthAdjust="spacingAndGlyphs" textLength="24" x="253" y="461.6543">读者</text><line style="stroke: #A80036; stroke-width: 1.5;" x1="225" x2="279" y1="473.5" y2="473.5"/><line style="stroke: #A80036; stroke-width: 1.5;" x1="225" x2="279" y1="481.5" y2="481.5"/><!--class 流通部人员--><rect fill="#FEFECE" filter="url(#fh4c73q656m3w)" height="48" id="流通部人员" style="stroke: #A80036; stroke-width: 1.5;" width="92" x="6" y="441.5"/><ellipse cx="21" cy="457.5" fill="#ADD1B2" rx="11" ry="11" style="stroke: #A80036; stroke-width: 1.0;"/><path d="M23.9688,463.1406 Q23.3906,463.4375 22.75,463.5859 Q22.1094,463.7344 21.4063,463.7344 Q18.9063,463.7344 17.5859,462.0859 Q16.2656,460.4375 16.2656,457.3125 Q16.2656,454.1875 17.5859,452.5313 Q18.9063,450.875 21.4063,450.875 Q22.1094,450.875 22.7578,451.0313 Q23.4063,451.1875 23.9688,451.4844 L23.9688,454.2031 Q23.3438,453.625 22.75,453.3516 Q22.1563,453.0781 21.5313,453.0781 Q20.1875,453.0781 19.5,454.1484 Q18.8125,455.2188 18.8125,457.3125 Q18.8125,459.4063 19.5,460.4766 Q20.1875,461.5469 21.5313,461.5469 Q22.1563,461.5469 22.75,461.2734 Q23.3438,461 23.9688,460.4219 L23.9688,463.1406 Z "/><text fill="#000000" font-family="sans-serif" font-size="12" lengthAdjust="spacingAndGlyphs" textLength="60" x="35" y="461.6543">流通部人员</text><line style="stroke: #A80036; stroke-width: 1.5;" x1="7" x2="97" y1="473.5" y2="473.5"/><line style="stroke: #A80036; stroke-width: 1.5;" x1="7" x2="97" y1="481.5" y2="481.5"/><!--class 编目部人员--><rect fill="#FEFECE" filter="url(#fh4c73q656m3w)" height="48" id="编目部人员" style="stroke: #A80036; stroke-width: 1.5;" width="92" x="51" y="575"/><ellipse cx="66" cy="591" fill="#ADD1B2" rx="11" ry="11" style="stroke: #A80036; stroke-width: 1.0;"/><path d="M68.9688,596.6406 Q68.3906,596.9375 67.75,597.0859 Q67.1094,597.2344 66.4063,597.2344 Q63.9063,597.2344 62.5859,595.5859 Q61.2656,593.9375 61.2656,590.8125 Q61.2656,587.6875 62.5859,586.0313 Q63.9063,584.375 66.4063,584.375 Q67.1094,584.375 67.7578,584.5313 Q68.4063,584.6875 68.9688,584.9844 L68.9688,587.7031 Q68.3438,587.125 67.75,586.8516 Q67.1563,586.5781 66.5313,586.5781 Q65.1875,586.5781 64.5,587.6484 Q63.8125,588.7188 63.8125,590.8125 Q63.8125,592.9063 64.5,593.9766 Q65.1875,595.0469 66.5313,595.0469 Q67.1563,595.0469 67.75,594.7734 Q68.3438,594.5 68.9688,593.9219 L68.9688,596.6406 Z "/><text fill="#000000" font-family="sans-serif" font-size="12" lengthAdjust="spacingAndGlyphs" textLength="60" x="80" y="595.1543">编目部人员</text><line style="stroke: #A80036; stroke-width: 1.5;" x1="52" x2="142" y1="607" y2="607"/><line style="stroke: #A80036; stroke-width: 1.5;" x1="52" x2="142" y1="615" y2="615"/><!--class 技术部人员--><rect fill="#FEFECE" filter="url(#fh4c73q656m3w)" height="48" id="技术部人员" style="stroke: #A80036; stroke-width: 1.5;" width="92" x="178" y="575"/><ellipse cx="193" cy="591" fill="#ADD1B2" rx="11" ry="11" style="stroke: #A80036; stroke-width: 1.0;"/><path d="M195.9688,596.6406 Q195.3906,596.9375 194.75,597.0859 Q194.1094,597.2344 193.4063,597.2344 Q190.9063,597.2344 189.5859,595.5859 Q188.2656,593.9375 188.2656,590.8125 Q188.2656,587.6875 189.5859,586.0313 Q190.9063,584.375 193.4063,584.375 Q194.1094,584.375 194.7578,584.5313 Q195.4063,584.6875 195.9688,584.9844 L195.9688,587.7031 Q195.3438,587.125 194.75,586.8516 Q194.1563,586.5781 193.5313,586.5781 Q192.1875,586.5781 191.5,587.6484 Q190.8125,588.7188 190.8125,590.8125 Q190.8125,592.9063 191.5,593.9766 Q192.1875,595.0469 193.5313,595.0469 Q194.1563,595.0469 194.75,594.7734 Q195.3438,594.5 195.9688,593.9219 L195.9688,596.6406 Z "/><text fill="#000000" font-family="sans-serif" font-size="12" lengthAdjust="spacingAndGlyphs" textLength="60" x="207" y="595.1543">技术部人员</text><line style="stroke: #A80036; stroke-width: 1.5;" x1="179" x2="269" y1="607" y2="607"/><line style="stroke: #A80036; stroke-width: 1.5;" x1="179" x2="269" y1="615" y2="615"/><!--link 用户 to 读者--><path d="M209.258,465.5 C214.166,465.5 219.074,465.5 223.982,465.5 " fill="none" id="用户-读者" style="stroke: #A80036; stroke-width: 1.0;"/><polygon fill="none" points="209.082,472.5,189.082,465.5,209.082,458.5,209.082,472.5" style="stroke: #A80036; stroke-width: 1.0;"/><!--link 流通部人员 to 用户--><path d="M98.4102,465.5 C103.1344,465.5 107.859,465.5 112.583,465.5 " fill="none" id="流通部人员-用户" style="stroke: #A80036; stroke-width: 1.0;"/><polygon fill="none" points="112.639,458.5,132.639,465.5,112.639,472.5,112.639,458.5" style="stroke: #A80036; stroke-width: 1.0;"/><!--link 用户 to 编目部人员--><path d="M128.516,533.2448 C121.202,548.2717 113.923,563.2292 108.205,574.9769 " fill="none" id="用户-编目部人员" style="stroke: #A80036; stroke-width: 1.0;"/><polygon fill="none" points="122.304,530.0121,137.351,515.092,134.892,536.1387,122.304,530.0121" style="stroke: #A80036; stroke-width: 1.0;"/><!--link 用户 to 技术部人员--><path d="M192.977,533.2448 C200.176,548.2717 207.342,563.2292 212.97,574.9769 " fill="none" id="用户-技术部人员" style="stroke: #A80036; stroke-width: 1.0;"/><polygon fill="none" points="186.608,536.1535,184.28,515.092,199.234,530.1046,186.608,536.1535" style="stroke: #A80036; stroke-width: 1.0;"/><!--link 借阅记录 to 用户--><path d="M161,369.731 C161,385.206 161,401.319 161,415.777 " fill="none" id="借阅记录-用户" style="stroke: #A80036; stroke-width: 1.0;"/><polygon fill="#FFFFFF" points="161,356.354,157,362.354,161,368.354,165,362.354,161,356.354" style="stroke: #A80036; stroke-width: 1.0;"/><!--link 书籍 to 借阅记录--><path d="M155.313,184.132 C156.082,199.665 156.873,215.644 157.612,230.562 " fill="none" id="书籍-借阅记录" style="stroke: #A80036; stroke-width: 1.0;"/><polygon fill="#FFFFFF" points="158.273,243.92,161.9714,237.7295,157.6796,231.9347,153.9812,238.1251,158.273,243.92" style="stroke: #A80036; stroke-width: 1.0;"/><!--link 借阅记录 to 归还记录--><path d="M201.43,300 C211.186,300 220.943,300 230.7,300 " fill="none" id="借阅记录-归还记录" style="stroke: #A80036; stroke-width: 1.0;"/><polygon fill="#A80036" points="235.802,300,226.802,296,230.802,300,226.802,304,235.802,300" style="stroke: #A80036; stroke-width: 1.0;"/><!--link 信誉记录 to 借阅记录--><path d="M237.227,165.106 C223.533,189.159 208.249,216.006 194.983,239.308 " fill="none" id="信誉记录-借阅记录" style="stroke: #A80036; stroke-width: 1.0; stroke-dasharray: 7.0,7.0;"/><polygon fill="#A80036" points="192.358,243.919,200.288,238.0781,194.8325,239.5743,193.3364,234.1189,192.358,243.919" style="stroke: #A80036; stroke-width: 1.0;"/><!--link 书籍 to 信誉记录--><path d="M201.533,96 C211.328,96 221.124,96 230.92,96 " fill="none" id="书籍-信誉记录" style="stroke: #A80036; stroke-width: 1.0; stroke-dasharray: 7.0,7.0;"/><polygon fill="#A80036" points="196.41,96,205.41,100,201.41,96,205.41,92,196.41,96" style="stroke: #A80036; stroke-width: 1.0;"/><!--link 信誉记录 to 归还记录--><path d="M276,165.106 C276,195.817 276,231.081 276,257.708 " fill="none" id="信誉记录-归还记录" style="stroke: #A80036; stroke-width: 1.0; stroke-dasharray: 7.0,7.0;"/><polygon fill="#A80036" points="276,262.915,280,253.915,276,257.915,272,253.915,276,262.915" style="stroke: #A80036; stroke-width: 1.0;"/><!--
@startuml
class 用户 {
  ID
  用户名
  密码
  用户身份
}

class 书籍 {
  馆藏号
  ISBN号
  书名
  作者
  出版社
  出版日期
  是否可借阅
  +getInfo()
  #setInfo()
  #deleteInfo()
}

class 借阅记录 {
  借阅ID
  书籍馆藏号
  用户ID
  借阅日期
  应归还日期
}

class 归还记录 {
  借阅ID
  实际归还日期
}

class 信誉记录 {
  用户ID
  违规日期
  图书
  违规原因
  +getInfo()
  #setInfo()
  #deleteInfo()
}

用户 <|-right- 读者
用户 <|-left- 流通部人员
用户 <|-down- 编目部人员
用户 <|-down- 技术部人员

借阅记录 o- - 用户
借阅记录 o-up- 书籍
借阅记录 -right-> 归还记录

信誉记录 ..> 借阅记录
信誉记录 .left.> 书籍
信誉记录 ..> 归还记录
@enduml

PlantUML version 1.2019.01(Sat Feb 09 15:32:04 UTC 2019)
(GPL source distribution)
Java Runtime: OpenJDK Runtime Environment
JVM: OpenJDK 64-Bit Server VM
Java Version: 1.8.0_181-8u181-b13-2~deb9u1-b13
Operating System: Linux
OS Version: 3.10.0-957.5.1.el7.x86_64
Default Encoding: UTF-8
Language: en
Country: null
--></g></svg>