<?xml version="1.0" encoding="UTF-8" standalone="no"?><svg xmlns="http://www.w3.org/2000/svg" xmlns:xlink="http://www.w3.org/1999/xlink" contentScriptType="application/ecmascript" contentStyleType="text/css" height="675px" preserveAspectRatio="none" style="width:479px;height:675px;" version="1.1" viewBox="0 0 479 675" width="479px" zoomAndPan="magnify"><defs><filter height="300%" id="fo3tjiac1svat" width="300%" x="-1" y="-1"><feGaussianBlur result="blurOut" stdDeviation="2.0"/><feColorMatrix in="blurOut" result="blurOut2" type="matrix" values="0 0 0 0 0 0 0 0 0 0 0 0 0 0 0 0 0 0 .4 0"/><feOffset dx="4.0" dy="4.0" in="blurOut2" result="blurOut3"/><feBlend in="SourceGraphic" in2="blurOut3" mode="normal"/></filter></defs><g><ellipse cx="190" cy="18" fill="#000000" filter="url(#fo3tjiac1svat)" rx="10" ry="10" style="stroke: none; stroke-width: 1.0;"/><rect fill="#FEFECE" filter="url(#fo3tjiac1svat)" height="50" rx="12.5" ry="12.5" style="stroke: #A80036; stroke-width: 1.5;" width="50" x="165" y="89"/><line style="stroke: #A80036; stroke-width: 1.5;" x1="165" x2="215" y1="115.2969" y2="115.2969"/><text fill="#000000" font-family="sans-serif" font-size="14" lengthAdjust="spacingAndGlyphs" textLength="28" x="176" y="106.9951">登录</text><rect fill="#FEFECE" filter="url(#fo3tjiac1svat)" height="50" rx="12.5" ry="12.5" style="stroke: #A80036; stroke-width: 1.5;" width="50" x="165" y="216"/><line style="stroke: #A80036; stroke-width: 1.5;" x1="165" x2="215" y1="242.2969" y2="242.2969"/><text fill="#000000" font-family="sans-serif" font-size="14" lengthAdjust="spacingAndGlyphs" textLength="28" x="176" y="233.9951">空闲</text><rect fill="#FEFECE" filter="url(#fo3tjiac1svat)" height="50" rx="12.5" ry="12.5" style="stroke: #A80036; stroke-width: 1.5;" width="76" x="343" y="216"/><line style="stroke: #A80036; stroke-width: 1.5;" x1="343" x2="419" y1="242.2969" y2="242.2969"/><text fill="#000000" font-family="sans-serif" font-size="14" lengthAdjust="spacingAndGlyphs" textLength="56" x="353" y="233.9951">寄件完成</text><rect fill="#FEFECE" filter="url(#fo3tjiac1svat)" height="321.2969" rx="12.5" ry="12.5" style="stroke: #A80036; stroke-width: 1.5;" width="186" x="6" y="343"/><rect fill="#FFFFFF" height="289" rx="12.5" ry="12.5" style="stroke: #FFFFFF; stroke-width: 1.0;" width="180" x="9" y="372.2969"/><line style="stroke: #A80036; stroke-width: 1.5;" x1="6" x2="192" y1="369.2969" y2="369.2969"/><text fill="#000000" font-family="sans-serif" font-size="14" lengthAdjust="spacingAndGlyphs" textLength="56" x="71" y="360.9951">寄件开始</text><ellipse cx="69" cy="392.2969" fill="#000000" filter="url(#fo3tjiac1svat)" rx="10" ry="10" style="stroke: none; stroke-width: 1.0;"/><rect fill="#FEFECE" filter="url(#fo3tjiac1svat)" height="50" rx="12.5" ry="12.5" style="stroke: #A80036; stroke-width: 1.5;" width="104" x="17" y="439.2969"/><line style="stroke: #A80036; stroke-width: 1.5;" x1="17" x2="121" y1="465.5938" y2="465.5938"/><text fill="#000000" font-family="sans-serif" font-size="14" lengthAdjust="spacingAndGlyphs" textLength="84" x="27" y="457.292">确认寄件信息</text><rect fill="#FEFECE" filter="url(#fo3tjiac1svat)" height="50" rx="12.5" ry="12.5" style="stroke: #A80036; stroke-width: 1.5;" width="104" x="17" y="542.2969"/><line style="stroke: #A80036; stroke-width: 1.5;" x1="17" x2="121" y1="568.5938" y2="568.5938"/><text fill="#000000" font-family="sans-serif" font-size="14" lengthAdjust="spacingAndGlyphs" textLength="84" x="27" y="560.292">产生寄件状态</text><ellipse cx="69" cy="639.2969" fill="none" filter="url(#fo3tjiac1svat)" rx="10" ry="10" style="stroke: #000000; stroke-width: 1.0;"/><ellipse cx="69.5" cy="639.7969" fill="#000000" rx="6" ry="6" style="stroke: none; stroke-width: 1.0;"/><!--link *start*寄件开始 to 确认寄件信息--><path d="M69,402.4479 C69,410.4829 69,422.6229 69,433.9509 " fill="none" id="*start*寄件开始-确认寄件信息" style="stroke: #A80036; stroke-width: 1.0;"/><polygon fill="#A80036" points="69,439.0809,73,430.0809,69,434.0809,65,430.0809,69,439.0809" style="stroke: #A80036; stroke-width: 1.0;"/><!--link 确认寄件信息 to 产生寄件状态--><path d="M69,489.4889 C69,503.6269 69,521.5809 69,536.5749 " fill="none" id="确认寄件信息-产生寄件状态" style="stroke: #A80036; stroke-width: 1.0;"/><polygon fill="#A80036" points="69,541.9519,73,532.9519,69,536.9519,65,532.9519,69,541.9519" style="stroke: #A80036; stroke-width: 1.0;"/><text fill="#000000" font-family="sans-serif" font-size="13" lengthAdjust="spacingAndGlyphs" textLength="88" x="70" y="520.3638">[寄件信息通过]</text><!--link 产生寄件状态 to *end*寄件开始--><path d="M69,592.3869 C69,602.8671 69,614.7974 69,623.8691 " fill="none" id="产生寄件状态-*end*寄件开始" style="stroke: #A80036; stroke-width: 1.0;"/><polygon fill="#A80036" points="69,629.1097,73,620.1097,69,624.1097,65,620.1097,69,629.1097" style="stroke: #A80036; stroke-width: 1.0;"/><rect fill="#FEFECE" filter="url(#fo3tjiac1svat)" height="216.2969" rx="12.5" ry="12.5" style="stroke: #A80036; stroke-width: 1.5;" width="176" x="291" y="395.5"/><rect fill="#FFFFFF" height="184" rx="12.5" ry="12.5" style="stroke: #FFFFFF; stroke-width: 1.0;" width="170" x="294" y="424.7969"/><line style="stroke: #A80036; stroke-width: 1.5;" x1="291" x2="467" y1="421.7969" y2="421.7969"/><text fill="#000000" font-family="sans-serif" font-size="14" lengthAdjust="spacingAndGlyphs" textLength="84" x="337" y="413.4951">寄件状态显示</text><ellipse cx="368" cy="444.7969" fill="#000000" filter="url(#fo3tjiac1svat)" rx="10" ry="10" style="stroke: none; stroke-width: 1.0;"/><rect fill="#FEFECE" filter="url(#fo3tjiac1svat)" height="50" rx="12.5" ry="12.5" style="stroke: #A80036; stroke-width: 1.5;" width="132" x="302" y="490.7969"/><line style="stroke: #A80036; stroke-width: 1.5;" x1="302" x2="434" y1="517.0938" y2="517.0938"/><text fill="#000000" font-family="sans-serif" font-size="14" lengthAdjust="spacingAndGlyphs" textLength="112" x="312" y="508.792">显示所有寄件状态</text><ellipse cx="368" cy="586.7969" fill="none" filter="url(#fo3tjiac1svat)" rx="10" ry="10" style="stroke: #000000; stroke-width: 1.0;"/><ellipse cx="368.5" cy="587.2969" fill="#000000" rx="6" ry="6" style="stroke: none; stroke-width: 1.0;"/><!--link *start*寄件状态显示 to 显示所有寄件状态--><path d="M368,454.8179 C368,462.6739 368,474.5129 368,485.6019 " fill="none" id="*start*寄件状态显示-显示所有寄件状态" style="stroke: #A80036; stroke-width: 1.0;"/><polygon fill="#A80036" points="368,490.6279,372,481.6279,368,485.6279,364,481.6279,368,490.6279" style="stroke: #A80036; stroke-width: 1.0;"/><!--link 显示所有寄件状态 to *end*寄件状态显示--><path d="M368,540.9298 C368,551.0996 368,562.5944 368,571.403 " fill="none" id="显示所有寄件状态-*end*寄件状态显示" style="stroke: #A80036; stroke-width: 1.0;"/><polygon fill="#A80036" points="368,576.5047,372,567.5047,368,571.5047,364,567.5047,368,576.5047" style="stroke: #A80036; stroke-width: 1.0;"/><!--link *start to 登录--><path d="M190,28.013 C190,40.698 190,64.409 190,83.57 " fill="none" id="*start-登录" style="stroke: #A80036; stroke-width: 1.0;"/><polygon fill="#A80036" points="190,88.84,194,79.84,190,83.84,186,79.84,190,88.84" style="stroke: #A80036; stroke-width: 1.0;"/><!--link 登录 to 登录--><path d="M215.278,104.864 C232.773,102.095 250,105.141 250,114 C250,121.96 236.095,125.226 220.582,123.8 " fill="none" id="登录-登录" style="stroke: #A80036; stroke-width: 1.0;"/><polygon fill="#A80036" points="215.278,123.136,223.7124,128.2214,220.2394,123.7562,224.7046,120.2832,215.278,123.136" style="stroke: #A80036; stroke-width: 1.0;"/><text fill="#000000" font-family="sans-serif" font-size="13" lengthAdjust="spacingAndGlyphs" textLength="62" x="256" y="118.5669">[登录失败]</text><!--link 登录 to 空闲--><path d="M164.866,130.345 C146.389,143.764 125.951,164.433 135,186 C140.439,198.963 150.677,210.381 160.858,219.338 " fill="none" id="登录-空闲" style="stroke: #A80036; stroke-width: 1.0;"/><polygon fill="#A80036" points="164.898,222.773,160.6312,213.8964,161.0883,219.5347,155.45,219.9918,164.898,222.773" style="stroke: #A80036; stroke-width: 1.0;"/><text fill="#000000" font-family="sans-serif" font-size="13" lengthAdjust="spacingAndGlyphs" textLength="62" x="136" y="182.0669">[登录成功]</text><!--link 空闲 to 登录--><path d="M198.092,215.798 C201.741,202.124 204.861,184.679 203,169 C202.031,160.832 200.264,152.112 198.339,144.115 " fill="none" id="空闲-登录" style="stroke: #A80036; stroke-width: 1.0;"/><polygon fill="#A80036" points="197.126,139.241,195.4168,148.9404,198.333,144.0931,203.1802,147.0093,197.126,139.241" style="stroke: #A80036; stroke-width: 1.0;"/><text fill="#000000" font-family="sans-serif" font-size="13" lengthAdjust="spacingAndGlyphs" textLength="36" x="205" y="182.0669">[注销]</text><!--link 空闲 to 寄件开始--><path d="M181.602,266.04 C175.405,283.781 166.366,309.656 156.518,337.848 " fill="none" id="空闲-寄件开始" style="stroke: #A80036; stroke-width: 1.0;"/><polygon fill="#A80036" points="154.801,342.763,161.5469,335.5871,156.451,338.0431,153.995,332.9472,154.801,342.763" style="stroke: #A80036; stroke-width: 1.0;"/><text fill="#000000" font-family="sans-serif" font-size="13" lengthAdjust="spacingAndGlyphs" textLength="62" x="172" y="309.0669">[新的寄件]</text><!--link 寄件开始 to 寄件状态显示--><path d="M192.236,503.5 C222.313,503.5 255.644,503.5 285.724,503.5 " fill="none" id="寄件开始-寄件状态显示" style="stroke: #A80036; stroke-width: 1.0;"/><polygon fill="#A80036" points="290.911,503.5,281.911,499.5,285.911,503.5,281.911,507.5,290.911,503.5" style="stroke: #A80036; stroke-width: 1.0;"/><text fill="#000000" font-family="sans-serif" font-size="13" lengthAdjust="spacingAndGlyphs" textLength="62" x="210.5" y="496.5669">[已有寄件]</text><!--link 寄件状态显示 to 空闲--><path d="M314.133,395.47 C292.751,362.616 268.011,326.979 243,296 C235.696,286.953 227.106,277.707 218.994,269.48 " fill="none" id="寄件状态显示-空闲" style="stroke: #A80036; stroke-width: 1.0;"/><polygon fill="#A80036" points="215.057,265.529,218.574,274.7285,218.5854,269.0717,224.2422,269.0831,215.057,265.529" style="stroke: #A80036; stroke-width: 1.0;"/><!--link 空闲 to 寄件完成--><path d="M215.363,241 C246.507,241 299.829,241 337.551,241 " fill="none" id="空闲-寄件完成" style="stroke: #A80036; stroke-width: 1.0;"/><polygon fill="#A80036" points="342.999,241,333.999,237,337.999,241,333.999,245,342.999,241" style="stroke: #A80036; stroke-width: 1.0;"/><text fill="#000000" font-family="sans-serif" font-size="13" lengthAdjust="spacingAndGlyphs" textLength="91" x="233.5" y="234.0669">已寄送至目的地</text><!--
@startuml
[*] - -> 登录
登录 - -> 登录: [登录失败]

登录 -right-> 空闲: [登录成功]
空闲 - -> 登录: [注销]

空闲 - -> 寄件开始: [新的寄件]
state 寄件开始{
  [*] - -> 确认寄件信息
  确认寄件信息 - -> 产生寄件状态: [寄件信息通过]
  产生寄件状态 - -> [*]
}

寄件开始 -right-> 寄件状态显示: [已有寄件]
state 寄件状态显示{
  [*] - -> 显示所有寄件状态
  显示所有寄件状态 - -> [*]
}
寄件状态显示 - -> 空闲
空闲 -right-> 寄件完成: 已寄送至目的地
@enduml

PlantUML version 1.2019.01(Sat Feb 09 15:32:04 UTC 2019)
(GPL source distribution)
Java Runtime: OpenJDK Runtime Environment
JVM: OpenJDK 64-Bit Server VM
Java Version: 1.8.0_181-8u181-b13-2~deb9u1-b13
Operating System: Linux
OS Version: 3.10.0-957.5.1.el7.x86_64
Default Encoding: UTF-8
Language: en
Country: null
--></g></svg>