<?xml version="1.0" encoding="UTF-8" standalone="no"?><svg xmlns="http://www.w3.org/2000/svg" xmlns:xlink="http://www.w3.org/1999/xlink" contentScriptType="application/ecmascript" contentStyleType="text/css" height="454px" preserveAspectRatio="none" style="width:333px;height:454px;" version="1.1" viewBox="0 0 333 454" width="333px" zoomAndPan="magnify"><defs><filter height="300%" id="f1a5vu41jzgwu5" width="300%" x="-1" y="-1"><feGaussianBlur result="blurOut" stdDeviation="2.0"/><feColorMatrix in="blurOut" result="blurOut2" type="matrix" values="0 0 0 0 0 0 0 0 0 0 0 0 0 0 0 0 0 0 .4 0"/><feOffset dx="4.0" dy="4.0" in="blurOut2" result="blurOut3"/><feBlend in="SourceGraphic" in2="blurOut3" mode="normal"/></filter></defs><g><rect fill="#FFFFFF" filter="url(#f1a5vu41jzgwu5)" height="356.5938" style="stroke: #A80036; stroke-width: 1.0;" width="10" x="58" y="48.2969"/><rect fill="#FFFFFF" filter="url(#f1a5vu41jzgwu5)" height="334.4609" style="stroke: #A80036; stroke-width: 1.0;" width="10" x="274" y="69.4297"/><rect fill="#FFFFFF" filter="url(#f1a5vu41jzgwu5)" height="225.0625" style="stroke: #000000; stroke-width: 2.0;" width="309" x="13" y="171.8281"/><rect fill="#FFFFFF" filter="url(#f1a5vu41jzgwu5)" height="106.5313" style="stroke: #000000; stroke-width: 2.0;" width="289" x="23" y="283.3594"/><rect fill="#FFFFFF" height="31.1328" style="stroke: none; stroke-width: 1.0;" width="289" x="23" y="358.7578"/><line style="stroke: #A80036; stroke-width: 1.0; stroke-dasharray: 5.0,5.0;" x1="63" x2="63" y1="38.2969" y2="413.8906"/><line style="stroke: #A80036; stroke-width: 1.0; stroke-dasharray: 5.0,5.0;" x1="279" x2="279" y1="38.2969" y2="413.8906"/><rect fill="#FEFECE" filter="url(#f1a5vu41jzgwu5)" height="30.2969" style="stroke: #A80036; stroke-width: 1.5;" width="56" x="33" y="3"/><text fill="#000000" font-family="sans-serif" font-size="14" lengthAdjust="spacingAndGlyphs" textLength="42" x="40" y="22.9951">编目部</text><rect fill="#FEFECE" filter="url(#f1a5vu41jzgwu5)" height="30.2969" style="stroke: #A80036; stroke-width: 1.5;" width="56" x="33" y="412.8906"/><text fill="#000000" font-family="sans-serif" font-size="14" lengthAdjust="spacingAndGlyphs" textLength="42" x="40" y="432.8857">编目部</text><rect fill="#FEFECE" filter="url(#f1a5vu41jzgwu5)" height="30.2969" style="stroke: #A80036; stroke-width: 1.5;" width="42" x="256" y="3"/><text fill="#000000" font-family="sans-serif" font-size="14" lengthAdjust="spacingAndGlyphs" textLength="28" x="263" y="22.9951">系统</text><rect fill="#FEFECE" filter="url(#f1a5vu41jzgwu5)" height="30.2969" style="stroke: #A80036; stroke-width: 1.5;" width="42" x="256" y="412.8906"/><text fill="#000000" font-family="sans-serif" font-size="14" lengthAdjust="spacingAndGlyphs" textLength="28" x="263" y="432.8857">系统</text><rect fill="#FFFFFF" filter="url(#f1a5vu41jzgwu5)" height="356.5938" style="stroke: #A80036; stroke-width: 1.0;" width="10" x="58" y="48.2969"/><rect fill="#FFFFFF" filter="url(#f1a5vu41jzgwu5)" height="334.4609" style="stroke: #A80036; stroke-width: 1.0;" width="10" x="274" y="69.4297"/><line style="stroke: #A80036; stroke-width: 1.0;" x1="272" x2="262" y1="69.4297" y2="65.4297"/><line style="stroke: #A80036; stroke-width: 1.0;" x1="272" x2="262" y1="69.4297" y2="73.4297"/><line style="stroke: #A80036; stroke-width: 1.0;" x1="68" x2="273" y1="69.4297" y2="69.4297"/><text fill="#000000" font-family="sans-serif" font-size="13" font-weight="bold" lengthAdjust="spacingAndGlyphs" textLength="9" x="75" y="64.3638">1</text><text fill="#000000" font-family="sans-serif" font-size="13" lengthAdjust="spacingAndGlyphs" textLength="52" x="88" y="64.3638">登陆系统</text><line style="stroke: #A80036; stroke-width: 1.0;" x1="68" x2="78" y1="98.5625" y2="94.5625"/><line style="stroke: #A80036; stroke-width: 1.0;" x1="68" x2="78" y1="98.5625" y2="102.5625"/><line style="stroke: #A80036; stroke-width: 1.0; stroke-dasharray: 2.0,2.0;" x1="68" x2="273" y1="98.5625" y2="98.5625"/><text fill="#000000" font-family="sans-serif" font-size="13" font-weight="bold" lengthAdjust="spacingAndGlyphs" textLength="9" x="85" y="93.4966">2</text><text fill="#000000" font-family="sans-serif" font-size="13" lengthAdjust="spacingAndGlyphs" textLength="78" x="98" y="93.4966">返回登录状态</text><line style="stroke: #A80036; stroke-width: 1.0;" x1="272" x2="262" y1="127.6953" y2="123.6953"/><line style="stroke: #A80036; stroke-width: 1.0;" x1="272" x2="262" y1="127.6953" y2="131.6953"/><line style="stroke: #A80036; stroke-width: 1.0;" x1="68" x2="273" y1="127.6953" y2="127.6953"/><text fill="#000000" font-family="sans-serif" font-size="13" font-weight="bold" lengthAdjust="spacingAndGlyphs" textLength="9" x="75" y="122.6294">3</text><text fill="#000000" font-family="sans-serif" font-size="13" lengthAdjust="spacingAndGlyphs" textLength="78" x="88" y="122.6294">点击录入书籍</text><line style="stroke: #A80036; stroke-width: 1.0;" x1="68" x2="78" y1="156.8281" y2="152.8281"/><line style="stroke: #A80036; stroke-width: 1.0;" x1="68" x2="78" y1="156.8281" y2="160.8281"/><line style="stroke: #A80036; stroke-width: 1.0; stroke-dasharray: 2.0,2.0;" x1="68" x2="273" y1="156.8281" y2="156.8281"/><text fill="#000000" font-family="sans-serif" font-size="13" font-weight="bold" lengthAdjust="spacingAndGlyphs" textLength="9" x="85" y="151.7622">4</text><text fill="#000000" font-family="sans-serif" font-size="13" lengthAdjust="spacingAndGlyphs" textLength="169" x="98" y="151.7622">显示等待扫描待录入书籍界面</text><path d="M13,171.8281 L90,171.8281 L90,178.8281 L80,188.8281 L13,188.8281 L13,171.8281 " fill="#EEEEEE" style="stroke: #000000; stroke-width: 1.0;"/><rect fill="none" height="225.0625" style="stroke: #000000; stroke-width: 2.0;" width="309" x="13" y="171.8281"/><text fill="#000000" font-family="sans-serif" font-size="13" font-weight="bold" lengthAdjust="spacingAndGlyphs" textLength="32" x="28" y="184.895">loop</text><line style="stroke: #A80036; stroke-width: 1.0;" x1="272" x2="262" y1="210.0938" y2="206.0938"/><line style="stroke: #A80036; stroke-width: 1.0;" x1="272" x2="262" y1="210.0938" y2="214.0938"/><line style="stroke: #A80036; stroke-width: 1.0;" x1="68" x2="273" y1="210.0938" y2="210.0938"/><text fill="#000000" font-family="sans-serif" font-size="13" font-weight="bold" lengthAdjust="spacingAndGlyphs" textLength="9" x="75" y="205.0278">5</text><text fill="#000000" font-family="sans-serif" font-size="13" lengthAdjust="spacingAndGlyphs" textLength="132" x="88" y="205.0278">扫描书籍条形码(ISBN)</text><line style="stroke: #A80036; stroke-width: 1.0;" x1="68" x2="78" y1="239.2266" y2="235.2266"/><line style="stroke: #A80036; stroke-width: 1.0;" x1="68" x2="78" y1="239.2266" y2="243.2266"/><line style="stroke: #A80036; stroke-width: 1.0; stroke-dasharray: 2.0,2.0;" x1="68" x2="273" y1="239.2266" y2="239.2266"/><text fill="#000000" font-family="sans-serif" font-size="13" font-weight="bold" lengthAdjust="spacingAndGlyphs" textLength="9" x="85" y="234.1606">6</text><text fill="#000000" font-family="sans-serif" font-size="13" lengthAdjust="spacingAndGlyphs" textLength="78" x="98" y="234.1606">显示书籍信息</text><line style="stroke: #A80036; stroke-width: 1.0;" x1="272" x2="262" y1="268.3594" y2="264.3594"/><line style="stroke: #A80036; stroke-width: 1.0;" x1="272" x2="262" y1="268.3594" y2="272.3594"/><line style="stroke: #A80036; stroke-width: 1.0;" x1="68" x2="273" y1="268.3594" y2="268.3594"/><text fill="#000000" font-family="sans-serif" font-size="13" font-weight="bold" lengthAdjust="spacingAndGlyphs" textLength="9" x="75" y="263.2935">7</text><text fill="#000000" font-family="sans-serif" font-size="13" lengthAdjust="spacingAndGlyphs" textLength="104" x="88" y="263.2935">提交书籍完整信息</text><path d="M23,283.3594 L87,283.3594 L87,290.3594 L77,300.3594 L23,300.3594 L23,283.3594 " fill="#EEEEEE" style="stroke: #000000; stroke-width: 1.0;"/><rect fill="none" height="106.5313" style="stroke: #000000; stroke-width: 2.0;" width="289" x="23" y="283.3594"/><text fill="#000000" font-family="sans-serif" font-size="13" font-weight="bold" lengthAdjust="spacingAndGlyphs" textLength="19" x="38" y="296.4263">alt</text><line style="stroke: #A80036; stroke-width: 1.0;" x1="68" x2="78" y1="321.625" y2="317.625"/><line style="stroke: #A80036; stroke-width: 1.0;" x1="68" x2="78" y1="321.625" y2="325.625"/><line style="stroke: #A80036; stroke-width: 1.0; stroke-dasharray: 2.0,2.0;" x1="68" x2="273" y1="321.625" y2="321.625"/><text fill="#000000" font-family="sans-serif" font-size="13" font-weight="bold" lengthAdjust="spacingAndGlyphs" textLength="9" x="85" y="316.5591">8</text><text fill="#000000" font-family="sans-serif" font-size="13" lengthAdjust="spacingAndGlyphs" textLength="78" x="98" y="316.5591">显示录入成功</text><polygon fill="#A80036" points="79,346.7578,69,350.7578,79,354.7578,75,350.7578" style="stroke: #A80036; stroke-width: 1.0;"/><line style="stroke: #A80036; stroke-width: 1.0;" x1="73" x2="273" y1="350.7578" y2="350.7578"/><text fill="#000000" font-family="sans-serif" font-size="13" font-weight="bold" lengthAdjust="spacingAndGlyphs" textLength="9" x="85" y="345.6919">9</text><text fill="#000000" font-family="sans-serif" font-size="13" lengthAdjust="spacingAndGlyphs" textLength="117" x="98" y="345.6919">打印书籍馆藏二维码</text><line style="stroke: #000000; stroke-width: 1.0; stroke-dasharray: 2.0,2.0;" x1="23" x2="312" y1="359.7578" y2="359.7578"/><line style="stroke: #A80036; stroke-width: 1.0;" x1="68" x2="78" y1="381.8906" y2="377.8906"/><line style="stroke: #A80036; stroke-width: 1.0;" x1="68" x2="78" y1="381.8906" y2="385.8906"/><line style="stroke: #A80036; stroke-width: 1.0; stroke-dasharray: 2.0,2.0;" x1="68" x2="273" y1="381.8906" y2="381.8906"/><text fill="#000000" font-family="sans-serif" font-size="13" font-weight="bold" lengthAdjust="spacingAndGlyphs" textLength="18" x="85" y="376.8247">10</text><text fill="#000000" font-family="sans-serif" font-size="13" lengthAdjust="spacingAndGlyphs" textLength="78" x="107" y="376.8247">显示录入失败</text><!--
@startuml
autonumber

activate 编目部
编目部 ->> 系统: 登陆系统
activate 系统
系统 - ->> 编目部: 返回登录状态
编目部 ->> 系统: 点击录入书籍
系统 - ->> 编目部: 显示等待扫描待录入书籍界面
loop
编目部 ->> 系统: 扫描书籍条形码(ISBN)
系统 - ->> 编目部: 显示书籍信息
编目部 ->> 系统: 提交书籍完整信息
alt
系统 - ->> 编目部: 显示录入成功
系统 -> 编目部: 打印书籍馆藏二维码
else
系统 - ->> 编目部: 显示录入失败
end
end
deactivate 系统
@enduml

PlantUML version 1.2019.01(Sat Feb 09 15:32:04 UTC 2019)
(GPL source distribution)
Java Runtime: OpenJDK Runtime Environment
JVM: OpenJDK 64-Bit Server VM
Java Version: 1.8.0_181-8u181-b13-2~deb9u1-b13
Operating System: Linux
OS Version: 3.10.0-957.5.1.el7.x86_64
Default Encoding: UTF-8
Language: en
Country: null
--></g></svg>