<?xml version="1.0" encoding="UTF-8" standalone="no"?><svg xmlns="http://www.w3.org/2000/svg" xmlns:xlink="http://www.w3.org/1999/xlink" contentScriptType="application/ecmascript" contentStyleType="text/css" height="1332px" preserveAspectRatio="none" style="width:1270px;height:1332px;" version="1.1" viewBox="0 0 1270 1332" width="1270px" zoomAndPan="magnify"><defs><filter height="300%" id="f1t3ojddq2pc0f" width="300%" x="-1" y="-1"><feGaussianBlur result="blurOut" stdDeviation="2.0"/><feColorMatrix in="blurOut" result="blurOut2" type="matrix" values="0 0 0 0 0 0 0 0 0 0 0 0 0 0 0 0 0 0 .4 0"/><feOffset dx="4.0" dy="4.0" in="blurOut2" result="blurOut3"/><feBlend in="SourceGraphic" in2="blurOut3" mode="normal"/></filter></defs><g><rect fill="#FFFFFF" filter="url(#f1t3ojddq2pc0f)" height="1234.9141" style="stroke: #A80036; stroke-width: 1.0;" width="10" x="58" y="48.2969"/><rect fill="#FFFFFF" filter="url(#f1t3ojddq2pc0f)" height="1213.7813" style="stroke: #A80036; stroke-width: 1.0;" width="10" x="283" y="69.4297"/><rect fill="#FFFFFF" filter="url(#f1t3ojddq2pc0f)" height="29.1328" style="stroke: #A80036; stroke-width: 1.0;" width="10" x="416" y="98.5625"/><rect fill="#FFFFFF" filter="url(#f1t3ojddq2pc0f)" height="29.1328" style="stroke: #A80036; stroke-width: 1.0;" width="10" x="551" y="215.0938"/><rect fill="#FFFFFF" filter="url(#f1t3ojddq2pc0f)" height="29.1328" style="stroke: #A80036; stroke-width: 1.0;" width="10" x="551" y="443.1563"/><rect fill="#FFFFFF" filter="url(#f1t3ojddq2pc0f)" height="30" style="stroke: #A80036; stroke-width: 1.0;" width="10" x="551" y="642.9531"/><rect fill="#FFFFFF" filter="url(#f1t3ojddq2pc0f)" height="30" style="stroke: #A80036; stroke-width: 1.0;" width="10" x="551" y="1025.4141"/><rect fill="#FFFFFF" filter="url(#f1t3ojddq2pc0f)" height="58.2656" style="stroke: #A80036; stroke-width: 1.0;" width="10" x="656" y="355.7578"/><rect fill="#FFFFFF" filter="url(#f1t3ojddq2pc0f)" height="29.1328" style="stroke: #A80036; stroke-width: 1.0;" width="10" x="656" y="1143.6797"/><rect fill="#FFFFFF" filter="url(#f1t3ojddq2pc0f)" height="29.1328" style="stroke: #A80036; stroke-width: 1.0;" width="10" x="772" y="384.8906"/><rect fill="#FFFFFF" filter="url(#f1t3ojddq2pc0f)" height="30" style="stroke: #A80036; stroke-width: 1.0;" width="10" x="849" y="583.8203"/><rect fill="#FFFFFF" filter="url(#f1t3ojddq2pc0f)" height="30" style="stroke: #A80036; stroke-width: 1.0;" width="10" x="849" y="847.75"/><rect fill="#FFFFFF" filter="url(#f1t3ojddq2pc0f)" height="30" style="stroke: #A80036; stroke-width: 1.0;" width="10" x="849" y="1084.5469"/><rect fill="#FFFFFF" filter="url(#f1t3ojddq2pc0f)" height="117.3984" style="stroke: #A80036; stroke-width: 1.0;" width="10" x="991" y="760.3516"/><rect fill="#FFFFFF" filter="url(#f1t3ojddq2pc0f)" height="29.1328" style="stroke: #A80036; stroke-width: 1.0;" width="10" x="991" y="1201.9453"/><rect fill="#FFFFFF" filter="url(#f1t3ojddq2pc0f)" height="29.1328" style="stroke: #A80036; stroke-width: 1.0;" width="10" x="1211" y="789.4844"/><rect fill="#FFFFFF" filter="url(#f1t3ojddq2pc0f)" height="29.1328" style="stroke: #A80036; stroke-width: 1.0;" width="10" x="1211" y="1231.0781"/><rect fill="#FFFFFF" filter="url(#f1t3ojddq2pc0f)" height="957.7188" style="stroke: #000000; stroke-width: 2.0;" width="1246" x="13" y="317.4922"/><rect fill="#FFFFFF" filter="url(#f1t3ojddq2pc0f)" height="751.7891" style="stroke: #000000; stroke-width: 2.0;" width="1226" x="23" y="516.4219"/><rect fill="#FFFFFF" height="382.4609" style="stroke: none; stroke-width: 1.0;" width="1226" x="23" y="885.75"/><line style="stroke: #A80036; stroke-width: 1.0; stroke-dasharray: 5.0,5.0;" x1="63" x2="63" y1="38.2969" y2="1292.2109"/><line style="stroke: #A80036; stroke-width: 1.0; stroke-dasharray: 5.0,5.0;" x1="288" x2="288" y1="38.2969" y2="1292.2109"/><line style="stroke: #A80036; stroke-width: 1.0; stroke-dasharray: 5.0,5.0;" x1="421" x2="421" y1="38.2969" y2="1292.2109"/><line style="stroke: #A80036; stroke-width: 1.0; stroke-dasharray: 5.0,5.0;" x1="556" x2="556" y1="38.2969" y2="1292.2109"/><line style="stroke: #A80036; stroke-width: 1.0; stroke-dasharray: 5.0,5.0;" x1="661" x2="661" y1="38.2969" y2="1292.2109"/><line style="stroke: #A80036; stroke-width: 1.0; stroke-dasharray: 5.0,5.0;" x1="777" x2="777" y1="38.2969" y2="1292.2109"/><line style="stroke: #A80036; stroke-width: 1.0; stroke-dasharray: 5.0,5.0;" x1="854" x2="854" y1="38.2969" y2="1292.2109"/><line style="stroke: #A80036; stroke-width: 1.0; stroke-dasharray: 5.0,5.0;" x1="996" x2="996" y1="38.2969" y2="1292.2109"/><line style="stroke: #A80036; stroke-width: 1.0; stroke-dasharray: 5.0,5.0;" x1="1216" x2="1216" y1="38.2969" y2="1292.2109"/><rect fill="#FEFECE" filter="url(#f1t3ojddq2pc0f)" height="30.2969" style="stroke: #A80036; stroke-width: 1.5;" width="56" x="33" y="3"/><text fill="#000000" font-family="sans-serif" font-size="14" lengthAdjust="spacingAndGlyphs" textLength="42" x="40" y="22.9951">快递员</text><rect fill="#FEFECE" filter="url(#f1t3ojddq2pc0f)" height="30.2969" style="stroke: #A80036; stroke-width: 1.5;" width="56" x="33" y="1291.2109"/><text fill="#000000" font-family="sans-serif" font-size="14" lengthAdjust="spacingAndGlyphs" textLength="42" x="40" y="1311.2061">快递员</text><rect fill="#FEFECE" filter="url(#f1t3ojddq2pc0f)" height="30.2969" style="stroke: #A80036; stroke-width: 1.5;" width="70" x="251" y="3"/><text fill="#000000" font-family="sans-serif" font-size="14" lengthAdjust="spacingAndGlyphs" textLength="56" x="258" y="22.9951">取件界面</text><rect fill="#FEFECE" filter="url(#f1t3ojddq2pc0f)" height="30.2969" style="stroke: #A80036; stroke-width: 1.5;" width="70" x="251" y="1291.2109"/><text fill="#000000" font-family="sans-serif" font-size="14" lengthAdjust="spacingAndGlyphs" textLength="56" x="258" y="1311.2061">取件界面</text><rect fill="#FEFECE" filter="url(#f1t3ojddq2pc0f)" height="30.2969" style="stroke: #A80036; stroke-width: 1.5;" width="70" x="384" y="3"/><text fill="#000000" font-family="sans-serif" font-size="14" lengthAdjust="spacingAndGlyphs" textLength="56" x="391" y="22.9951">网点表单</text><rect fill="#FEFECE" filter="url(#f1t3ojddq2pc0f)" height="30.2969" style="stroke: #A80036; stroke-width: 1.5;" width="70" x="384" y="1291.2109"/><text fill="#000000" font-family="sans-serif" font-size="14" lengthAdjust="spacingAndGlyphs" textLength="56" x="391" y="1311.2061">网点表单</text><rect fill="#FEFECE" filter="url(#f1t3ojddq2pc0f)" height="30.2969" style="stroke: #A80036; stroke-width: 1.5;" width="84" x="512" y="3"/><text fill="#000000" font-family="sans-serif" font-size="14" lengthAdjust="spacingAndGlyphs" textLength="70" x="519" y="22.9951">待取件列表</text><rect fill="#FEFECE" filter="url(#f1t3ojddq2pc0f)" height="30.2969" style="stroke: #A80036; stroke-width: 1.5;" width="84" x="512" y="1291.2109"/><text fill="#000000" font-family="sans-serif" font-size="14" lengthAdjust="spacingAndGlyphs" textLength="70" x="519" y="1311.2061">待取件列表</text><rect fill="#FEFECE" filter="url(#f1t3ojddq2pc0f)" height="30.2969" style="stroke: #A80036; stroke-width: 1.5;" width="98" x="610" y="3"/><text fill="#000000" font-family="sans-serif" font-size="14" lengthAdjust="spacingAndGlyphs" textLength="84" x="617" y="22.9951">快递柜服务器</text><rect fill="#FEFECE" filter="url(#f1t3ojddq2pc0f)" height="30.2969" style="stroke: #A80036; stroke-width: 1.5;" width="98" x="610" y="1291.2109"/><text fill="#000000" font-family="sans-serif" font-size="14" lengthAdjust="spacingAndGlyphs" textLength="84" x="617" y="1311.2061">快递柜服务器</text><rect fill="#FEFECE" filter="url(#f1t3ojddq2pc0f)" height="30.2969" style="stroke: #A80036; stroke-width: 1.5;" width="56" x="747" y="3"/><text fill="#000000" font-family="sans-serif" font-size="14" lengthAdjust="spacingAndGlyphs" textLength="42" x="754" y="22.9951">快递柜</text><rect fill="#FEFECE" filter="url(#f1t3ojddq2pc0f)" height="30.2969" style="stroke: #A80036; stroke-width: 1.5;" width="56" x="747" y="1291.2109"/><text fill="#000000" font-family="sans-serif" font-size="14" lengthAdjust="spacingAndGlyphs" textLength="42" x="754" y="1311.2061">快递柜</text><rect fill="#FEFECE" filter="url(#f1t3ojddq2pc0f)" height="30.2969" style="stroke: #A80036; stroke-width: 1.5;" width="70" x="817" y="3"/><text fill="#000000" font-family="sans-serif" font-size="14" lengthAdjust="spacingAndGlyphs" textLength="56" x="824" y="22.9951">快递公司</text><rect fill="#FEFECE" filter="url(#f1t3ojddq2pc0f)" height="30.2969" style="stroke: #A80036; stroke-width: 1.5;" width="70" x="817" y="1291.2109"/><text fill="#000000" font-family="sans-serif" font-size="14" lengthAdjust="spacingAndGlyphs" textLength="56" x="824" y="1311.2061">快递公司</text><rect fill="#FEFECE" filter="url(#f1t3ojddq2pc0f)" height="30.2969" style="stroke: #A80036; stroke-width: 1.5;" width="98" x="945" y="3"/><text fill="#000000" font-family="sans-serif" font-size="14" lengthAdjust="spacingAndGlyphs" textLength="84" x="952" y="22.9951">寄件状态界面</text><rect fill="#FEFECE" filter="url(#f1t3ojddq2pc0f)" height="30.2969" style="stroke: #A80036; stroke-width: 1.5;" width="98" x="945" y="1291.2109"/><text fill="#000000" font-family="sans-serif" font-size="14" lengthAdjust="spacingAndGlyphs" textLength="84" x="952" y="1311.2061">寄件状态界面</text><rect fill="#FEFECE" filter="url(#f1t3ojddq2pc0f)" height="30.2969" style="stroke: #A80036; stroke-width: 1.5;" width="42" x="1193" y="3"/><text fill="#000000" font-family="sans-serif" font-size="14" lengthAdjust="spacingAndGlyphs" textLength="28" x="1200" y="22.9951">用户</text><rect fill="#FEFECE" filter="url(#f1t3ojddq2pc0f)" height="30.2969" style="stroke: #A80036; stroke-width: 1.5;" width="42" x="1193" y="1291.2109"/><text fill="#000000" font-family="sans-serif" font-size="14" lengthAdjust="spacingAndGlyphs" textLength="28" x="1200" y="1311.2061">用户</text><rect fill="#FFFFFF" filter="url(#f1t3ojddq2pc0f)" height="1234.9141" style="stroke: #A80036; stroke-width: 1.0;" width="10" x="58" y="48.2969"/><rect fill="#FFFFFF" filter="url(#f1t3ojddq2pc0f)" height="1213.7813" style="stroke: #A80036; stroke-width: 1.0;" width="10" x="283" y="69.4297"/><rect fill="#FFFFFF" filter="url(#f1t3ojddq2pc0f)" height="29.1328" style="stroke: #A80036; stroke-width: 1.0;" width="10" x="416" y="98.5625"/><rect fill="#FFFFFF" filter="url(#f1t3ojddq2pc0f)" height="29.1328" style="stroke: #A80036; stroke-width: 1.0;" width="10" x="551" y="215.0938"/><rect fill="#FFFFFF" filter="url(#f1t3ojddq2pc0f)" height="29.1328" style="stroke: #A80036; stroke-width: 1.0;" width="10" x="551" y="443.1563"/><rect fill="#FFFFFF" filter="url(#f1t3ojddq2pc0f)" height="30" style="stroke: #A80036; stroke-width: 1.0;" width="10" x="551" y="642.9531"/><rect fill="#FFFFFF" filter="url(#f1t3ojddq2pc0f)" height="30" style="stroke: #A80036; stroke-width: 1.0;" width="10" x="551" y="1025.4141"/><rect fill="#FFFFFF" filter="url(#f1t3ojddq2pc0f)" height="58.2656" style="stroke: #A80036; stroke-width: 1.0;" width="10" x="656" y="355.7578"/><rect fill="#FFFFFF" filter="url(#f1t3ojddq2pc0f)" height="29.1328" style="stroke: #A80036; stroke-width: 1.0;" width="10" x="656" y="1143.6797"/><rect fill="#FFFFFF" filter="url(#f1t3ojddq2pc0f)" height="29.1328" style="stroke: #A80036; stroke-width: 1.0;" width="10" x="772" y="384.8906"/><rect fill="#FFFFFF" filter="url(#f1t3ojddq2pc0f)" height="30" style="stroke: #A80036; stroke-width: 1.0;" width="10" x="849" y="583.8203"/><rect fill="#FFFFFF" filter="url(#f1t3ojddq2pc0f)" height="30" style="stroke: #A80036; stroke-width: 1.0;" width="10" x="849" y="847.75"/><rect fill="#FFFFFF" filter="url(#f1t3ojddq2pc0f)" height="30" style="stroke: #A80036; stroke-width: 1.0;" width="10" x="849" y="1084.5469"/><rect fill="#FFFFFF" filter="url(#f1t3ojddq2pc0f)" height="117.3984" style="stroke: #A80036; stroke-width: 1.0;" width="10" x="991" y="760.3516"/><rect fill="#FFFFFF" filter="url(#f1t3ojddq2pc0f)" height="29.1328" style="stroke: #A80036; stroke-width: 1.0;" width="10" x="991" y="1201.9453"/><rect fill="#FFFFFF" filter="url(#f1t3ojddq2pc0f)" height="29.1328" style="stroke: #A80036; stroke-width: 1.0;" width="10" x="1211" y="789.4844"/><rect fill="#FFFFFF" filter="url(#f1t3ojddq2pc0f)" height="29.1328" style="stroke: #A80036; stroke-width: 1.0;" width="10" x="1211" y="1231.0781"/><line style="stroke: #A80036; stroke-width: 1.0;" x1="281" x2="271" y1="69.4297" y2="65.4297"/><line style="stroke: #A80036; stroke-width: 1.0;" x1="281" x2="271" y1="69.4297" y2="73.4297"/><line style="stroke: #A80036; stroke-width: 1.0;" x1="68" x2="282" y1="69.4297" y2="69.4297"/><text fill="#000000" font-family="sans-serif" font-size="13" font-weight="bold" lengthAdjust="spacingAndGlyphs" textLength="9" x="75" y="64.3638">1</text><text fill="#000000" font-family="sans-serif" font-size="13" lengthAdjust="spacingAndGlyphs" textLength="52" x="88" y="64.3638">请求取件</text><line style="stroke: #A80036; stroke-width: 1.0;" x1="414" x2="404" y1="98.5625" y2="94.5625"/><line style="stroke: #A80036; stroke-width: 1.0;" x1="414" x2="404" y1="98.5625" y2="102.5625"/><line style="stroke: #A80036; stroke-width: 1.0;" x1="293" x2="415" y1="98.5625" y2="98.5625"/><text fill="#000000" font-family="sans-serif" font-size="13" font-weight="bold" lengthAdjust="spacingAndGlyphs" textLength="9" x="300" y="93.4966">2</text><text fill="#000000" font-family="sans-serif" font-size="13" lengthAdjust="spacingAndGlyphs" textLength="91" x="313" y="93.4966">搜索附近取件点</text><line style="stroke: #A80036; stroke-width: 1.0;" x1="293" x2="303" y1="127.6953" y2="123.6953"/><line style="stroke: #A80036; stroke-width: 1.0;" x1="293" x2="303" y1="127.6953" y2="131.6953"/><line style="stroke: #A80036; stroke-width: 1.0; stroke-dasharray: 2.0,2.0;" x1="293" x2="420" y1="127.6953" y2="127.6953"/><text fill="#000000" font-family="sans-serif" font-size="13" font-weight="bold" lengthAdjust="spacingAndGlyphs" textLength="9" x="310" y="122.6294">3</text><text fill="#000000" font-family="sans-serif" font-size="13" lengthAdjust="spacingAndGlyphs" textLength="78" x="323" y="122.6294">返回附件网点</text><line style="stroke: #A80036; stroke-width: 1.0;" x1="68" x2="78" y1="156.8281" y2="152.8281"/><line style="stroke: #A80036; stroke-width: 1.0;" x1="68" x2="78" y1="156.8281" y2="160.8281"/><line style="stroke: #A80036; stroke-width: 1.0; stroke-dasharray: 2.0,2.0;" x1="68" x2="282" y1="156.8281" y2="156.8281"/><text fill="#000000" font-family="sans-serif" font-size="13" font-weight="bold" lengthAdjust="spacingAndGlyphs" textLength="9" x="85" y="151.7622">4</text><text fill="#000000" font-family="sans-serif" font-size="13" lengthAdjust="spacingAndGlyphs" textLength="78" x="98" y="151.7622">返回附件网点</text><line style="stroke: #A80036; stroke-width: 1.0;" x1="281" x2="271" y1="185.9609" y2="181.9609"/><line style="stroke: #A80036; stroke-width: 1.0;" x1="281" x2="271" y1="185.9609" y2="189.9609"/><line style="stroke: #A80036; stroke-width: 1.0;" x1="68" x2="282" y1="185.9609" y2="185.9609"/><text fill="#000000" font-family="sans-serif" font-size="13" font-weight="bold" lengthAdjust="spacingAndGlyphs" textLength="9" x="75" y="180.895">5</text><text fill="#000000" font-family="sans-serif" font-size="13" lengthAdjust="spacingAndGlyphs" textLength="91" x="88" y="180.895">选择要取件网点</text><line style="stroke: #A80036; stroke-width: 1.0;" x1="549" x2="539" y1="215.0938" y2="211.0938"/><line style="stroke: #A80036; stroke-width: 1.0;" x1="549" x2="539" y1="215.0938" y2="219.0938"/><line style="stroke: #A80036; stroke-width: 1.0;" x1="293" x2="550" y1="215.0938" y2="215.0938"/><text fill="#000000" font-family="sans-serif" font-size="13" font-weight="bold" lengthAdjust="spacingAndGlyphs" textLength="9" x="300" y="210.0278">6</text><text fill="#000000" font-family="sans-serif" font-size="13" lengthAdjust="spacingAndGlyphs" textLength="104" x="313" y="210.0278">请求该网点待取件</text><line style="stroke: #A80036; stroke-width: 1.0;" x1="293" x2="303" y1="244.2266" y2="240.2266"/><line style="stroke: #A80036; stroke-width: 1.0;" x1="293" x2="303" y1="244.2266" y2="248.2266"/><line style="stroke: #A80036; stroke-width: 1.0; stroke-dasharray: 2.0,2.0;" x1="293" x2="555" y1="244.2266" y2="244.2266"/><text fill="#000000" font-family="sans-serif" font-size="13" font-weight="bold" lengthAdjust="spacingAndGlyphs" textLength="9" x="310" y="239.1606">7</text><text fill="#000000" font-family="sans-serif" font-size="13" lengthAdjust="spacingAndGlyphs" textLength="221" x="323" y="239.1606">返回该网点所有待取件及所在快递柜号</text><line style="stroke: #A80036; stroke-width: 1.0;" x1="68" x2="78" y1="273.3594" y2="269.3594"/><line style="stroke: #A80036; stroke-width: 1.0;" x1="68" x2="78" y1="273.3594" y2="277.3594"/><line style="stroke: #A80036; stroke-width: 1.0; stroke-dasharray: 2.0,2.0;" x1="68" x2="282" y1="273.3594" y2="273.3594"/><text fill="#000000" font-family="sans-serif" font-size="13" font-weight="bold" lengthAdjust="spacingAndGlyphs" textLength="9" x="85" y="268.2935">8</text><text fill="#000000" font-family="sans-serif" font-size="13" lengthAdjust="spacingAndGlyphs" textLength="91" x="98" y="268.2935">所有待取件信息</text><line style="stroke: #A80036; stroke-width: 1.0;" x1="281" x2="271" y1="302.4922" y2="298.4922"/><line style="stroke: #A80036; stroke-width: 1.0;" x1="281" x2="271" y1="302.4922" y2="306.4922"/><line style="stroke: #A80036; stroke-width: 1.0;" x1="68" x2="282" y1="302.4922" y2="302.4922"/><text fill="#000000" font-family="sans-serif" font-size="13" font-weight="bold" lengthAdjust="spacingAndGlyphs" textLength="9" x="75" y="297.4263">9</text><text fill="#000000" font-family="sans-serif" font-size="13" lengthAdjust="spacingAndGlyphs" textLength="78" x="88" y="297.4263">请求依次取件</text><path d="M13,317.4922 L90,317.4922 L90,324.4922 L80,334.4922 L13,334.4922 L13,317.4922 " fill="#EEEEEE" style="stroke: #000000; stroke-width: 1.0;"/><rect fill="none" height="957.7188" style="stroke: #000000; stroke-width: 2.0;" width="1246" x="13" y="317.4922"/><text fill="#000000" font-family="sans-serif" font-size="13" font-weight="bold" lengthAdjust="spacingAndGlyphs" textLength="32" x="28" y="330.5591">loop</text><line style="stroke: #A80036; stroke-width: 1.0;" x1="654" x2="644" y1="355.7578" y2="351.7578"/><line style="stroke: #A80036; stroke-width: 1.0;" x1="654" x2="644" y1="355.7578" y2="359.7578"/><line style="stroke: #A80036; stroke-width: 1.0;" x1="293" x2="655" y1="355.7578" y2="355.7578"/><text fill="#000000" font-family="sans-serif" font-size="13" font-weight="bold" lengthAdjust="spacingAndGlyphs" textLength="18" x="300" y="350.6919">10</text><text fill="#000000" font-family="sans-serif" font-size="13" lengthAdjust="spacingAndGlyphs" textLength="104" x="322" y="350.6919">请求待取件开柜码</text><polygon fill="#A80036" points="760,380.8906,770,384.8906,760,388.8906,764,384.8906" style="stroke: #A80036; stroke-width: 1.0;"/><line style="stroke: #A80036; stroke-width: 1.0;" x1="666" x2="766" y1="384.8906" y2="384.8906"/><text fill="#000000" font-family="sans-serif" font-size="13" font-weight="bold" lengthAdjust="spacingAndGlyphs" textLength="18" x="673" y="379.8247">11</text><text fill="#000000" font-family="sans-serif" font-size="13" lengthAdjust="spacingAndGlyphs" textLength="65" x="695" y="379.8247">解锁快递柜</text><line style="stroke: #A80036; stroke-width: 1.0;" x1="293" x2="303" y1="414.0234" y2="410.0234"/><line style="stroke: #A80036; stroke-width: 1.0;" x1="293" x2="303" y1="414.0234" y2="418.0234"/><line style="stroke: #A80036; stroke-width: 1.0; stroke-dasharray: 2.0,2.0;" x1="293" x2="660" y1="414.0234" y2="414.0234"/><text fill="#000000" font-family="sans-serif" font-size="13" font-weight="bold" lengthAdjust="spacingAndGlyphs" textLength="18" x="310" y="408.9575">12</text><text fill="#000000" font-family="sans-serif" font-size="13" lengthAdjust="spacingAndGlyphs" textLength="65" x="332" y="408.9575">返回开柜码</text><line style="stroke: #A80036; stroke-width: 1.0;" x1="549" x2="539" y1="443.1563" y2="439.1563"/><line style="stroke: #A80036; stroke-width: 1.0;" x1="549" x2="539" y1="443.1563" y2="447.1563"/><line style="stroke: #A80036; stroke-width: 1.0;" x1="293" x2="550" y1="443.1563" y2="443.1563"/><text fill="#000000" font-family="sans-serif" font-size="13" font-weight="bold" lengthAdjust="spacingAndGlyphs" textLength="18" x="300" y="438.0903">13</text><text fill="#000000" font-family="sans-serif" font-size="13" lengthAdjust="spacingAndGlyphs" textLength="104" x="322" y="438.0903">请求用户寄件信息</text><line style="stroke: #A80036; stroke-width: 1.0;" x1="293" x2="303" y1="472.2891" y2="468.2891"/><line style="stroke: #A80036; stroke-width: 1.0;" x1="293" x2="303" y1="472.2891" y2="476.2891"/><line style="stroke: #A80036; stroke-width: 1.0; stroke-dasharray: 2.0,2.0;" x1="293" x2="555" y1="472.2891" y2="472.2891"/><text fill="#000000" font-family="sans-serif" font-size="13" font-weight="bold" lengthAdjust="spacingAndGlyphs" textLength="18" x="310" y="467.2231">14</text><text fill="#000000" font-family="sans-serif" font-size="13" lengthAdjust="spacingAndGlyphs" textLength="104" x="332" y="467.2231">返回用户寄件信息</text><line style="stroke: #A80036; stroke-width: 1.0;" x1="68" x2="78" y1="501.4219" y2="497.4219"/><line style="stroke: #A80036; stroke-width: 1.0;" x1="68" x2="78" y1="501.4219" y2="505.4219"/><line style="stroke: #A80036; stroke-width: 1.0; stroke-dasharray: 2.0,2.0;" x1="68" x2="282" y1="501.4219" y2="501.4219"/><text fill="#000000" font-family="sans-serif" font-size="13" font-weight="bold" lengthAdjust="spacingAndGlyphs" textLength="18" x="85" y="496.356">15</text><text fill="#000000" font-family="sans-serif" font-size="13" lengthAdjust="spacingAndGlyphs" textLength="156" x="107" y="496.356">返回开柜码，用户寄件信息</text><path d="M23,516.4219 L87,516.4219 L87,523.4219 L77,533.4219 L23,533.4219 L23,516.4219 " fill="#EEEEEE" style="stroke: #000000; stroke-width: 1.0;"/><rect fill="none" height="751.7891" style="stroke: #000000; stroke-width: 2.0;" width="1226" x="23" y="516.4219"/><text fill="#000000" font-family="sans-serif" font-size="13" font-weight="bold" lengthAdjust="spacingAndGlyphs" textLength="19" x="38" y="529.4888">alt</text><polygon fill="#A80036" points="271,550.6875,281,554.6875,271,558.6875,275,554.6875" style="stroke: #A80036; stroke-width: 1.0;"/><line style="stroke: #A80036; stroke-width: 1.0;" x1="68" x2="277" y1="554.6875" y2="554.6875"/><text fill="#000000" font-family="sans-serif" font-size="13" font-weight="bold" lengthAdjust="spacingAndGlyphs" textLength="18" x="75" y="549.6216">16</text><text fill="#000000" font-family="sans-serif" font-size="13" lengthAdjust="spacingAndGlyphs" textLength="52" x="97" y="549.6216">核验通过</text><polygon fill="#A80036" points="837,579.8203,847,583.8203,837,587.8203,841,583.8203" style="stroke: #A80036; stroke-width: 1.0;"/><line style="stroke: #A80036; stroke-width: 1.0;" x1="293" x2="843" y1="583.8203" y2="583.8203"/><text fill="#000000" font-family="sans-serif" font-size="13" font-weight="bold" lengthAdjust="spacingAndGlyphs" textLength="18" x="300" y="578.7544">17</text><text fill="#000000" font-family="sans-serif" font-size="13" lengthAdjust="spacingAndGlyphs" textLength="78" x="322" y="578.7544">告知核验通过</text><polygon fill="#A80036" points="539,638.9531,549,642.9531,539,646.9531,543,642.9531" style="stroke: #A80036; stroke-width: 1.0;"/><line style="stroke: #A80036; stroke-width: 1.0;" x1="293" x2="545" y1="642.9531" y2="642.9531"/><text fill="#000000" font-family="sans-serif" font-size="13" font-weight="bold" lengthAdjust="spacingAndGlyphs" textLength="18" x="300" y="637.8872">18</text><text fill="#000000" font-family="sans-serif" font-size="13" lengthAdjust="spacingAndGlyphs" textLength="78" x="322" y="637.8872">更新寄件状态</text><line style="stroke: #A80036; stroke-width: 1.0;" x1="281" x2="271" y1="702.0859" y2="698.0859"/><line style="stroke: #A80036; stroke-width: 1.0;" x1="281" x2="271" y1="702.0859" y2="706.0859"/><line style="stroke: #A80036; stroke-width: 1.0;" x1="68" x2="282" y1="702.0859" y2="702.0859"/><text fill="#000000" font-family="sans-serif" font-size="13" font-weight="bold" lengthAdjust="spacingAndGlyphs" textLength="18" x="75" y="697.02">19</text><text fill="#000000" font-family="sans-serif" font-size="13" lengthAdjust="spacingAndGlyphs" textLength="78" x="97" y="697.02">上传快递单号</text><line style="stroke: #A80036; stroke-width: 1.0;" x1="68" x2="78" y1="731.2188" y2="727.2188"/><line style="stroke: #A80036; stroke-width: 1.0;" x1="68" x2="78" y1="731.2188" y2="735.2188"/><line style="stroke: #A80036; stroke-width: 1.0; stroke-dasharray: 2.0,2.0;" x1="68" x2="282" y1="731.2188" y2="731.2188"/><text fill="#000000" font-family="sans-serif" font-size="13" font-weight="bold" lengthAdjust="spacingAndGlyphs" textLength="18" x="85" y="726.1528">20</text><text fill="#000000" font-family="sans-serif" font-size="13" lengthAdjust="spacingAndGlyphs" textLength="52" x="107" y="726.1528">上传成功</text><polygon fill="#A80036" points="979,756.3516,989,760.3516,979,764.3516,983,760.3516" style="stroke: #A80036; stroke-width: 1.0;"/><line style="stroke: #A80036; stroke-width: 1.0;" x1="293" x2="985" y1="760.3516" y2="760.3516"/><text fill="#000000" font-family="sans-serif" font-size="13" font-weight="bold" lengthAdjust="spacingAndGlyphs" textLength="18" x="300" y="755.2856">21</text><text fill="#000000" font-family="sans-serif" font-size="13" lengthAdjust="spacingAndGlyphs" textLength="78" x="322" y="755.2856">告知快递单号</text><line style="stroke: #A80036; stroke-width: 1.0;" x1="1209" x2="1199" y1="789.4844" y2="785.4844"/><line style="stroke: #A80036; stroke-width: 1.0;" x1="1209" x2="1199" y1="789.4844" y2="793.4844"/><line style="stroke: #A80036; stroke-width: 1.0;" x1="1001" x2="1210" y1="789.4844" y2="789.4844"/><text fill="#000000" font-family="sans-serif" font-size="13" font-weight="bold" lengthAdjust="spacingAndGlyphs" textLength="18" x="1008" y="784.4185">22</text><text fill="#000000" font-family="sans-serif" font-size="13" lengthAdjust="spacingAndGlyphs" textLength="143" x="1030" y="784.4185">告知快递单号，请求付款</text><line style="stroke: #A80036; stroke-width: 1.0;" x1="1001" x2="1011" y1="818.6172" y2="814.6172"/><line style="stroke: #A80036; stroke-width: 1.0;" x1="1001" x2="1011" y1="818.6172" y2="822.6172"/><line style="stroke: #A80036; stroke-width: 1.0; stroke-dasharray: 2.0,2.0;" x1="1001" x2="1215" y1="818.6172" y2="818.6172"/><text fill="#000000" font-family="sans-serif" font-size="13" font-weight="bold" lengthAdjust="spacingAndGlyphs" textLength="18" x="1018" y="813.5513">23</text><text fill="#000000" font-family="sans-serif" font-size="13" lengthAdjust="spacingAndGlyphs" textLength="52" x="1040" y="813.5513">付款成功</text><polygon fill="#A80036" points="870,843.75,860,847.75,870,851.75,866,847.75" style="stroke: #A80036; stroke-width: 1.0;"/><line style="stroke: #A80036; stroke-width: 1.0;" x1="864" x2="990" y1="847.75" y2="847.75"/><text fill="#000000" font-family="sans-serif" font-size="13" font-weight="bold" lengthAdjust="spacingAndGlyphs" textLength="18" x="876" y="842.6841">24</text><text fill="#000000" font-family="sans-serif" font-size="13" lengthAdjust="spacingAndGlyphs" textLength="91" x="898" y="842.6841">告知用户已付款</text><line style="stroke: #000000; stroke-width: 1.0; stroke-dasharray: 2.0,2.0;" x1="23" x2="1249" y1="886.75" y2="886.75"/><line style="stroke: #A80036; stroke-width: 1.0;" x1="281" x2="271" y1="908.8828" y2="904.8828"/><line style="stroke: #A80036; stroke-width: 1.0;" x1="281" x2="271" y1="908.8828" y2="912.8828"/><line style="stroke: #A80036; stroke-width: 1.0;" x1="68" x2="282" y1="908.8828" y2="908.8828"/><text fill="#000000" font-family="sans-serif" font-size="13" font-weight="bold" lengthAdjust="spacingAndGlyphs" textLength="18" x="75" y="903.8169">25</text><text fill="#000000" font-family="sans-serif" font-size="13" lengthAdjust="spacingAndGlyphs" textLength="65" x="97" y="903.8169">核验未通过</text><line style="stroke: #A80036; stroke-width: 1.0;" x1="68" x2="78" y1="938.0156" y2="934.0156"/><line style="stroke: #A80036; stroke-width: 1.0;" x1="68" x2="78" y1="938.0156" y2="942.0156"/><line style="stroke: #A80036; stroke-width: 1.0; stroke-dasharray: 2.0,2.0;" x1="68" x2="282" y1="938.0156" y2="938.0156"/><text fill="#000000" font-family="sans-serif" font-size="13" font-weight="bold" lengthAdjust="spacingAndGlyphs" textLength="18" x="85" y="932.9497">26</text><text fill="#000000" font-family="sans-serif" font-size="13" lengthAdjust="spacingAndGlyphs" textLength="117" x="107" y="932.9497">请求填写未通过理由</text><line style="stroke: #A80036; stroke-width: 1.0;" x1="281" x2="271" y1="967.1484" y2="963.1484"/><line style="stroke: #A80036; stroke-width: 1.0;" x1="281" x2="271" y1="967.1484" y2="971.1484"/><line style="stroke: #A80036; stroke-width: 1.0;" x1="68" x2="282" y1="967.1484" y2="967.1484"/><text fill="#000000" font-family="sans-serif" font-size="13" font-weight="bold" lengthAdjust="spacingAndGlyphs" textLength="18" x="75" y="962.0825">27</text><text fill="#000000" font-family="sans-serif" font-size="13" lengthAdjust="spacingAndGlyphs" textLength="169" x="97" y="962.0825">上传寄件图片、填写拒收理由</text><line style="stroke: #A80036; stroke-width: 1.0;" x1="68" x2="78" y1="996.2813" y2="992.2813"/><line style="stroke: #A80036; stroke-width: 1.0;" x1="68" x2="78" y1="996.2813" y2="1000.2813"/><line style="stroke: #A80036; stroke-width: 1.0; stroke-dasharray: 2.0,2.0;" x1="68" x2="282" y1="996.2813" y2="996.2813"/><text fill="#000000" font-family="sans-serif" font-size="13" font-weight="bold" lengthAdjust="spacingAndGlyphs" textLength="18" x="85" y="991.2153">28</text><text fill="#000000" font-family="sans-serif" font-size="13" lengthAdjust="spacingAndGlyphs" textLength="52" x="107" y="991.2153">上传成功</text><polygon fill="#A80036" points="539,1021.4141,549,1025.4141,539,1029.4141,543,1025.4141" style="stroke: #A80036; stroke-width: 1.0;"/><line style="stroke: #A80036; stroke-width: 1.0;" x1="293" x2="545" y1="1025.4141" y2="1025.4141"/><text fill="#000000" font-family="sans-serif" font-size="13" font-weight="bold" lengthAdjust="spacingAndGlyphs" textLength="18" x="300" y="1020.3481">29</text><text fill="#000000" font-family="sans-serif" font-size="13" lengthAdjust="spacingAndGlyphs" textLength="78" x="322" y="1020.3481">更新寄件状态</text><polygon fill="#A80036" points="837,1080.5469,847,1084.5469,837,1088.5469,841,1084.5469" style="stroke: #A80036; stroke-width: 1.0;"/><line style="stroke: #A80036; stroke-width: 1.0;" x1="293" x2="843" y1="1084.5469" y2="1084.5469"/><text fill="#000000" font-family="sans-serif" font-size="13" font-weight="bold" lengthAdjust="spacingAndGlyphs" textLength="18" x="300" y="1079.481">30</text><text fill="#000000" font-family="sans-serif" font-size="13" lengthAdjust="spacingAndGlyphs" textLength="117" x="322" y="1079.481">告知快递员拒收操作</text><line style="stroke: #A80036; stroke-width: 1.0;" x1="654" x2="644" y1="1143.6797" y2="1139.6797"/><line style="stroke: #A80036; stroke-width: 1.0;" x1="654" x2="644" y1="1143.6797" y2="1147.6797"/><line style="stroke: #A80036; stroke-width: 1.0;" x1="293" x2="655" y1="1143.6797" y2="1143.6797"/><text fill="#000000" font-family="sans-serif" font-size="13" font-weight="bold" lengthAdjust="spacingAndGlyphs" textLength="18" x="300" y="1138.6138">31</text><text fill="#000000" font-family="sans-serif" font-size="13" lengthAdjust="spacingAndGlyphs" textLength="65" x="322" y="1138.6138">请求开柜码</text><line style="stroke: #A80036; stroke-width: 1.0;" x1="293" x2="303" y1="1172.8125" y2="1168.8125"/><line style="stroke: #A80036; stroke-width: 1.0;" x1="293" x2="303" y1="1172.8125" y2="1176.8125"/><line style="stroke: #A80036; stroke-width: 1.0; stroke-dasharray: 2.0,2.0;" x1="293" x2="660" y1="1172.8125" y2="1172.8125"/><text fill="#000000" font-family="sans-serif" font-size="13" font-weight="bold" lengthAdjust="spacingAndGlyphs" textLength="18" x="310" y="1167.7466">32</text><text fill="#000000" font-family="sans-serif" font-size="13" lengthAdjust="spacingAndGlyphs" textLength="39" x="332" y="1167.7466">开柜码</text><polygon fill="#A80036" points="979,1197.9453,989,1201.9453,979,1205.9453,983,1201.9453" style="stroke: #A80036; stroke-width: 1.0;"/><line style="stroke: #A80036; stroke-width: 1.0;" x1="293" x2="985" y1="1201.9453" y2="1201.9453"/><text fill="#000000" font-family="sans-serif" font-size="13" font-weight="bold" lengthAdjust="spacingAndGlyphs" textLength="18" x="300" y="1196.8794">33</text><text fill="#000000" font-family="sans-serif" font-size="13" lengthAdjust="spacingAndGlyphs" textLength="195" x="322" y="1196.8794">更新寄件被拒状态、理由，开柜码</text><line style="stroke: #A80036; stroke-width: 1.0;" x1="1209" x2="1199" y1="1231.0781" y2="1227.0781"/><line style="stroke: #A80036; stroke-width: 1.0;" x1="1209" x2="1199" y1="1231.0781" y2="1235.0781"/><line style="stroke: #A80036; stroke-width: 1.0;" x1="996" x2="1210" y1="1231.0781" y2="1231.0781"/><text fill="#000000" font-family="sans-serif" font-size="13" font-weight="bold" lengthAdjust="spacingAndGlyphs" textLength="18" x="1003" y="1226.0122">34</text><text fill="#000000" font-family="sans-serif" font-size="13" lengthAdjust="spacingAndGlyphs" textLength="169" x="1025" y="1226.0122">告知寄件被拒及理由，开柜码</text><line style="stroke: #A80036; stroke-width: 1.0;" x1="996" x2="1006" y1="1260.2109" y2="1256.2109"/><line style="stroke: #A80036; stroke-width: 1.0;" x1="996" x2="1006" y1="1260.2109" y2="1264.2109"/><line style="stroke: #A80036; stroke-width: 1.0; stroke-dasharray: 2.0,2.0;" x1="996" x2="1215" y1="1260.2109" y2="1260.2109"/><text fill="#000000" font-family="sans-serif" font-size="13" font-weight="bold" lengthAdjust="spacingAndGlyphs" textLength="18" x="1013" y="1255.145">35</text><text fill="#000000" font-family="sans-serif" font-size="13" lengthAdjust="spacingAndGlyphs" textLength="169" x="1035" y="1255.145">获取寄件被拒及理由，开柜码</text><!--
@startuml
autonumber

activate 快递员
快递员 ->> 取件界面: 请求取件
activate 取件界面
取件界面 ->> 网点表单: 搜索附近取件点
activate 网点表单
网点表单 - ->> 取件界面: 返回附件网点
deactivate 网点表单
取件界面 - ->> 快递员: 返回附件网点
快递员 ->> 取件界面: 选择要取件网点
取件界面 ->> 待取件列表: 请求该网点待取件
activate 待取件列表
待取件列表 - ->> 取件界面: 返回该网点所有待取件及所在快递柜号
deactivate 待取件列表
取件界面 - ->> 快递员: 所有待取件信息
快递员 ->> 取件界面: 请求依次取件
loop
取件界面 ->> 快递柜服务器: 请求待取件开柜码
activate 快递柜服务器
快递柜服务器 -> 快递柜: 解锁快递柜
activate 快递柜
快递柜服务器 - ->> 取件界面: 返回开柜码
deactivate 快递柜
deactivate 快递柜服务器
取件界面 ->> 待取件列表: 请求用户寄件信息
activate 待取件列表
待取件列表 - ->> 取件界面: 返回用户寄件信息
deactivate 待取件列表
取件界面 - ->> 快递员: 返回开柜码，用户寄件信息
alt
快递员 -> 取件界面: 核验通过
取件界面 -> 快递公司: 告知核验通过
activate 快递公司
deactivate 快递公司
取件界面 -> 待取件列表: 更新寄件状态
activate 待取件列表
deactivate 待取件列表
快递员 ->> 取件界面: 上传快递单号
取件界面 - ->> 快递员: 上传成功
取件界面 -> 寄件状态界面: 告知快递单号
activate 寄件状态界面
寄件状态界面 ->> 用户: 告知快递单号，请求付款
activate 用户
用户 - ->> 寄件状态界面: 付款成功
deactivate 用户
寄件状态界面 -> 快递公司: 告知用户已付款
activate 快递公司
deactivate 快递公司
deactivate 寄件状态界面
else
快递员 ->> 取件界面: 核验未通过
取件界面 - ->> 快递员: 请求填写未通过理由
快递员 ->> 取件界面: 上传寄件图片、填写拒收理由
取件界面 - ->> 快递员: 上传成功
取件界面 -> 待取件列表: 更新寄件状态
activate 待取件列表
deactivate 待取件列表
取件界面 -> 快递公司: 告知快递员拒收操作
activate 快递公司
deactivate 快递公司
取件界面 ->> 快递柜服务器: 请求开柜码
activate 快递柜服务器
快递柜服务器 - ->> 取件界面: 开柜码
deactivate 快递柜服务器
取件界面 -> 寄件状态界面: 更新寄件被拒状态、理由，开柜码
activate 寄件状态界面
寄件状态界面 ->> 用户: 告知寄件被拒及理由，开柜码
deactivate 寄件状态界面
activate 用户
用户 - ->> 寄件状态界面: 获取寄件被拒及理由，开柜码
deactivate 用户
end

end
@enduml

PlantUML version 1.2019.01(Sat Feb 09 15:32:04 UTC 2019)
(GPL source distribution)
Java Runtime: OpenJDK Runtime Environment
JVM: OpenJDK 64-Bit Server VM
Java Version: 1.8.0_181-8u181-b13-2~deb9u1-b13
Operating System: Linux
OS Version: 3.10.0-957.5.1.el7.x86_64
Default Encoding: UTF-8
Language: en
Country: null
--></g></svg>