<?xml version="1.0" encoding="UTF-8" standalone="no"?><svg xmlns="http://www.w3.org/2000/svg" xmlns:xlink="http://www.w3.org/1999/xlink" contentScriptType="application/ecmascript" contentStyleType="text/css" height="192px" preserveAspectRatio="none" style="width:263px;height:192px;" version="1.1" viewBox="0 0 263 192" width="263px" zoomAndPan="magnify"><defs><filter height="300%" id="f1qpeo3epqit6s" width="300%" x="-1" y="-1"><feGaussianBlur result="blurOut" stdDeviation="2.0"/><feColorMatrix in="blurOut" result="blurOut2" type="matrix" values="0 0 0 0 0 0 0 0 0 0 0 0 0 0 0 0 0 0 .4 0"/><feOffset dx="4.0" dy="4.0" in="blurOut2" result="blurOut3"/><feBlend in="SourceGraphic" in2="blurOut3" mode="normal"/></filter></defs><g><!--entity 技术部--><ellipse cx="72.5" cy="109" fill="#FEFECE" filter="url(#f1qpeo3epqit6s)" rx="8" ry="8" style="stroke: #A80036; stroke-width: 2.0;"/><path d="M72.5,117 L72.5,144 M59.5,125 L85.5,125 M72.5,144 L59.5,159 M72.5,144 L85.5,159 " fill="none" filter="url(#f1qpeo3epqit6s)" style="stroke: #A80036; stroke-width: 2.0;"/><text fill="#000000" font-family="sans-serif" font-size="14" lengthAdjust="spacingAndGlyphs" textLength="42" x="51.5" y="178.9951">技术部</text><ellipse cx="190.5143" cy="140.7029" fill="#FEFECE" filter="url(#f1qpeo3epqit6s)" rx="61.5143" ry="14.7029" style="stroke: #A80036; stroke-width: 1.5;"/><text fill="#000000" font-family="sans-serif" font-size="14" lengthAdjust="spacingAndGlyphs" textLength="84" x="148.5143" y="145.3513">维护借书状态</text><ellipse cx="72.7254" cy="23.7451" fill="#FEFECE" filter="url(#f1qpeo3epqit6s)" rx="66.7254" ry="15.7451" style="stroke: #A80036; stroke-width: 1.5;"/><text fill="#000000" font-family="sans-serif" font-size="14" lengthAdjust="spacingAndGlyphs" textLength="98" x="23.7254" y="28.3935">登录校书籍系统</text><!--link 技术部 to 维护借书状态--><path d="M93.7031,140.5 C103.6847,140.5 113.666,140.5 123.648,140.5 " fill="none" id="技术部-维护借书状态" style="stroke: #A80036; stroke-width: 1.0;"/><polygon fill="#A80036" points="128.868,140.5,119.868,136.5,123.868,140.5,119.868,144.5,128.868,140.5" style="stroke: #A80036; stroke-width: 1.0;"/><!--link 登录校书籍系统 to 技术部--><path d="M72.5,44.292 C72.5,59.272 72.5,80.361 72.5,98.8845 " fill="none" id="登录校书籍系统-技术部" style="stroke: #A80036; stroke-width: 1.0;"/><polygon fill="#A80036" points="72.5,39.065,68.5,48.065,72.5,44.065,76.5,48.065,72.5,39.065" style="stroke: #A80036; stroke-width: 1.0;"/><!--
@startuml
actor 技术部
技术部 -right-> (维护借书状态)
技术部 -up-> (登录校书籍系统)
@enduml

PlantUML version 1.2019.01(Sat Feb 09 15:32:04 UTC 2019)
(GPL source distribution)
Java Runtime: OpenJDK Runtime Environment
JVM: OpenJDK 64-Bit Server VM
Java Version: 1.8.0_181-8u181-b13-2~deb9u1-b13
Operating System: Linux
OS Version: 3.10.0-957.5.1.el7.x86_64
Default Encoding: UTF-8
Language: en
Country: null
--></g></svg>