<?xml version="1.0" encoding="UTF-8" standalone="no"?><svg xmlns="http://www.w3.org/2000/svg" xmlns:xlink="http://www.w3.org/1999/xlink" contentScriptType="application/ecmascript" contentStyleType="text/css" height="348px" preserveAspectRatio="none" style="width:597px;height:348px;" version="1.1" viewBox="0 0 597 348" width="597px" zoomAndPan="magnify"><defs><filter height="300%" id="f10sw07msv8iip" width="300%" x="-1" y="-1"><feGaussianBlur result="blurOut" stdDeviation="2.0"/><feColorMatrix in="blurOut" result="blurOut2" type="matrix" values="0 0 0 0 0 0 0 0 0 0 0 0 0 0 0 0 0 0 .4 0"/><feOffset dx="4.0" dy="4.0" in="blurOut2" result="blurOut3"/><feBlend in="SourceGraphic" in2="blurOut3" mode="normal"/></filter></defs><g><ellipse cx="298" cy="20" fill="#000000" filter="url(#f10sw07msv8iip)" rx="10" ry="10" style="stroke: none; stroke-width: 1.0;"/><rect fill="#FEFECE" filter="url(#f10sw07msv8iip)" height="33.9688" rx="12.5" ry="12.5" style="stroke: #A80036; stroke-width: 1.5;" width="80" x="258" y="50"/><text fill="#000000" font-family="sans-serif" font-size="12" lengthAdjust="spacingAndGlyphs" textLength="60" x="268" y="71.1387">输入用户ID</text><rect fill="#FEFECE" filter="url(#f10sw07msv8iip)" height="33.9688" rx="12.5" ry="12.5" style="stroke: #A80036; stroke-width: 1.5;" width="116" x="240" y="103.9688"/><text fill="#000000" font-family="sans-serif" font-size="12" lengthAdjust="spacingAndGlyphs" textLength="96" x="250" y="125.1074">点击查询用户信息</text><rect fill="#000000" filter="url(#f10sw07msv8iip)" height="6" rx="2.5" ry="2.5" style="stroke: #000000; stroke-width: 1.0;" width="576" x="10" y="157.9375"/><rect fill="#FEFECE" filter="url(#f10sw07msv8iip)" height="33.9688" rx="12.5" ry="12.5" style="stroke: #A80036; stroke-width: 1.5;" width="116" x="24" y="183.9375"/><text fill="#000000" font-family="sans-serif" font-size="12" lengthAdjust="spacingAndGlyphs" textLength="96" x="34" y="205.0762">搜索用户基本信息</text><rect fill="#FEFECE" filter="url(#f10sw07msv8iip)" height="33.9688" rx="12.5" ry="12.5" style="stroke: #A80036; stroke-width: 1.5;" width="116" x="168" y="183.9375"/><text fill="#000000" font-family="sans-serif" font-size="12" lengthAdjust="spacingAndGlyphs" textLength="96" x="178" y="205.0762">搜索用户借书记录</text><rect fill="#FEFECE" filter="url(#f10sw07msv8iip)" height="33.9688" rx="12.5" ry="12.5" style="stroke: #A80036; stroke-width: 1.5;" width="116" x="312" y="183.9375"/><text fill="#000000" font-family="sans-serif" font-size="12" lengthAdjust="spacingAndGlyphs" textLength="96" x="322" y="205.0762">搜索用户还书记录</text><rect fill="#FEFECE" filter="url(#f10sw07msv8iip)" height="33.9688" rx="12.5" ry="12.5" style="stroke: #A80036; stroke-width: 1.5;" width="116" x="456" y="183.9375"/><text fill="#000000" font-family="sans-serif" font-size="12" lengthAdjust="spacingAndGlyphs" textLength="96" x="466" y="205.0762">搜索用户信誉记录</text><rect fill="#000000" filter="url(#f10sw07msv8iip)" height="6" rx="2.5" ry="2.5" style="stroke: #000000; stroke-width: 1.0;" width="576" x="10" y="237.9063"/><rect fill="#FEFECE" filter="url(#f10sw07msv8iip)" height="33.9688" rx="12.5" ry="12.5" style="stroke: #A80036; stroke-width: 1.5;" width="92" x="252" y="263.9063"/><text fill="#000000" font-family="sans-serif" font-size="12" lengthAdjust="spacingAndGlyphs" textLength="72" x="262" y="285.0449">显示用户信息</text><ellipse cx="298" cy="327.875" fill="none" filter="url(#f10sw07msv8iip)" rx="10" ry="10" style="stroke: #000000; stroke-width: 1.0;"/><ellipse cx="298.5" cy="328.375" fill="#000000" filter="url(#f10sw07msv8iip)" rx="6" ry="6" style="stroke: none; stroke-width: 1.0;"/><line style="stroke: #A80036; stroke-width: 1.5;" x1="298" x2="298" y1="30" y2="50"/><polygon fill="#A80036" points="294,40,298,50,302,40,298,44" style="stroke: #A80036; stroke-width: 1.0;"/><line style="stroke: #A80036; stroke-width: 1.5;" x1="298" x2="298" y1="83.9688" y2="103.9688"/><polygon fill="#A80036" points="294,93.9688,298,103.9688,302,93.9688,298,97.9688" style="stroke: #A80036; stroke-width: 1.0;"/><line style="stroke: #A80036; stroke-width: 1.5;" x1="82" x2="82" y1="163.9375" y2="183.9375"/><polygon fill="#A80036" points="78,173.9375,82,183.9375,86,173.9375,82,177.9375" style="stroke: #A80036; stroke-width: 1.0;"/><line style="stroke: #A80036; stroke-width: 1.5;" x1="226" x2="226" y1="163.9375" y2="183.9375"/><polygon fill="#A80036" points="222,173.9375,226,183.9375,230,173.9375,226,177.9375" style="stroke: #A80036; stroke-width: 1.0;"/><line style="stroke: #A80036; stroke-width: 1.5;" x1="370" x2="370" y1="163.9375" y2="183.9375"/><polygon fill="#A80036" points="366,173.9375,370,183.9375,374,173.9375,370,177.9375" style="stroke: #A80036; stroke-width: 1.0;"/><line style="stroke: #A80036; stroke-width: 1.5;" x1="514" x2="514" y1="163.9375" y2="183.9375"/><polygon fill="#A80036" points="510,173.9375,514,183.9375,518,173.9375,514,177.9375" style="stroke: #A80036; stroke-width: 1.0;"/><line style="stroke: #A80036; stroke-width: 1.5;" x1="82" x2="82" y1="217.9063" y2="237.9063"/><polygon fill="#A80036" points="78,227.9063,82,237.9063,86,227.9063,82,231.9063" style="stroke: #A80036; stroke-width: 1.0;"/><line style="stroke: #A80036; stroke-width: 1.5;" x1="226" x2="226" y1="217.9063" y2="237.9063"/><polygon fill="#A80036" points="222,227.9063,226,237.9063,230,227.9063,226,231.9063" style="stroke: #A80036; stroke-width: 1.0;"/><line style="stroke: #A80036; stroke-width: 1.5;" x1="370" x2="370" y1="217.9063" y2="237.9063"/><polygon fill="#A80036" points="366,227.9063,370,237.9063,374,227.9063,370,231.9063" style="stroke: #A80036; stroke-width: 1.0;"/><line style="stroke: #A80036; stroke-width: 1.5;" x1="514" x2="514" y1="217.9063" y2="237.9063"/><polygon fill="#A80036" points="510,227.9063,514,237.9063,518,227.9063,514,231.9063" style="stroke: #A80036; stroke-width: 1.0;"/><line style="stroke: #A80036; stroke-width: 1.5;" x1="298" x2="298" y1="137.9375" y2="157.9375"/><polygon fill="#A80036" points="294,147.9375,298,157.9375,302,147.9375,298,151.9375" style="stroke: #A80036; stroke-width: 1.0;"/><line style="stroke: #A80036; stroke-width: 1.5;" x1="298" x2="298" y1="243.9063" y2="263.9063"/><polygon fill="#A80036" points="294,253.9063,298,263.9063,302,253.9063,298,257.9063" style="stroke: #A80036; stroke-width: 1.0;"/><line style="stroke: #A80036; stroke-width: 1.5;" x1="298" x2="298" y1="297.875" y2="317.875"/><polygon fill="#A80036" points="294,307.875,298,317.875,302,307.875,298,311.875" style="stroke: #A80036; stroke-width: 1.0;"/><!--
@startuml
start
:输入用户ID;
:点击查询用户信息;
fork
:搜索用户基本信息;
fork again
:搜索用户借书记录;
fork again
:搜索用户还书记录;
fork again
:搜索用户信誉记录;
end fork
:显示用户信息;
stop
@enduml

PlantUML version 1.2019.01(Sat Feb 09 15:32:04 UTC 2019)
(GPL source distribution)
Java Runtime: OpenJDK Runtime Environment
JVM: OpenJDK 64-Bit Server VM
Java Version: 1.8.0_181-8u181-b13-2~deb9u1-b13
Operating System: Linux
OS Version: 3.10.0-957.5.1.el7.x86_64
Default Encoding: UTF-8
Language: en
Country: null
--></g></svg>