<?xml version="1.0" encoding="UTF-8" standalone="no"?><svg xmlns="http://www.w3.org/2000/svg" xmlns:xlink="http://www.w3.org/1999/xlink" contentScriptType="application/ecmascript" contentStyleType="text/css" height="390px" preserveAspectRatio="none" style="width:584px;height:390px;" version="1.1" viewBox="0 0 584 390" width="584px" zoomAndPan="magnify"><defs><filter height="300%" id="flib896vmc7fx" width="300%" x="-1" y="-1"><feGaussianBlur result="blurOut" stdDeviation="2.0"/><feColorMatrix in="blurOut" result="blurOut2" type="matrix" values="0 0 0 0 0 0 0 0 0 0 0 0 0 0 0 0 0 0 .4 0"/><feOffset dx="4.0" dy="4.0" in="blurOut2" result="blurOut3"/><feBlend in="SourceGraphic" in2="blurOut3" mode="normal"/></filter></defs><g><!--entity 流通部--><ellipse cx="192.5" cy="216" fill="#FEFECE" filter="url(#flib896vmc7fx)" rx="8" ry="8" style="stroke: #A80036; stroke-width: 2.0;"/><path d="M192.5,224 L192.5,251 M179.5,232 L205.5,232 M192.5,251 L179.5,266 M192.5,251 L205.5,266 " fill="none" filter="url(#flib896vmc7fx)" style="stroke: #A80036; stroke-width: 2.0;"/><text fill="#000000" font-family="sans-serif" font-size="14" lengthAdjust="spacingAndGlyphs" textLength="42" x="171.5" y="285.9951">流通部</text><ellipse cx="192.7254" cy="129.7451" fill="#FEFECE" filter="url(#flib896vmc7fx)" rx="66.7254" ry="15.7451" style="stroke: #A80036; stroke-width: 1.5;"/><text fill="#000000" font-family="sans-serif" font-size="14" lengthAdjust="spacingAndGlyphs" textLength="98" x="143.7254" y="134.3935">登录校书籍系统</text><ellipse cx="48.598" cy="129.5236" fill="#FEFECE" filter="url(#flib896vmc7fx)" rx="42.598" ry="14.5236" style="stroke: #A80036; stroke-width: 1.5;"/><text fill="#000000" font-family="sans-serif" font-size="14" lengthAdjust="spacingAndGlyphs" textLength="56" x="20.598" y="134.1721">处理借书</text><ellipse cx="310.598" cy="247.5236" fill="#FEFECE" filter="url(#flib896vmc7fx)" rx="42.598" ry="14.5236" style="stroke: #A80036; stroke-width: 1.5;"/><text fill="#000000" font-family="sans-serif" font-size="14" lengthAdjust="spacingAndGlyphs" textLength="56" x="282.598" y="252.1721">处理还书</text><ellipse cx="192.598" cy="364.5236" fill="#FEFECE" filter="url(#flib896vmc7fx)" rx="42.598" ry="14.5236" style="stroke: #A80036; stroke-width: 1.5;"/><text fill="#000000" font-family="sans-serif" font-size="14" lengthAdjust="spacingAndGlyphs" textLength="56" x="164.598" y="369.1721">书籍查询</text><ellipse cx="258.598" cy="22.5236" fill="#FEFECE" filter="url(#flib896vmc7fx)" rx="42.598" ry="14.5236" style="stroke: #A80036; stroke-width: 1.5;"/><text fill="#000000" font-family="sans-serif" font-size="14" lengthAdjust="spacingAndGlyphs" textLength="56" x="230.598" y="27.1721">信誉查询</text><ellipse cx="511.5143" cy="247.7029" fill="#FEFECE" filter="url(#flib896vmc7fx)" rx="61.5143" ry="14.7029" style="stroke: #A80036; stroke-width: 1.5;"/><text fill="#000000" font-family="sans-serif" font-size="14" lengthAdjust="spacingAndGlyphs" textLength="84" x="469.5143" y="252.3513">收取逾期罚金</text><!--link 登录校书籍系统 to 流通部--><path d="M192.5,150.486 C192.5,165.664 192.5,187.049 192.5,205.785 " fill="none" id="登录校书籍系统-流通部" style="stroke: #A80036; stroke-width: 1.0;"/><polygon fill="#A80036" points="192.5,145.191,188.5,154.191,192.5,150.191,196.5,154.191,192.5,145.191" style="stroke: #A80036; stroke-width: 1.0;"/><!--link 处理借书 to 流通部--><path d="M68.3324,146.476 C95.3473,168.238 143.517,207.041 171.25,229.382 " fill="none" id="处理借书-流通部" style="stroke: #A80036; stroke-width: 1.0;"/><polygon fill="#A80036" points="64.1846,143.135,68.683,151.8965,68.078,146.2721,73.7024,145.6671,64.1846,143.135" style="stroke: #A80036; stroke-width: 1.0;"/><!--link 流通部 to 处理还书--><path d="M213.703,247.5 C230.037,247.5 246.37,247.5 262.704,247.5 " fill="none" id="流通部-处理还书" style="stroke: #A80036; stroke-width: 1.0;"/><polygon fill="#A80036" points="267.773,247.5,258.773,243.5,262.773,247.5,258.773,251.5,267.773,247.5" style="stroke: #A80036; stroke-width: 1.0;"/><!--link 流通部 to 书籍查询--><path d="M192.5,289.0447 C192.5,307.9354 192.5,329.5074 192.5,344.5516 " fill="none" id="流通部-书籍查询" style="stroke: #A80036; stroke-width: 1.0;"/><polygon fill="#A80036" points="192.5,349.7817,196.5,340.7817,192.5,344.7817,188.5,340.7817,192.5,349.7817" style="stroke: #A80036; stroke-width: 1.0;"/><!--link 信誉查询 to 处理借书--><path d="M230.956,37.272 C189.093,58.204 110.222,97.639 71.3452,117.077 " fill="none" id="信誉查询-处理借书" style="stroke: #A80036; stroke-width: 1.0; stroke-dasharray: 7.0,7.0;"/><polygon fill="#A80036" points="235.627,34.937,225.7883,35.3842,231.1549,37.1731,229.366,42.5396,235.627,34.937" style="stroke: #A80036; stroke-width: 1.0;"/><text fill="#000000" font-family="sans-serif" font-size="13" lengthAdjust="spacingAndGlyphs" textLength="61" x="167.5" y="80.0669">«include»</text><!--link 信誉查询 to 处理还书--><path d="M262.842,42.119 C273.042,85.865 298.35,194.396 307.301,232.781 " fill="none" id="信誉查询-处理还书" style="stroke: #A80036; stroke-width: 1.0; stroke-dasharray: 7.0,7.0;"/><polygon fill="#A80036" points="261.675,37.114,259.8242,46.7874,262.8109,41.9833,267.615,44.97,261.675,37.114" style="stroke: #A80036; stroke-width: 1.0;"/><text fill="#000000" font-family="sans-serif" font-size="13" lengthAdjust="spacingAndGlyphs" textLength="61" x="287.5" y="134.0669">«include»</text><!--link 处理还书 to 收取逾期罚金--><path d="M353.127,247.5 C379.707,247.5 414.481,247.5 444.671,247.5 " fill="none" id="处理还书-收取逾期罚金" style="stroke: #A80036; stroke-width: 1.0; stroke-dasharray: 7.0,7.0;"/><polygon fill="#A80036" points="449.862,247.5,440.862,243.5,444.862,247.5,440.862,251.5,449.862,247.5" style="stroke: #A80036; stroke-width: 1.0;"/><text fill="#000000" font-family="sans-serif" font-size="13" lengthAdjust="spacingAndGlyphs" textLength="60" x="371.5" y="240.5669">«extend»</text><!--
@startuml
actor 流通部

流通部 -up-> (登录校书籍系统)
流通部 -up-> (处理借书)
流通部 -right-> (处理还书)
流通部 -down-> (书籍查询)
(处理借书) .up.> (信誉查询):<<include>>
(处理还书) .up.> (信誉查询):<<include>>
(处理还书) .right.> (收取逾期罚金):<<extend>>
@enduml

PlantUML version 1.2019.01(Sat Feb 09 15:32:04 UTC 2019)
(GPL source distribution)
Java Runtime: OpenJDK Runtime Environment
JVM: OpenJDK 64-Bit Server VM
Java Version: 1.8.0_181-8u181-b13-2~deb9u1-b13
Operating System: Linux
OS Version: 3.10.0-957.5.1.el7.x86_64
Default Encoding: UTF-8
Language: en
Country: null
--></g></svg>