<?xml version="1.0" encoding="UTF-8" standalone="no"?><svg xmlns="http://www.w3.org/2000/svg" xmlns:xlink="http://www.w3.org/1999/xlink" contentScriptType="application/ecmascript" contentStyleType="text/css" height="374px" preserveAspectRatio="none" style="width:575px;height:374px;" version="1.1" viewBox="0 0 575 374" width="575px" zoomAndPan="magnify"><defs><filter height="300%" id="ftkj0nkuba67h" width="300%" x="-1" y="-1"><feGaussianBlur result="blurOut" stdDeviation="2.0"/><feColorMatrix in="blurOut" result="blurOut2" type="matrix" values="0 0 0 0 0 0 0 0 0 0 0 0 0 0 0 0 0 0 .4 0"/><feOffset dx="4.0" dy="4.0" in="blurOut2" result="blurOut3"/><feBlend in="SourceGraphic" in2="blurOut3" mode="normal"/></filter></defs><g><!--entity 流通部--><ellipse cx="192.5" cy="200" fill="#FEFECE" filter="url(#ftkj0nkuba67h)" rx="8" ry="8" style="stroke: #A80036; stroke-width: 2.0;"/><path d="M192.5,208 L192.5,235 M179.5,216 L205.5,216 M192.5,235 L179.5,250 M192.5,235 L205.5,250 " fill="none" filter="url(#ftkj0nkuba67h)" style="stroke: #A80036; stroke-width: 2.0;"/><text fill="#000000" font-family="sans-serif" font-size="14" lengthAdjust="spacingAndGlyphs" textLength="42" x="171.5" y="269.9951">流通部</text><ellipse cx="192.7254" cy="113.7451" fill="#FEFECE" filter="url(#ftkj0nkuba67h)" rx="66.7254" ry="15.7451" style="stroke: #A80036; stroke-width: 1.5;"/><text fill="#000000" font-family="sans-serif" font-size="14" lengthAdjust="spacingAndGlyphs" textLength="98" x="143.7254" y="118.3935">登录校书籍系统</text><ellipse cx="48.598" cy="113.5236" fill="#FEFECE" filter="url(#ftkj0nkuba67h)" rx="42.598" ry="14.5236" style="stroke: #A80036; stroke-width: 1.5;"/><text fill="#000000" font-family="sans-serif" font-size="14" lengthAdjust="spacingAndGlyphs" textLength="56" x="20.598" y="118.1721">处理借书</text><ellipse cx="301.598" cy="231.5236" fill="#FEFECE" filter="url(#ftkj0nkuba67h)" rx="42.598" ry="14.5236" style="stroke: #A80036; stroke-width: 1.5;"/><text fill="#000000" font-family="sans-serif" font-size="14" lengthAdjust="spacingAndGlyphs" textLength="56" x="273.598" y="236.1721">处理还书</text><ellipse cx="192.598" cy="348.5236" fill="#FEFECE" filter="url(#ftkj0nkuba67h)" rx="42.598" ry="14.5236" style="stroke: #A80036; stroke-width: 1.5;"/><text fill="#000000" font-family="sans-serif" font-size="14" lengthAdjust="spacingAndGlyphs" textLength="56" x="164.598" y="353.1721">书籍查询</text><ellipse cx="246.598" cy="22.5236" fill="#FEFECE" filter="url(#ftkj0nkuba67h)" rx="42.598" ry="14.5236" style="stroke: #A80036; stroke-width: 1.5;"/><text fill="#000000" font-family="sans-serif" font-size="14" lengthAdjust="spacingAndGlyphs" textLength="56" x="218.598" y="27.1721">信誉查询</text><ellipse cx="502.5143" cy="231.7029" fill="#FEFECE" filter="url(#ftkj0nkuba67h)" rx="61.5143" ry="14.7029" style="stroke: #A80036; stroke-width: 1.5;"/><text fill="#000000" font-family="sans-serif" font-size="14" lengthAdjust="spacingAndGlyphs" textLength="84" x="460.5143" y="236.3513">收取逾期罚金</text><!--link 登录校书籍系统 to 流通部--><path d="M192.5,134.486 C192.5,149.664 192.5,171.049 192.5,189.785 " fill="none" id="登录校书籍系统-流通部" style="stroke: #A80036; stroke-width: 1.0;"/><polygon fill="#A80036" points="192.5,129.191,188.5,138.191,192.5,134.191,196.5,138.191,192.5,129.191" style="stroke: #A80036; stroke-width: 1.0;"/><!--link 处理借书 to 流通部--><path d="M68.3324,130.476 C95.3473,152.238 143.517,191.041 171.25,213.382 " fill="none" id="处理借书-流通部" style="stroke: #A80036; stroke-width: 1.0;"/><polygon fill="#A80036" points="64.1846,127.135,68.683,135.8965,68.078,130.2721,73.7024,129.6671,64.1846,127.135" style="stroke: #A80036; stroke-width: 1.0;"/><!--link 流通部 to 处理还书--><path d="M213.789,231.5 C226.997,231.5 240.205,231.5 253.413,231.5 " fill="none" id="流通部-处理还书" style="stroke: #A80036; stroke-width: 1.0;"/><polygon fill="#A80036" points="258.672,231.5,249.672,227.5,253.672,231.5,249.672,235.5,258.672,231.5" style="stroke: #A80036; stroke-width: 1.0;"/><!--link 流通部 to 书籍查询--><path d="M192.5,273.0447 C192.5,291.9354 192.5,313.5074 192.5,328.5516 " fill="none" id="流通部-书籍查询" style="stroke: #A80036; stroke-width: 1.0;"/><polygon fill="#A80036" points="192.5,333.7817,196.5,324.7817,192.5,328.7817,188.5,324.7817,192.5,333.7817" style="stroke: #A80036; stroke-width: 1.0;"/><!--link 信誉查询 to 处理借书--><path d="M217.611,36.485 C178.561,54.038 109.612,85.031 72.9773,101.498 " fill="none" id="信誉查询-处理借书" style="stroke: #A80036; stroke-width: 1.0; stroke-dasharray: 7.0,7.0;"/><polygon fill="#A80036" points="222.221,34.413,212.3722,34.455,217.6606,36.4632,215.6525,41.7516,222.221,34.413" style="stroke: #A80036; stroke-width: 1.0;"/><!--link 信誉查询 to 处理还书--><path d="M255.008,41.714 C261.664,56.582 270.731,78.282 276.5,98 C288.925,140.463 296.63,192.447 299.812,216.749 " fill="none" id="信誉查询-处理还书" style="stroke: #A80036; stroke-width: 1.0; stroke-dasharray: 7.0,7.0;"/><polygon fill="#A80036" points="252.851,36.946,252.917,46.7946,254.9123,41.5013,260.2056,43.4966,252.851,36.946" style="stroke: #A80036; stroke-width: 1.0;"/><!--link 处理还书 to 收取逾期罚金--><path d="M344.127,231.5 C370.707,231.5 405.481,231.5 435.671,231.5 " fill="none" id="处理还书-收取逾期罚金" style="stroke: #A80036; stroke-width: 1.0; stroke-dasharray: 7.0,7.0;"/><polygon fill="#A80036" points="440.862,231.5,431.862,227.5,435.862,231.5,431.862,235.5,440.862,231.5" style="stroke: #A80036; stroke-width: 1.0;"/><text fill="#000000" font-family="sans-serif" font-size="13" lengthAdjust="spacingAndGlyphs" textLength="60" x="362.5" y="224.5669">«extend»</text><!--
@startuml
actor 流通部

流通部 -up-> (登录校书籍系统)
流通部 -up-> (处理借书)
流通部 -right-> (处理还书)
流通部 -down-> (书籍查询)
(处理借书) .up.> (信誉查询)
(处理还书) .up.> (信誉查询)
(处理还书) .right.> (收取逾期罚金):<<extend>>
@enduml

PlantUML version 1.2019.01(Sat Feb 09 15:32:04 UTC 2019)
(GPL source distribution)
Java Runtime: OpenJDK Runtime Environment
JVM: OpenJDK 64-Bit Server VM
Java Version: 1.8.0_181-8u181-b13-2~deb9u1-b13
Operating System: Linux
OS Version: 3.10.0-957.5.1.el7.x86_64
Default Encoding: UTF-8
Language: en
Country: null
--></g></svg>