<?xml version="1.0" encoding="UTF-8" standalone="no"?><svg xmlns="http://www.w3.org/2000/svg" xmlns:xlink="http://www.w3.org/1999/xlink" contentScriptType="application/ecmascript" contentStyleType="text/css" height="284px" preserveAspectRatio="none" style="width:517px;height:284px;" version="1.1" viewBox="0 0 517 284" width="517px" zoomAndPan="magnify"><defs><filter height="300%" id="f1jzg64as43c28" width="300%" x="-1" y="-1"><feGaussianBlur result="blurOut" stdDeviation="2.0"/><feColorMatrix in="blurOut" result="blurOut2" type="matrix" values="0 0 0 0 0 0 0 0 0 0 0 0 0 0 0 0 0 0 .4 0"/><feOffset dx="4.0" dy="4.0" in="blurOut2" result="blurOut3"/><feBlend in="SourceGraphic" in2="blurOut3" mode="normal"/></filter></defs><g><!--entity 流通部--><ellipse cx="144.5" cy="110" fill="#FEFECE" filter="url(#f1jzg64as43c28)" rx="8" ry="8" style="stroke: #A80036; stroke-width: 2.0;"/><path d="M144.5,118 L144.5,145 M131.5,126 L157.5,126 M144.5,145 L131.5,160 M144.5,145 L157.5,160 " fill="none" filter="url(#f1jzg64as43c28)" style="stroke: #A80036; stroke-width: 2.0;"/><text fill="#000000" font-family="sans-serif" font-size="14" lengthAdjust="spacingAndGlyphs" textLength="42" x="123.5" y="179.9951">流通部</text><ellipse cx="216.598" cy="23.5236" fill="#FEFECE" filter="url(#f1jzg64as43c28)" rx="42.598" ry="14.5236" style="stroke: #A80036; stroke-width: 1.5;"/><text fill="#000000" font-family="sans-serif" font-size="14" lengthAdjust="spacingAndGlyphs" textLength="56" x="188.598" y="28.1721">处理借书</text><ellipse cx="72.7254" cy="23.7451" fill="#FEFECE" filter="url(#f1jzg64as43c28)" rx="66.7254" ry="15.7451" style="stroke: #A80036; stroke-width: 1.5;"/><text fill="#000000" font-family="sans-serif" font-size="14" lengthAdjust="spacingAndGlyphs" textLength="98" x="23.7254" y="28.3935">登录校书籍系统</text><ellipse cx="243.598" cy="141.5236" fill="#FEFECE" filter="url(#f1jzg64as43c28)" rx="42.598" ry="14.5236" style="stroke: #A80036; stroke-width: 1.5;"/><text fill="#000000" font-family="sans-serif" font-size="14" lengthAdjust="spacingAndGlyphs" textLength="56" x="215.598" y="146.1721">处理还书</text><ellipse cx="444.5143" cy="141.7029" fill="#FEFECE" filter="url(#f1jzg64as43c28)" rx="61.5143" ry="14.7029" style="stroke: #A80036; stroke-width: 1.5;"/><text fill="#000000" font-family="sans-serif" font-size="14" lengthAdjust="spacingAndGlyphs" textLength="84" x="402.5143" y="146.3513">收取逾期罚金</text><ellipse cx="144.598" cy="258.5236" fill="#FEFECE" filter="url(#f1jzg64as43c28)" rx="42.598" ry="14.5236" style="stroke: #A80036; stroke-width: 1.5;"/><text fill="#000000" font-family="sans-serif" font-size="14" lengthAdjust="spacingAndGlyphs" textLength="56" x="116.598" y="263.1721">书籍查询</text><!--link 处理借书 to 流通部--><path d="M205.41,42.367 C194.817,59.434 178.578,85.596 165.531,106.617 " fill="none" id="处理借书-流通部" style="stroke: #A80036; stroke-width: 1.0;"/><polygon fill="#A80036" points="208.241,37.807,200.0961,43.3442,205.6041,42.0552,206.8931,47.5632,208.241,37.807" style="stroke: #A80036; stroke-width: 1.0;"/><!--link 登录校书籍系统 to 流通部--><path d="M84.4601,43.769 C95.0366,60.809 110.712,86.063 123.393,106.495 " fill="none" id="登录校书籍系统-流通部" style="stroke: #A80036; stroke-width: 1.0;"/><polygon fill="#A80036" points="81.6188,39.191,82.967,48.9471,84.2558,43.4391,89.7639,44.7279,81.6188,39.191" style="stroke: #A80036; stroke-width: 1.0;"/><!--link 流通部 to 处理还书--><path d="M165.77,141.5 C175.767,141.5 185.765,141.5 195.763,141.5 " fill="none" id="流通部-处理还书" style="stroke: #A80036; stroke-width: 1.0;"/><polygon fill="#A80036" points="200.991,141.5,191.991,137.5,195.991,141.5,191.991,145.5,200.991,141.5" style="stroke: #A80036; stroke-width: 1.0;"/><!--link 处理还书 to 收取逾期罚金--><path d="M286.127,141.5 C312.707,141.5 347.481,141.5 377.671,141.5 " fill="none" id="处理还书-收取逾期罚金" style="stroke: #A80036; stroke-width: 1.0; stroke-dasharray: 7.0,7.0;"/><polygon fill="#A80036" points="382.862,141.5,373.862,137.5,377.862,141.5,373.862,145.5,382.862,141.5" style="stroke: #A80036; stroke-width: 1.0;"/><text fill="#000000" font-family="sans-serif" font-size="13" lengthAdjust="spacingAndGlyphs" textLength="60" x="304.5" y="134.5669">«extend»</text><!--link 流通部 to 书籍查询--><path d="M144.5,183.0447 C144.5,201.9354 144.5,223.5074 144.5,238.5516 " fill="none" id="流通部-书籍查询" style="stroke: #A80036; stroke-width: 1.0;"/><polygon fill="#A80036" points="144.5,243.7817,148.5,234.7817,144.5,238.7817,140.5,234.7817,144.5,243.7817" style="stroke: #A80036; stroke-width: 1.0;"/><!--
@startuml
actor 流通部

流通部 -up-> (处理借书)
流通部 -up-> (登录校书籍系统)
流通部 -right-> (处理还书)
(处理还书) .right.> (收取逾期罚金):<<extend>>
流通部 -down-> (书籍查询)
@enduml

PlantUML version 1.2019.01(Sat Feb 09 15:32:04 UTC 2019)
(GPL source distribution)
Java Runtime: OpenJDK Runtime Environment
JVM: OpenJDK 64-Bit Server VM
Java Version: 1.8.0_181-8u181-b13-2~deb9u1-b13
Operating System: Linux
OS Version: 3.10.0-957.5.1.el7.x86_64
Default Encoding: UTF-8
Language: en
Country: null
--></g></svg>