<?xml version="1.0" encoding="UTF-8" standalone="no"?><svg xmlns="http://www.w3.org/2000/svg" xmlns:xlink="http://www.w3.org/1999/xlink" contentScriptType="application/ecmascript" contentStyleType="text/css" height="390px" preserveAspectRatio="none" style="width:567px;height:390px;" version="1.1" viewBox="0 0 567 390" width="567px" zoomAndPan="magnify"><defs><filter height="300%" id="f25azp4wj598e" width="300%" x="-1" y="-1"><feGaussianBlur result="blurOut" stdDeviation="2.0"/><feColorMatrix in="blurOut" result="blurOut2" type="matrix" values="0 0 0 0 0 0 0 0 0 0 0 0 0 0 0 0 0 0 .4 0"/><feOffset dx="4.0" dy="4.0" in="blurOut2" result="blurOut3"/><feBlend in="SourceGraphic" in2="blurOut3" mode="normal"/></filter></defs><g><!--entity 流通部--><ellipse cx="192.5" cy="214" fill="#FEFECE" filter="url(#f25azp4wj598e)" rx="8" ry="8" style="stroke: #A80036; stroke-width: 2.0;"/><path d="M192.5,222 L192.5,249 M179.5,230 L205.5,230 M192.5,249 L179.5,264 M192.5,249 L205.5,264 " fill="none" filter="url(#f25azp4wj598e)" style="stroke: #A80036; stroke-width: 2.0;"/><text fill="#000000" font-family="sans-serif" font-size="14" lengthAdjust="spacingAndGlyphs" textLength="42" x="171.5" y="283.9951">流通部</text><ellipse cx="187.598" cy="128.5236" fill="#FEFECE" filter="url(#f25azp4wj598e)" rx="42.598" ry="14.5236" style="stroke: #A80036; stroke-width: 1.5;"/><text fill="#000000" font-family="sans-serif" font-size="14" lengthAdjust="spacingAndGlyphs" textLength="56" x="159.598" y="133.1721">处理借书</text><ellipse cx="293.598" cy="245.5236" fill="#FEFECE" filter="url(#f25azp4wj598e)" rx="42.598" ry="14.5236" style="stroke: #A80036; stroke-width: 1.5;"/><text fill="#000000" font-family="sans-serif" font-size="14" lengthAdjust="spacingAndGlyphs" textLength="56" x="265.598" y="250.1721">处理还书</text><ellipse cx="48.598" cy="363.5236" fill="#FEFECE" filter="url(#f25azp4wj598e)" rx="42.598" ry="14.5236" style="stroke: #A80036; stroke-width: 1.5;"/><text fill="#000000" font-family="sans-serif" font-size="14" lengthAdjust="spacingAndGlyphs" textLength="56" x="20.598" y="368.1721">书籍查询</text><ellipse cx="192.7254" cy="363.7451" fill="#FEFECE" filter="url(#f25azp4wj598e)" rx="66.7254" ry="15.7451" style="stroke: #A80036; stroke-width: 1.5;"/><text fill="#000000" font-family="sans-serif" font-size="14" lengthAdjust="spacingAndGlyphs" textLength="98" x="143.7254" y="368.3935">登录校书籍系统</text><ellipse cx="355.5143" cy="363.7029" fill="#FEFECE" filter="url(#f25azp4wj598e)" rx="61.5143" ry="14.7029" style="stroke: #A80036; stroke-width: 1.5;"/><text fill="#000000" font-family="sans-serif" font-size="14" lengthAdjust="spacingAndGlyphs" textLength="84" x="313.5143" y="368.3513">查询用户信息</text><ellipse cx="256.598" cy="22.5236" fill="#FEFECE" filter="url(#f25azp4wj598e)" rx="42.598" ry="14.5236" style="stroke: #A80036; stroke-width: 1.5;"/><text fill="#000000" font-family="sans-serif" font-size="14" lengthAdjust="spacingAndGlyphs" textLength="56" x="228.598" y="27.1721">信誉查询</text><ellipse cx="494.5143" cy="245.7029" fill="#FEFECE" filter="url(#f25azp4wj598e)" rx="61.5143" ry="14.7029" style="stroke: #A80036; stroke-width: 1.5;"/><text fill="#000000" font-family="sans-serif" font-size="14" lengthAdjust="spacingAndGlyphs" textLength="84" x="452.5143" y="250.3513">收取逾期罚金</text><!--link 处理借书 to 流通部--><path d="M188.321,148.375 C188.975,163.429 189.915,185.052 190.738,203.979 " fill="none" id="处理借书-流通部" style="stroke: #A80036; stroke-width: 1.0;"/><polygon fill="#A80036" points="188.093,143.144,184.4876,152.3092,188.3101,148.1393,192.4801,151.9618,188.093,143.144" style="stroke: #A80036; stroke-width: 1.0;"/><!--link 流通部 to 处理还书--><path d="M213.805,245.5 C224.417,245.5 235.029,245.5 245.641,245.5 " fill="none" id="流通部-处理还书" style="stroke: #A80036; stroke-width: 1.0;"/><polygon fill="#A80036" points="250.851,245.5,241.851,241.5,245.851,245.5,241.851,249.5,250.851,245.5" style="stroke: #A80036; stroke-width: 1.0;"/><!--link 流通部 to 书籍查询--><path d="M171.252,263.616 C143.478,285.9896 95.2046,324.8769 68.2118,346.621 " fill="none" id="流通部-书籍查询" style="stroke: #A80036; stroke-width: 1.0;"/><polygon fill="#A80036" points="64.0688,349.9585,73.5869,347.4274,67.9625,346.8218,68.5681,341.1974,64.0688,349.9585" style="stroke: #A80036; stroke-width: 1.0;"/><!--link 流通部 to 登录校书籍系统--><path d="M192.5,287.0712 C192.5,305.8078 192.5,327.2195 192.5,342.4312 " fill="none" id="流通部-登录校书籍系统" style="stroke: #A80036; stroke-width: 1.0;"/><polygon fill="#A80036" points="192.5,347.7386,196.5,338.7386,192.5,342.7386,188.5,338.7386,192.5,347.7386" style="stroke: #A80036; stroke-width: 1.0;"/><!--link 流通部 to 查询用户信息--><path d="M213.782,269.32 C219.892,275.362 226.738,281.6789 233.5,287 C263.721,310.7816 301.863,333.3389 327.381,347.4989 " fill="none" id="流通部-查询用户信息" style="stroke: #A80036; stroke-width: 1.0;"/><polygon fill="#A80036" points="331.994,350.0436,326.0464,342.1934,327.6162,347.6281,322.1815,349.1979,331.994,350.0436" style="stroke: #A80036; stroke-width: 1.0;"/><!--link 信誉查询 to 处理借书--><path d="M236.166,39.765 C227.683,47.345 218.254,56.913 211.5,67 C201.693,81.647 194.926,100.909 191.136,113.723 " fill="none" id="信誉查询-处理借书" style="stroke: #A80036; stroke-width: 1.0; stroke-dasharray: 7.0,7.0;"/><polygon fill="#A80036" points="240.239,36.21,230.8284,39.1154,236.4723,39.4982,236.0895,45.1421,240.239,36.21" style="stroke: #A80036; stroke-width: 1.0;"/><text fill="#000000" font-family="sans-serif" font-size="13" lengthAdjust="spacingAndGlyphs" textLength="61" x="212.5" y="80.0669">«include»</text><!--link 信誉查询 to 处理还书--><path d="M267.597,41.562 C271.729,49.149 276.015,58.235 278.5,67 C295.287,126.209 295.039,200.623 294.097,230.825 " fill="none" id="信誉查询-处理还书" style="stroke: #A80036; stroke-width: 1.0; stroke-dasharray: 7.0,7.0;"/><polygon fill="#A80036" points="265.061,37.048,265.9803,46.8539,267.5093,41.4076,272.9556,42.9365,265.061,37.048" style="stroke: #A80036; stroke-width: 1.0;"/><text fill="#000000" font-family="sans-serif" font-size="13" lengthAdjust="spacingAndGlyphs" textLength="61" x="293.5" y="133.0669">«include»</text><!--link 处理还书 to 收取逾期罚金--><path d="M336.127,245.5 C362.707,245.5 397.481,245.5 427.671,245.5 " fill="none" id="处理还书-收取逾期罚金" style="stroke: #A80036; stroke-width: 1.0; stroke-dasharray: 7.0,7.0;"/><polygon fill="#A80036" points="432.862,245.5,423.862,241.5,427.862,245.5,423.862,249.5,432.862,245.5" style="stroke: #A80036; stroke-width: 1.0;"/><text fill="#000000" font-family="sans-serif" font-size="13" lengthAdjust="spacingAndGlyphs" textLength="60" x="354.5" y="238.5669">«extend»</text><!--
@startuml
actor 流通部


流通部 -up-> (处理借书)
流通部 -right-> (处理还书)
流通部 -down-> (书籍查询)
流通部 -down-> (登录校书籍系统)
流通部 -down-> (查询用户信息)
(处理借书) .up.> (信誉查询):<<include>>
(处理还书) .up.> (信誉查询):<<include>>
(处理还书) .right.> (收取逾期罚金):<<extend>>
@enduml

PlantUML version 1.2019.01(Sat Feb 09 15:32:04 UTC 2019)
(GPL source distribution)
Java Runtime: OpenJDK Runtime Environment
JVM: OpenJDK 64-Bit Server VM
Java Version: 1.8.0_181-8u181-b13-2~deb9u1-b13
Operating System: Linux
OS Version: 3.10.0-957.5.1.el7.x86_64
Default Encoding: UTF-8
Language: en
Country: null
--></g></svg>