<?xml version="1.0" encoding="UTF-8" standalone="no"?><svg xmlns="http://www.w3.org/2000/svg" xmlns:xlink="http://www.w3.org/1999/xlink" contentScriptType="application/ecmascript" contentStyleType="text/css" height="565px" preserveAspectRatio="none" style="width:908px;height:565px;" version="1.1" viewBox="0 0 908 565" width="908px" zoomAndPan="magnify"><defs><filter height="300%" id="fz2h7qrwh6ysg" width="300%" x="-1" y="-1"><feGaussianBlur result="blurOut" stdDeviation="2.0"/><feColorMatrix in="blurOut" result="blurOut2" type="matrix" values="0 0 0 0 0 0 0 0 0 0 0 0 0 0 0 0 0 0 .4 0"/><feOffset dx="4.0" dy="4.0" in="blurOut2" result="blurOut3"/><feBlend in="SourceGraphic" in2="blurOut3" mode="normal"/></filter></defs><g><rect fill="#FFFFFF" filter="url(#fz2h7qrwh6ysg)" height="467.9922" style="stroke: #A80036; stroke-width: 1.0;" width="10" x="26" y="48.2969"/><rect fill="#FFFFFF" filter="url(#fz2h7qrwh6ysg)" height="446.8594" style="stroke: #A80036; stroke-width: 1.0;" width="10" x="229" y="69.4297"/><rect fill="#FFFFFF" filter="url(#fz2h7qrwh6ysg)" height="87.3984" style="stroke: #A80036; stroke-width: 1.0;" width="10" x="367" y="98.5625"/><rect fill="#FFFFFF" filter="url(#fz2h7qrwh6ysg)" height="29.1328" style="stroke: #A80036; stroke-width: 1.0;" width="10" x="500" y="127.6953"/><rect fill="#FFFFFF" filter="url(#fz2h7qrwh6ysg)" height="29.1328" style="stroke: #A80036; stroke-width: 1.0;" width="10" x="500" y="331.625"/><rect fill="#FFFFFF" filter="url(#fz2h7qrwh6ysg)" height="29.1328" style="stroke: #A80036; stroke-width: 1.0;" width="10" x="612" y="215.0938"/><rect fill="#FFFFFF" filter="url(#fz2h7qrwh6ysg)" height="88.2656" style="stroke: #A80036; stroke-width: 1.0;" width="10" x="710" y="389.8906"/><rect fill="#FFFFFF" filter="url(#fz2h7qrwh6ysg)" height="30" style="stroke: #A80036; stroke-width: 1.0;" width="10" x="852" y="419.0234"/><line style="stroke: #A80036; stroke-width: 1.0; stroke-dasharray: 5.0,5.0;" x1="31" x2="31" y1="38.2969" y2="525.2891"/><line style="stroke: #A80036; stroke-width: 1.0; stroke-dasharray: 5.0,5.0;" x1="234" x2="234" y1="38.2969" y2="525.2891"/><line style="stroke: #A80036; stroke-width: 1.0; stroke-dasharray: 5.0,5.0;" x1="372" x2="372" y1="38.2969" y2="525.2891"/><line style="stroke: #A80036; stroke-width: 1.0; stroke-dasharray: 5.0,5.0;" x1="505" x2="505" y1="38.2969" y2="525.2891"/><line style="stroke: #A80036; stroke-width: 1.0; stroke-dasharray: 5.0,5.0;" x1="617" x2="617" y1="38.2969" y2="525.2891"/><line style="stroke: #A80036; stroke-width: 1.0; stroke-dasharray: 5.0,5.0;" x1="715" x2="715" y1="38.2969" y2="525.2891"/><line style="stroke: #A80036; stroke-width: 1.0; stroke-dasharray: 5.0,5.0;" x1="857" x2="857" y1="38.2969" y2="525.2891"/><rect fill="#FEFECE" filter="url(#fz2h7qrwh6ysg)" height="30.2969" style="stroke: #A80036; stroke-width: 1.5;" width="42" x="8" y="3"/><text fill="#000000" font-family="sans-serif" font-size="14" lengthAdjust="spacingAndGlyphs" textLength="28" x="15" y="22.9951">用户</text><rect fill="#FEFECE" filter="url(#fz2h7qrwh6ysg)" height="30.2969" style="stroke: #A80036; stroke-width: 1.5;" width="42" x="8" y="524.2891"/><text fill="#000000" font-family="sans-serif" font-size="14" lengthAdjust="spacingAndGlyphs" textLength="28" x="15" y="544.2842">用户</text><rect fill="#FEFECE" filter="url(#fz2h7qrwh6ysg)" height="30.2969" style="stroke: #A80036; stroke-width: 1.5;" width="70" x="197" y="3"/><text fill="#000000" font-family="sans-serif" font-size="14" lengthAdjust="spacingAndGlyphs" textLength="56" x="204" y="22.9951">寄件界面</text><rect fill="#FEFECE" filter="url(#fz2h7qrwh6ysg)" height="30.2969" style="stroke: #A80036; stroke-width: 1.5;" width="70" x="197" y="524.2891"/><text fill="#000000" font-family="sans-serif" font-size="14" lengthAdjust="spacingAndGlyphs" textLength="56" x="204" y="544.2842">寄件界面</text><rect fill="#FEFECE" filter="url(#fz2h7qrwh6ysg)" height="30.2969" style="stroke: #A80036; stroke-width: 1.5;" width="70" x="335" y="3"/><text fill="#000000" font-family="sans-serif" font-size="14" lengthAdjust="spacingAndGlyphs" textLength="56" x="342" y="22.9951">网点表单</text><rect fill="#FEFECE" filter="url(#fz2h7qrwh6ysg)" height="30.2969" style="stroke: #A80036; stroke-width: 1.5;" width="70" x="335" y="524.2891"/><text fill="#000000" font-family="sans-serif" font-size="14" lengthAdjust="spacingAndGlyphs" textLength="56" x="342" y="544.2842">网点表单</text><rect fill="#FEFECE" filter="url(#fz2h7qrwh6ysg)" height="30.2969" style="stroke: #A80036; stroke-width: 1.5;" width="98" x="454" y="3"/><text fill="#000000" font-family="sans-serif" font-size="14" lengthAdjust="spacingAndGlyphs" textLength="84" x="461" y="22.9951">快递柜服务器</text><rect fill="#FEFECE" filter="url(#fz2h7qrwh6ysg)" height="30.2969" style="stroke: #A80036; stroke-width: 1.5;" width="98" x="454" y="524.2891"/><text fill="#000000" font-family="sans-serif" font-size="14" lengthAdjust="spacingAndGlyphs" textLength="84" x="461" y="544.2842">快递柜服务器</text><rect fill="#FEFECE" filter="url(#fz2h7qrwh6ysg)" height="30.2969" style="stroke: #A80036; stroke-width: 1.5;" width="98" x="566" y="3"/><text fill="#000000" font-family="sans-serif" font-size="14" lengthAdjust="spacingAndGlyphs" textLength="84" x="573" y="22.9951">快递公司清单</text><rect fill="#FEFECE" filter="url(#fz2h7qrwh6ysg)" height="30.2969" style="stroke: #A80036; stroke-width: 1.5;" width="98" x="566" y="524.2891"/><text fill="#000000" font-family="sans-serif" font-size="14" lengthAdjust="spacingAndGlyphs" textLength="84" x="573" y="544.2842">快递公司清单</text><rect fill="#FEFECE" filter="url(#fz2h7qrwh6ysg)" height="30.2969" style="stroke: #A80036; stroke-width: 1.5;" width="70" x="678" y="3"/><text fill="#000000" font-family="sans-serif" font-size="14" lengthAdjust="spacingAndGlyphs" textLength="56" x="685" y="22.9951">快递公司</text><rect fill="#FEFECE" filter="url(#fz2h7qrwh6ysg)" height="30.2969" style="stroke: #A80036; stroke-width: 1.5;" width="70" x="678" y="524.2891"/><text fill="#000000" font-family="sans-serif" font-size="14" lengthAdjust="spacingAndGlyphs" textLength="56" x="685" y="544.2842">快递公司</text><rect fill="#FEFECE" filter="url(#fz2h7qrwh6ysg)" height="30.2969" style="stroke: #A80036; stroke-width: 1.5;" width="84" x="813" y="3"/><text fill="#000000" font-family="sans-serif" font-size="14" lengthAdjust="spacingAndGlyphs" textLength="70" x="820" y="22.9951">待取件列表</text><rect fill="#FEFECE" filter="url(#fz2h7qrwh6ysg)" height="30.2969" style="stroke: #A80036; stroke-width: 1.5;" width="84" x="813" y="524.2891"/><text fill="#000000" font-family="sans-serif" font-size="14" lengthAdjust="spacingAndGlyphs" textLength="70" x="820" y="544.2842">待取件列表</text><rect fill="#FFFFFF" filter="url(#fz2h7qrwh6ysg)" height="467.9922" style="stroke: #A80036; stroke-width: 1.0;" width="10" x="26" y="48.2969"/><rect fill="#FFFFFF" filter="url(#fz2h7qrwh6ysg)" height="446.8594" style="stroke: #A80036; stroke-width: 1.0;" width="10" x="229" y="69.4297"/><rect fill="#FFFFFF" filter="url(#fz2h7qrwh6ysg)" height="87.3984" style="stroke: #A80036; stroke-width: 1.0;" width="10" x="367" y="98.5625"/><rect fill="#FFFFFF" filter="url(#fz2h7qrwh6ysg)" height="29.1328" style="stroke: #A80036; stroke-width: 1.0;" width="10" x="500" y="127.6953"/><rect fill="#FFFFFF" filter="url(#fz2h7qrwh6ysg)" height="29.1328" style="stroke: #A80036; stroke-width: 1.0;" width="10" x="500" y="331.625"/><rect fill="#FFFFFF" filter="url(#fz2h7qrwh6ysg)" height="29.1328" style="stroke: #A80036; stroke-width: 1.0;" width="10" x="612" y="215.0938"/><rect fill="#FFFFFF" filter="url(#fz2h7qrwh6ysg)" height="88.2656" style="stroke: #A80036; stroke-width: 1.0;" width="10" x="710" y="389.8906"/><rect fill="#FFFFFF" filter="url(#fz2h7qrwh6ysg)" height="30" style="stroke: #A80036; stroke-width: 1.0;" width="10" x="852" y="419.0234"/><polygon fill="#A80036" points="217,65.4297,227,69.4297,217,73.4297,221,69.4297" style="stroke: #A80036; stroke-width: 1.0;"/><line style="stroke: #A80036; stroke-width: 1.0;" x1="36" x2="223" y1="69.4297" y2="69.4297"/><text fill="#000000" font-family="sans-serif" font-size="13" font-weight="bold" lengthAdjust="spacingAndGlyphs" textLength="9" x="43" y="64.3638">1</text><text fill="#000000" font-family="sans-serif" font-size="13" lengthAdjust="spacingAndGlyphs" textLength="52" x="56" y="64.3638">请求寄件</text><polygon fill="#A80036" points="355,94.5625,365,98.5625,355,102.5625,359,98.5625" style="stroke: #A80036; stroke-width: 1.0;"/><line style="stroke: #A80036; stroke-width: 1.0;" x1="239" x2="361" y1="98.5625" y2="98.5625"/><text fill="#000000" font-family="sans-serif" font-size="13" font-weight="bold" lengthAdjust="spacingAndGlyphs" textLength="9" x="246" y="93.4966">2</text><text fill="#000000" font-family="sans-serif" font-size="13" lengthAdjust="spacingAndGlyphs" textLength="91" x="259" y="93.4966">请求可寄件网点</text><polygon fill="#A80036" points="488,123.6953,498,127.6953,488,131.6953,492,127.6953" style="stroke: #A80036; stroke-width: 1.0;"/><line style="stroke: #A80036; stroke-width: 1.0;" x1="377" x2="494" y1="127.6953" y2="127.6953"/><text fill="#000000" font-family="sans-serif" font-size="13" font-weight="bold" lengthAdjust="spacingAndGlyphs" textLength="9" x="384" y="122.6294">3</text><text fill="#000000" font-family="sans-serif" font-size="13" lengthAdjust="spacingAndGlyphs" textLength="91" x="397" y="122.6294">请求快递柜状态</text><polygon fill="#A80036" points="388,152.8281,378,156.8281,388,160.8281,384,156.8281" style="stroke: #A80036; stroke-width: 1.0;"/><line style="stroke: #A80036; stroke-width: 1.0; stroke-dasharray: 2.0,2.0;" x1="382" x2="504" y1="156.8281" y2="156.8281"/><text fill="#000000" font-family="sans-serif" font-size="13" font-weight="bold" lengthAdjust="spacingAndGlyphs" textLength="9" x="394" y="151.7622">4</text><text fill="#000000" font-family="sans-serif" font-size="13" lengthAdjust="spacingAndGlyphs" textLength="65" x="407" y="151.7622">快递柜状态</text><polygon fill="#A80036" points="250,181.9609,240,185.9609,250,189.9609,246,185.9609" style="stroke: #A80036; stroke-width: 1.0;"/><line style="stroke: #A80036; stroke-width: 1.0; stroke-dasharray: 2.0,2.0;" x1="244" x2="371" y1="185.9609" y2="185.9609"/><text fill="#000000" font-family="sans-serif" font-size="13" font-weight="bold" lengthAdjust="spacingAndGlyphs" textLength="9" x="256" y="180.895">5</text><text fill="#000000" font-family="sans-serif" font-size="13" lengthAdjust="spacingAndGlyphs" textLength="91" x="269" y="180.895">可寄件网点名单</text><polygon fill="#A80036" points="600,211.0938,610,215.0938,600,219.0938,604,215.0938" style="stroke: #A80036; stroke-width: 1.0;"/><line style="stroke: #A80036; stroke-width: 1.0;" x1="239" x2="606" y1="215.0938" y2="215.0938"/><text fill="#000000" font-family="sans-serif" font-size="13" font-weight="bold" lengthAdjust="spacingAndGlyphs" textLength="9" x="246" y="210.0278">6</text><text fill="#000000" font-family="sans-serif" font-size="13" lengthAdjust="spacingAndGlyphs" textLength="117" x="259" y="210.0278">请求可取件公司表单</text><polygon fill="#A80036" points="250,240.2266,240,244.2266,250,248.2266,246,244.2266" style="stroke: #A80036; stroke-width: 1.0;"/><line style="stroke: #A80036; stroke-width: 1.0; stroke-dasharray: 2.0,2.0;" x1="244" x2="616" y1="244.2266" y2="244.2266"/><text fill="#000000" font-family="sans-serif" font-size="13" font-weight="bold" lengthAdjust="spacingAndGlyphs" textLength="9" x="256" y="239.1606">7</text><text fill="#000000" font-family="sans-serif" font-size="13" lengthAdjust="spacingAndGlyphs" textLength="234" x="269" y="239.1606">可取件快递公司以及其需要的寄件信息单</text><polygon fill="#A80036" points="47,269.3594,37,273.3594,47,277.3594,43,273.3594" style="stroke: #A80036; stroke-width: 1.0;"/><line style="stroke: #A80036; stroke-width: 1.0; stroke-dasharray: 2.0,2.0;" x1="41" x2="228" y1="273.3594" y2="273.3594"/><text fill="#000000" font-family="sans-serif" font-size="13" font-weight="bold" lengthAdjust="spacingAndGlyphs" textLength="9" x="53" y="268.2935">8</text><text fill="#000000" font-family="sans-serif" font-size="13" lengthAdjust="spacingAndGlyphs" textLength="156" x="66" y="268.2935">可取件快递公司及其寄件单</text><polygon fill="#A80036" points="217,298.4922,227,302.4922,217,306.4922,221,302.4922" style="stroke: #A80036; stroke-width: 1.0;"/><line style="stroke: #A80036; stroke-width: 1.0;" x1="36" x2="223" y1="302.4922" y2="302.4922"/><text fill="#000000" font-family="sans-serif" font-size="13" font-weight="bold" lengthAdjust="spacingAndGlyphs" textLength="9" x="43" y="297.4263">9</text><text fill="#000000" font-family="sans-serif" font-size="13" lengthAdjust="spacingAndGlyphs" textLength="78" x="56" y="297.4263">提交寄件信息</text><polygon fill="#A80036" points="488,327.625,498,331.625,488,335.625,492,331.625" style="stroke: #A80036; stroke-width: 1.0;"/><line style="stroke: #A80036; stroke-width: 1.0;" x1="239" x2="494" y1="331.625" y2="331.625"/><text fill="#000000" font-family="sans-serif" font-size="13" font-weight="bold" lengthAdjust="spacingAndGlyphs" textLength="18" x="246" y="326.5591">10</text><text fill="#000000" font-family="sans-serif" font-size="13" lengthAdjust="spacingAndGlyphs" textLength="91" x="268" y="326.5591">请求分配快递柜</text><polygon fill="#A80036" points="250,356.7578,240,360.7578,250,364.7578,246,360.7578" style="stroke: #A80036; stroke-width: 1.0;"/><line style="stroke: #A80036; stroke-width: 1.0; stroke-dasharray: 2.0,2.0;" x1="244" x2="504" y1="360.7578" y2="360.7578"/><text fill="#000000" font-family="sans-serif" font-size="13" font-weight="bold" lengthAdjust="spacingAndGlyphs" textLength="18" x="256" y="355.6919">11</text><text fill="#000000" font-family="sans-serif" font-size="13" lengthAdjust="spacingAndGlyphs" textLength="65" x="278" y="355.6919">返回开柜码</text><polygon fill="#A80036" points="698,385.8906,708,389.8906,698,393.8906,702,389.8906" style="stroke: #A80036; stroke-width: 1.0;"/><line style="stroke: #A80036; stroke-width: 1.0;" x1="239" x2="704" y1="389.8906" y2="389.8906"/><text fill="#000000" font-family="sans-serif" font-size="13" font-weight="bold" lengthAdjust="spacingAndGlyphs" textLength="18" x="246" y="384.8247">12</text><text fill="#000000" font-family="sans-serif" font-size="13" lengthAdjust="spacingAndGlyphs" textLength="143" x="268" y="384.8247">提交用户寄件请求及表单</text><polygon fill="#A80036" points="840,415.0234,850,419.0234,840,423.0234,844,419.0234" style="stroke: #A80036; stroke-width: 1.0;"/><line style="stroke: #A80036; stroke-width: 1.0;" x1="720" x2="846" y1="419.0234" y2="419.0234"/><text fill="#000000" font-family="sans-serif" font-size="13" font-weight="bold" lengthAdjust="spacingAndGlyphs" textLength="18" x="727" y="413.9575">13</text><text fill="#000000" font-family="sans-serif" font-size="13" lengthAdjust="spacingAndGlyphs" textLength="91" x="749" y="413.9575">写入待取件状态</text><polygon fill="#A80036" points="250,474.1563,240,478.1563,250,482.1563,246,478.1563" style="stroke: #A80036; stroke-width: 1.0;"/><line style="stroke: #A80036; stroke-width: 1.0; stroke-dasharray: 2.0,2.0;" x1="244" x2="714" y1="478.1563" y2="478.1563"/><text fill="#000000" font-family="sans-serif" font-size="13" font-weight="bold" lengthAdjust="spacingAndGlyphs" textLength="18" x="256" y="473.0903">14</text><text fill="#000000" font-family="sans-serif" font-size="13" lengthAdjust="spacingAndGlyphs" textLength="52" x="278" y="473.0903">确认信息</text><polygon fill="#A80036" points="47,503.2891,37,507.2891,47,511.2891,43,507.2891" style="stroke: #A80036; stroke-width: 1.0;"/><line style="stroke: #A80036; stroke-width: 1.0; stroke-dasharray: 2.0,2.0;" x1="41" x2="228" y1="507.2891" y2="507.2891"/><text fill="#000000" font-family="sans-serif" font-size="13" font-weight="bold" lengthAdjust="spacingAndGlyphs" textLength="18" x="53" y="502.2231">15</text><text fill="#000000" font-family="sans-serif" font-size="13" lengthAdjust="spacingAndGlyphs" textLength="130" x="75" y="502.2231">返回寄件状态及开柜码</text><!--
@startuml
autonumber

activate 用户
用户 -> 寄件界面: 请求寄件
activate 寄件界面
寄件界面 -> 网点表单: 请求可寄件网点
activate 网点表单
网点表单 -> 快递柜服务器: 请求快递柜状态
activate 快递柜服务器
快递柜服务器 - -> 网点表单: 快递柜状态
deactivate 快递柜服务器
网点表单 - -> 寄件界面: 可寄件网点名单 
deactivate 网点表单
寄件界面 -> 快递公司清单: 请求可取件公司表单
activate 快递公司清单
快递公司清单 - -> 寄件界面: 可取件快递公司以及其需要的寄件信息单
deactivate 快递公司清单
寄件界面 - -> 用户: 可取件快递公司及其寄件单
用户 -> 寄件界面: 提交寄件信息
寄件界面 -> 快递柜服务器: 请求分配快递柜
activate 快递柜服务器
快递柜服务器 - -> 寄件界面: 返回开柜码
deactivate 快递柜服务器
寄件界面 -> 快递公司: 提交用户寄件请求及表单
activate 快递公司
快递公司 -> 待取件列表: 写入待取件状态
activate 待取件列表
deactivate 待取件列表
快递公司 - -> 寄件界面: 确认信息
deactivate 快递公司
寄件界面 - -> 用户: 返回寄件状态及开柜码
@enduml

PlantUML version 1.2019.01(Sat Feb 09 15:32:04 UTC 2019)
(GPL source distribution)
Java Runtime: OpenJDK Runtime Environment
JVM: OpenJDK 64-Bit Server VM
Java Version: 1.8.0_181-8u181-b13-2~deb9u1-b13
Operating System: Linux
OS Version: 3.10.0-957.5.1.el7.x86_64
Default Encoding: UTF-8
Language: en
Country: null
--></g></svg>