<?xml version="1.0" encoding="UTF-8" standalone="no"?><svg xmlns="http://www.w3.org/2000/svg" xmlns:xlink="http://www.w3.org/1999/xlink" contentScriptType="application/ecmascript" contentStyleType="text/css" height="360px" preserveAspectRatio="none" style="width:333px;height:360px;" version="1.1" viewBox="0 0 333 360" width="333px" zoomAndPan="magnify"><defs><filter height="300%" id="f1jcurg0lf6vjv" width="300%" x="-1" y="-1"><feGaussianBlur result="blurOut" stdDeviation="2.0"/><feColorMatrix in="blurOut" result="blurOut2" type="matrix" values="0 0 0 0 0 0 0 0 0 0 0 0 0 0 0 0 0 0 .4 0"/><feOffset dx="4.0" dy="4.0" in="blurOut2" result="blurOut3"/><feBlend in="SourceGraphic" in2="blurOut3" mode="normal"/></filter></defs><g><ellipse cx="163" cy="20" fill="#000000" filter="url(#f1jcurg0lf6vjv)" rx="10" ry="10" style="stroke: none; stroke-width: 1.0;"/><rect fill="#FEFECE" filter="url(#f1jcurg0lf6vjv)" height="33.9688" rx="12.5" ry="12.5" style="stroke: #A80036; stroke-width: 1.5;" width="68" x="129" y="50"/><text fill="#000000" font-family="sans-serif" font-size="12" lengthAdjust="spacingAndGlyphs" textLength="48" x="139" y="71.1387">输入账号</text><rect fill="#FEFECE" filter="url(#f1jcurg0lf6vjv)" height="33.9688" rx="12.5" ry="12.5" style="stroke: #A80036; stroke-width: 1.5;" width="68" x="129" y="103.9688"/><text fill="#000000" font-family="sans-serif" font-size="12" lengthAdjust="spacingAndGlyphs" textLength="48" x="139" y="125.1074">输入密码</text><rect fill="#FEFECE" filter="url(#f1jcurg0lf6vjv)" height="33.9688" rx="12.5" ry="12.5" style="stroke: #A80036; stroke-width: 1.5;" width="68" x="129" y="157.9375"/><text fill="#000000" font-family="sans-serif" font-size="12" lengthAdjust="spacingAndGlyphs" textLength="48" x="139" y="179.0762">系统验证</text><polygon fill="#FEFECE" filter="url(#f1jcurg0lf6vjv)" points="141,211.9063,185,211.9063,197,223.9063,185,235.9063,141,235.9063,129,223.9063,141,211.9063" style="stroke: #A80036; stroke-width: 1.5;"/><text fill="#000000" font-family="sans-serif" font-size="11" lengthAdjust="spacingAndGlyphs" textLength="44" x="141" y="227.7144">验证通过</text><text fill="#000000" font-family="sans-serif" font-size="11" lengthAdjust="spacingAndGlyphs" textLength="11" x="118" y="221.312">是</text><text fill="#000000" font-family="sans-serif" font-size="11" lengthAdjust="spacingAndGlyphs" textLength="11" x="197" y="221.312">否</text><rect fill="#FEFECE" filter="url(#f1jcurg0lf6vjv)" height="33.9688" rx="12.5" ry="12.5" style="stroke: #A80036; stroke-width: 1.5;" width="140" x="10" y="245.9063"/><text fill="#000000" font-family="sans-serif" font-size="12" lengthAdjust="spacingAndGlyphs" textLength="120" x="20" y="267.0449">系统根据身份渲染画面</text><rect fill="#FEFECE" filter="url(#f1jcurg0lf6vjv)" height="33.9688" rx="12.5" ry="12.5" style="stroke: #A80036; stroke-width: 1.5;" width="152" x="170" y="245.9063"/><text fill="#000000" font-family="sans-serif" font-size="12" lengthAdjust="spacingAndGlyphs" textLength="132" x="180" y="267.0449">提示用户账号或密码有误</text><polygon fill="#FEFECE" filter="url(#f1jcurg0lf6vjv)" points="163,285.875,175,297.875,163,309.875,151,297.875,163,285.875" style="stroke: #A80036; stroke-width: 1.5;"/><ellipse cx="163" cy="339.875" fill="none" filter="url(#f1jcurg0lf6vjv)" rx="10" ry="10" style="stroke: #000000; stroke-width: 1.0;"/><ellipse cx="163.5" cy="340.375" fill="#000000" filter="url(#f1jcurg0lf6vjv)" rx="6" ry="6" style="stroke: none; stroke-width: 1.0;"/><line style="stroke: #A80036; stroke-width: 1.5;" x1="163" x2="163" y1="30" y2="50"/><polygon fill="#A80036" points="159,40,163,50,167,40,163,44" style="stroke: #A80036; stroke-width: 1.0;"/><line style="stroke: #A80036; stroke-width: 1.5;" x1="163" x2="163" y1="83.9688" y2="103.9688"/><polygon fill="#A80036" points="159,93.9688,163,103.9688,167,93.9688,163,97.9688" style="stroke: #A80036; stroke-width: 1.0;"/><line style="stroke: #A80036; stroke-width: 1.5;" x1="163" x2="163" y1="137.9375" y2="157.9375"/><polygon fill="#A80036" points="159,147.9375,163,157.9375,167,147.9375,163,151.9375" style="stroke: #A80036; stroke-width: 1.0;"/><line style="stroke: #A80036; stroke-width: 1.5;" x1="129" x2="80" y1="223.9063" y2="223.9063"/><line style="stroke: #A80036; stroke-width: 1.5;" x1="80" x2="80" y1="223.9063" y2="245.9063"/><polygon fill="#A80036" points="76,235.9063,80,245.9063,84,235.9063,80,239.9063" style="stroke: #A80036; stroke-width: 1.0;"/><line style="stroke: #A80036; stroke-width: 1.5;" x1="197" x2="246" y1="223.9063" y2="223.9063"/><line style="stroke: #A80036; stroke-width: 1.5;" x1="246" x2="246" y1="223.9063" y2="245.9063"/><polygon fill="#A80036" points="242,235.9063,246,245.9063,250,235.9063,246,239.9063" style="stroke: #A80036; stroke-width: 1.0;"/><line style="stroke: #A80036; stroke-width: 1.5;" x1="80" x2="80" y1="279.875" y2="297.875"/><line style="stroke: #A80036; stroke-width: 1.5;" x1="80" x2="151" y1="297.875" y2="297.875"/><polygon fill="#A80036" points="141,293.875,151,297.875,141,301.875,145,297.875" style="stroke: #A80036; stroke-width: 1.0;"/><line style="stroke: #A80036; stroke-width: 1.5;" x1="246" x2="246" y1="279.875" y2="297.875"/><line style="stroke: #A80036; stroke-width: 1.5;" x1="246" x2="175" y1="297.875" y2="297.875"/><polygon fill="#A80036" points="185,293.875,175,297.875,185,301.875,181,297.875" style="stroke: #A80036; stroke-width: 1.0;"/><line style="stroke: #A80036; stroke-width: 1.5;" x1="163" x2="163" y1="191.9063" y2="211.9063"/><polygon fill="#A80036" points="159,201.9063,163,211.9063,167,201.9063,163,205.9063" style="stroke: #A80036; stroke-width: 1.0;"/><line style="stroke: #A80036; stroke-width: 1.5;" x1="163" x2="163" y1="309.875" y2="329.875"/><polygon fill="#A80036" points="159,319.875,163,329.875,167,319.875,163,323.875" style="stroke: #A80036; stroke-width: 1.0;"/><!--
@startuml
start
:输入账号;
:输入密码;
:系统验证;
if (验证通过) then (是)
:系统根据身份渲染画面;
else (否)
:提示用户账号或密码有误;
endif
stop
@enduml

PlantUML version 1.2019.01(Sat Feb 09 15:32:04 UTC 2019)
(GPL source distribution)
Java Runtime: OpenJDK Runtime Environment
JVM: OpenJDK 64-Bit Server VM
Java Version: 1.8.0_181-8u181-b13-2~deb9u1-b13
Operating System: Linux
OS Version: 3.10.0-957.5.1.el7.x86_64
Default Encoding: UTF-8
Language: en
Country: null
--></g></svg>