<?xml version="1.0" encoding="UTF-8" standalone="no"?><svg xmlns="http://www.w3.org/2000/svg" xmlns:xlink="http://www.w3.org/1999/xlink" contentScriptType="application/ecmascript" contentStyleType="text/css" height="637px" preserveAspectRatio="none" style="width:404px;height:637px;background:#FFFFFF;" version="1.1" viewBox="0 0 404 637" width="404px" zoomAndPan="magnify"><defs><filter height="300%" id="f1q2jqbqjcy9o5" width="300%" x="-1" y="-1"><feGaussianBlur result="blurOut" stdDeviation="2.0"/><feColorMatrix in="blurOut" result="blurOut2" type="matrix" values="0 0 0 0 0 0 0 0 0 0 0 0 0 0 0 0 0 0 .4 0"/><feOffset dx="4.0" dy="4.0" in="blurOut2" result="blurOut3"/><feBlend in="SourceGraphic" in2="blurOut3" mode="normal"/></filter></defs><g><rect fill="#FFFFFF" filter="url(#f1q2jqbqjcy9o5)" height="535.3906" style="stroke:#A80036;stroke-width:1.0;" width="10" x="48" y="50.2969"/><rect fill="#FFFFFF" filter="url(#f1q2jqbqjcy9o5)" height="514.2578" style="stroke:#A80036;stroke-width:1.0;" width="10" x="208" y="71.4297"/><rect fill="#FFFFFF" filter="url(#f1q2jqbqjcy9o5)" height="135.6641" style="stroke:#000000;stroke-width:2.0;" width="226" x="20" y="86.4297"/><rect fill="#FFFFFF" height="89.3984" style="stroke:none;stroke-width:1.0;" width="226" x="20" y="132.6953"/><rect fill="#FFFFFF" filter="url(#f1q2jqbqjcy9o5)" height="341.5938" style="stroke:#000000;stroke-width:2.0;" width="380" x="10" y="236.0938"/><rect fill="#FFFFFF" filter="url(#f1q2jqbqjcy9o5)" height="281.3281" style="stroke:#000000;stroke-width:2.0;" width="360" x="20" y="289.3594"/><rect fill="#FFFFFF" height="31.1328" style="stroke:none;stroke-width:1.0;" width="360" x="20" y="539.5547"/><line style="stroke:#A80036;stroke-width:1.0;stroke-dasharray:5.0,5.0;" x1="53" x2="53" y1="40.2969" y2="594.6875"/><line style="stroke:#A80036;stroke-width:1.0;stroke-dasharray:5.0,5.0;" x1="213" x2="213" y1="40.2969" y2="594.6875"/><line style="stroke:#A80036;stroke-width:1.0;stroke-dasharray:5.0,5.0;" x1="333" x2="333" y1="40.2969" y2="594.6875"/><rect fill="#FEFECE" filter="url(#f1q2jqbqjcy9o5)" height="30.2969" style="stroke:#A80036;stroke-width:1.5;" width="42" x="30" y="5"/><text fill="#000000" font-family="sans-serif" font-size="14" lengthAdjust="spacing" textLength="28" x="37" y="24.9951">用户</text><rect fill="#FEFECE" filter="url(#f1q2jqbqjcy9o5)" height="30.2969" style="stroke:#A80036;stroke-width:1.5;" width="42" x="30" y="593.6875"/><text fill="#000000" font-family="sans-serif" font-size="14" lengthAdjust="spacing" textLength="28" x="37" y="613.6826">用户</text><rect fill="#FEFECE" filter="url(#f1q2jqbqjcy9o5)" height="30.2969" style="stroke:#A80036;stroke-width:1.5;" width="42" x="190" y="5"/><text fill="#000000" font-family="sans-serif" font-size="14" lengthAdjust="spacing" textLength="28" x="197" y="24.9951">系统</text><rect fill="#FEFECE" filter="url(#f1q2jqbqjcy9o5)" height="30.2969" style="stroke:#A80036;stroke-width:1.5;" width="42" x="190" y="593.6875"/><text fill="#000000" font-family="sans-serif" font-size="14" lengthAdjust="spacing" textLength="28" x="197" y="613.6826">系统</text><rect fill="#FEFECE" filter="url(#f1q2jqbqjcy9o5)" height="30.2969" style="stroke:#A80036;stroke-width:1.5;" width="70" x="296" y="5"/><text fill="#000000" font-family="sans-serif" font-size="14" lengthAdjust="spacing" textLength="56" x="303" y="24.9951">训练模型</text><rect fill="#FEFECE" filter="url(#f1q2jqbqjcy9o5)" height="30.2969" style="stroke:#A80036;stroke-width:1.5;" width="70" x="296" y="593.6875"/><text fill="#000000" font-family="sans-serif" font-size="14" lengthAdjust="spacing" textLength="56" x="303" y="613.6826">训练模型</text><rect fill="#FFFFFF" filter="url(#f1q2jqbqjcy9o5)" height="535.3906" style="stroke:#A80036;stroke-width:1.0;" width="10" x="48" y="50.2969"/><rect fill="#FFFFFF" filter="url(#f1q2jqbqjcy9o5)" height="514.2578" style="stroke:#A80036;stroke-width:1.0;" width="10" x="208" y="71.4297"/><line style="stroke:#A80036;stroke-width:1.0;" x1="206" x2="196" y1="71.4297" y2="67.4297"/><line style="stroke:#A80036;stroke-width:1.0;" x1="206" x2="196" y1="71.4297" y2="75.4297"/><line style="stroke:#A80036;stroke-width:1.0;" x1="58" x2="207" y1="71.4297" y2="71.4297"/><text fill="#000000" font-family="sans-serif" font-size="13" font-weight="bold" lengthAdjust="spacing" textLength="9" x="65" y="66.3638">1</text><text fill="#000000" font-family="sans-serif" font-size="13" lengthAdjust="spacing" textLength="65" x="78" y="66.3638">输入邮箱号</text><path d="M20,86.4297 L86,86.4297 L86,93.4297 L76,103.4297 L20,103.4297 L20,86.4297 " fill="#EEEEEE" style="stroke:#000000;stroke-width:1.0;"/><rect fill="none" height="135.6641" style="stroke:#000000;stroke-width:2.0;" width="226" x="20" y="86.4297"/><text fill="#000000" font-family="sans-serif" font-size="13" font-weight="bold" lengthAdjust="spacing" textLength="21" x="35" y="99.4966">alt</text><line style="stroke:#A80036;stroke-width:1.0;" x1="58" x2="68" y1="124.6953" y2="120.6953"/><line style="stroke:#A80036;stroke-width:1.0;" x1="58" x2="68" y1="124.6953" y2="128.6953"/><line style="stroke:#A80036;stroke-width:1.0;" x1="58" x2="207" y1="124.6953" y2="124.6953"/><text fill="#000000" font-family="sans-serif" font-size="13" font-weight="bold" lengthAdjust="spacing" textLength="9" x="75" y="119.6294">2</text><text fill="#000000" font-family="sans-serif" font-size="13" lengthAdjust="spacing" textLength="88" x="88" y="119.6294">返回ID和token</text><line style="stroke:#000000;stroke-width:1.0;stroke-dasharray:2.0,2.0;" x1="20" x2="246" y1="133.6953" y2="133.6953"/><line style="stroke:#A80036;stroke-width:1.0;" x1="58" x2="68" y1="155.8281" y2="151.8281"/><line style="stroke:#A80036;stroke-width:1.0;" x1="58" x2="68" y1="155.8281" y2="159.8281"/><line style="stroke:#A80036;stroke-width:1.0;" x1="58" x2="207" y1="155.8281" y2="155.8281"/><text fill="#000000" font-family="sans-serif" font-size="13" font-weight="bold" lengthAdjust="spacing" textLength="8" x="75" y="150.7622">3</text><text fill="#000000" font-family="sans-serif" font-size="13" lengthAdjust="spacing" textLength="78" x="87" y="150.7622">返回需要验证</text><line style="stroke:#A80036;stroke-width:1.0;" x1="206" x2="196" y1="184.9609" y2="180.9609"/><line style="stroke:#A80036;stroke-width:1.0;" x1="206" x2="196" y1="184.9609" y2="188.9609"/><line style="stroke:#A80036;stroke-width:1.0;" x1="58" x2="207" y1="184.9609" y2="184.9609"/><text fill="#000000" font-family="sans-serif" font-size="13" font-weight="bold" lengthAdjust="spacing" textLength="9" x="65" y="179.895">4</text><text fill="#000000" font-family="sans-serif" font-size="13" lengthAdjust="spacing" textLength="65" x="78" y="179.895">输入验证码</text><line style="stroke:#A80036;stroke-width:1.0;" x1="58" x2="68" y1="214.0938" y2="210.0938"/><line style="stroke:#A80036;stroke-width:1.0;" x1="58" x2="68" y1="214.0938" y2="218.0938"/><line style="stroke:#A80036;stroke-width:1.0;" x1="58" x2="207" y1="214.0938" y2="214.0938"/><text fill="#000000" font-family="sans-serif" font-size="13" font-weight="bold" lengthAdjust="spacing" textLength="9" x="75" y="209.0278">5</text><text fill="#000000" font-family="sans-serif" font-size="13" lengthAdjust="spacing" textLength="88" x="88" y="209.0278">返回ID和token</text><path d="M10,236.0938 L88,236.0938 L88,243.0938 L78,253.0938 L10,253.0938 L10,236.0938 " fill="#EEEEEE" style="stroke:#000000;stroke-width:1.0;"/><rect fill="none" height="341.5938" style="stroke:#000000;stroke-width:2.0;" width="380" x="10" y="236.0938"/><text fill="#000000" font-family="sans-serif" font-size="13" font-weight="bold" lengthAdjust="spacing" textLength="33" x="25" y="249.1606">loop</text><line style="stroke:#A80036;stroke-width:1.0;" x1="206" x2="196" y1="274.3594" y2="270.3594"/><line style="stroke:#A80036;stroke-width:1.0;" x1="206" x2="196" y1="274.3594" y2="278.3594"/><line style="stroke:#A80036;stroke-width:1.0;" x1="58" x2="207" y1="274.3594" y2="274.3594"/><text fill="#000000" font-family="sans-serif" font-size="13" font-weight="bold" lengthAdjust="spacing" textLength="9" x="65" y="269.2935">6</text><text fill="#000000" font-family="sans-serif" font-size="13" lengthAdjust="spacing" textLength="52" x="78" y="269.2935">上传音频</text><path d="M20,289.3594 L86,289.3594 L86,296.3594 L76,306.3594 L20,306.3594 L20,289.3594 " fill="#EEEEEE" style="stroke:#000000;stroke-width:1.0;"/><rect fill="none" height="281.3281" style="stroke:#000000;stroke-width:2.0;" width="360" x="20" y="289.3594"/><text fill="#000000" font-family="sans-serif" font-size="13" font-weight="bold" lengthAdjust="spacing" textLength="21" x="35" y="302.4263">alt</text><line style="stroke:#A80036;stroke-width:1.0;" x1="58" x2="68" y1="327.625" y2="323.625"/><line style="stroke:#A80036;stroke-width:1.0;" x1="58" x2="68" y1="327.625" y2="331.625"/><line style="stroke:#A80036;stroke-width:1.0;" x1="58" x2="207" y1="327.625" y2="327.625"/><text fill="#000000" font-family="sans-serif" font-size="13" font-weight="bold" lengthAdjust="spacing" textLength="9" x="75" y="322.5591">7</text><text fill="#000000" font-family="sans-serif" font-size="13" lengthAdjust="spacing" textLength="78" x="88" y="322.5591">返回上传成功</text><line style="stroke:#A80036;stroke-width:1.0;" x1="331" x2="321" y1="356.7578" y2="352.7578"/><line style="stroke:#A80036;stroke-width:1.0;" x1="331" x2="321" y1="356.7578" y2="360.7578"/><line style="stroke:#A80036;stroke-width:1.0;" x1="218" x2="332" y1="356.7578" y2="356.7578"/><text fill="#000000" font-family="sans-serif" font-size="13" font-weight="bold" lengthAdjust="spacing" textLength="9" x="225" y="351.6919">8</text><text fill="#000000" font-family="sans-serif" font-size="13" lengthAdjust="spacing" textLength="78" x="238" y="351.6919">输入音频路径</text><line style="stroke:#A80036;stroke-width:1.0;" x1="206" x2="196" y1="385.8906" y2="381.8906"/><line style="stroke:#A80036;stroke-width:1.0;" x1="206" x2="196" y1="385.8906" y2="389.8906"/><line style="stroke:#A80036;stroke-width:1.0;" x1="58" x2="207" y1="385.8906" y2="385.8906"/><text fill="#000000" font-family="sans-serif" font-size="13" font-weight="bold" lengthAdjust="spacing" textLength="9" x="65" y="380.8247">9</text><text fill="#000000" font-family="sans-serif" font-size="13" lengthAdjust="spacing" textLength="78" x="78" y="380.8247">查询处理进度</text><line style="stroke:#A80036;stroke-width:1.0;" x1="58" x2="68" y1="415.0234" y2="411.0234"/><line style="stroke:#A80036;stroke-width:1.0;" x1="58" x2="68" y1="415.0234" y2="419.0234"/><line style="stroke:#A80036;stroke-width:1.0;" x1="58" x2="207" y1="415.0234" y2="415.0234"/><text fill="#000000" font-family="sans-serif" font-size="13" font-weight="bold" lengthAdjust="spacing" textLength="19" x="75" y="409.9575">10</text><text fill="#000000" font-family="sans-serif" font-size="13" lengthAdjust="spacing" textLength="78" x="98" y="409.9575">返回处理进度</text><line style="stroke:#A80036;stroke-width:1.0;" x1="218" x2="228" y1="444.1563" y2="440.1563"/><line style="stroke:#A80036;stroke-width:1.0;" x1="218" x2="228" y1="444.1563" y2="448.1563"/><line style="stroke:#A80036;stroke-width:1.0;" x1="218" x2="332" y1="444.1563" y2="444.1563"/><text fill="#000000" font-family="sans-serif" font-size="13" font-weight="bold" lengthAdjust="spacing" textLength="18" x="235" y="439.0903">11</text><text fill="#000000" font-family="sans-serif" font-size="13" lengthAdjust="spacing" textLength="52" x="257" y="439.0903">处理完成</text><line style="stroke:#A80036;stroke-width:1.0;" x1="58" x2="68" y1="473.2891" y2="469.2891"/><line style="stroke:#A80036;stroke-width:1.0;" x1="58" x2="68" y1="473.2891" y2="477.2891"/><line style="stroke:#A80036;stroke-width:1.0;stroke-dasharray:2.0,2.0;" x1="58" x2="207" y1="473.2891" y2="473.2891"/><text fill="#000000" font-family="sans-serif" font-size="13" font-weight="bold" lengthAdjust="spacing" textLength="18" x="75" y="468.2231">12</text><text fill="#000000" font-family="sans-serif" font-size="13" lengthAdjust="spacing" textLength="104" x="97" y="468.2231">发送处理完成信息</text><polygon fill="#A80036" points="196,498.4219,206,502.4219,196,506.4219,200,502.4219" style="stroke:#A80036;stroke-width:1.0;"/><line style="stroke:#A80036;stroke-width:1.0;" x1="58" x2="202" y1="502.4219" y2="502.4219"/><text fill="#000000" font-family="sans-serif" font-size="13" font-weight="bold" lengthAdjust="spacing" textLength="17" x="65" y="497.356">13</text><text fill="#000000" font-family="sans-serif" font-size="13" lengthAdjust="spacing" textLength="78" x="86" y="497.356">请求下载文件</text><polygon fill="#A80036" points="69,527.5547,59,531.5547,69,535.5547,65,531.5547" style="stroke:#A80036;stroke-width:1.0;"/><line style="stroke:#A80036;stroke-width:1.0;" x1="63" x2="207" y1="531.5547" y2="531.5547"/><text fill="#000000" font-family="sans-serif" font-size="13" font-weight="bold" lengthAdjust="spacing" textLength="18" x="75" y="526.4888">14</text><text fill="#000000" font-family="sans-serif" font-size="13" lengthAdjust="spacing" textLength="91" x="97" y="526.4888">返回下载文件流</text><line style="stroke:#000000;stroke-width:1.0;stroke-dasharray:2.0,2.0;" x1="20" x2="380" y1="540.5547" y2="540.5547"/><line style="stroke:#A80036;stroke-width:1.0;" x1="58" x2="68" y1="562.6875" y2="558.6875"/><line style="stroke:#A80036;stroke-width:1.0;" x1="58" x2="68" y1="562.6875" y2="566.6875"/><line style="stroke:#A80036;stroke-width:1.0;" x1="58" x2="207" y1="562.6875" y2="562.6875"/><text fill="#000000" font-family="sans-serif" font-size="13" font-weight="bold" lengthAdjust="spacing" textLength="18" x="75" y="557.6216">15</text><text fill="#000000" font-family="sans-serif" font-size="13" lengthAdjust="spacing" textLength="78" x="97" y="557.6216">返回上传失败</text><!--MD5=[0fb41d9b0d15730362978bc11adfaf15]
@startuml
autonumber

activate 用户
用户 ->> 系统: 输入邮箱号
activate 系统
alt
系统 ->> 用户: 返回ID和token
else
系统 ->> 用户: 返回需要验证
用户 ->> 系统: 输入验证码
系统 ->> 用户: 返回ID和token
end
loop
用户 ->> 系统: 上传音频
alt
系统 ->> 用户: 返回上传成功
系统 ->> 训练模型: 输入音频路径
用户 ->> 系统: 查询处理进度
系统 ->> 用户: 返回处理进度
训练模型 ->> 系统: 处理完成
系统 - ->> 用户: 发送处理完成信息
用户 -> 系统: 请求下载文件
系统 -> 用户: 返回下载文件流
else
系统 ->> 用户: 返回上传失败
end
end
@enduml

PlantUML version 1.2021.10(Mon Aug 30 13:43:48 UTC 2021)
(GPL source distribution)
Java Runtime: Java(TM) SE Runtime Environment
JVM: Java HotSpot(TM) 64-Bit Server VM
Default Encoding: UTF-8
Language: en
Country: US
--></g></svg>