<?xml version="1.0" encoding="UTF-8" standalone="no"?><svg xmlns="http://www.w3.org/2000/svg" xmlns:xlink="http://www.w3.org/1999/xlink" contentScriptType="application/ecmascript" contentStyleType="text/css" height="390px" preserveAspectRatio="none" style="width:240px;height:390px;" version="1.1" viewBox="0 0 240 390" width="240px" zoomAndPan="magnify"><defs><filter height="300%" id="f16e8zez36vmpa" width="300%" x="-1" y="-1"><feGaussianBlur result="blurOut" stdDeviation="2.0"/><feColorMatrix in="blurOut" result="blurOut2" type="matrix" values="0 0 0 0 0 0 0 0 0 0 0 0 0 0 0 0 0 0 .4 0"/><feOffset dx="4.0" dy="4.0" in="blurOut2" result="blurOut3"/><feBlend in="SourceGraphic" in2="blurOut3" mode="normal"/></filter></defs><g><!--entity 读者--><ellipse cx="133.5" cy="110" fill="#FEFECE" filter="url(#f16e8zez36vmpa)" rx="8" ry="8" style="stroke: #A80036; stroke-width: 2.0;"/><path d="M133.5,118 L133.5,145 M120.5,126 L146.5,126 M133.5,145 L120.5,160 M133.5,145 L146.5,160 " fill="none" filter="url(#f16e8zez36vmpa)" style="stroke: #A80036; stroke-width: 2.0;"/><text fill="#000000" font-family="sans-serif" font-size="14" lengthAdjust="spacingAndGlyphs" textLength="28" x="119.5" y="179.9951">读者</text><ellipse cx="133.7254" cy="23.7451" fill="#FEFECE" filter="url(#f16e8zez36vmpa)" rx="66.7254" ry="15.7451" style="stroke: #A80036; stroke-width: 1.5;"/><text fill="#000000" font-family="sans-serif" font-size="14" lengthAdjust="spacingAndGlyphs" textLength="98" x="84.7254" y="28.3935">登录校书籍系统</text><ellipse cx="206.299" cy="141.5236" fill="#FEFECE" filter="url(#f16e8zez36vmpa)" rx="22.799" ry="14.5236" style="stroke: #A80036; stroke-width: 1.5;"/><text fill="#000000" font-family="sans-serif" font-size="14" lengthAdjust="spacingAndGlyphs" textLength="28" x="192.299" y="146.1721">借书</text><ellipse cx="58.299" cy="258.5236" fill="#FEFECE" filter="url(#f16e8zez36vmpa)" rx="22.799" ry="14.5236" style="stroke: #A80036; stroke-width: 1.5;"/><text fill="#000000" font-family="sans-serif" font-size="14" lengthAdjust="spacingAndGlyphs" textLength="28" x="44.299" y="263.1721">还书</text><ellipse cx="159.598" cy="258.5236" fill="#FEFECE" filter="url(#f16e8zez36vmpa)" rx="42.598" ry="14.5236" style="stroke: #A80036; stroke-width: 1.5;"/><text fill="#000000" font-family="sans-serif" font-size="14" lengthAdjust="spacingAndGlyphs" textLength="56" x="131.598" y="263.1721">书籍查询</text><ellipse cx="58.4975" cy="364.5236" fill="#FEFECE" filter="url(#f16e8zez36vmpa)" rx="52.4975" ry="14.5236" style="stroke: #A80036; stroke-width: 1.5;"/><text fill="#000000" font-family="sans-serif" font-size="14" lengthAdjust="spacingAndGlyphs" textLength="70" x="23.4975" y="369.1721">交逾期罚金</text><!--link 登录校书籍系统 to 读者--><path d="M133.5,44.486 C133.5,59.664 133.5,81.049 133.5,99.785 " fill="none" id="登录校书籍系统-读者" style="stroke: #A80036; stroke-width: 1.0;"/><polygon fill="#A80036" points="133.5,39.191,129.5,48.191,133.5,44.191,137.5,48.191,133.5,39.191" style="stroke: #A80036; stroke-width: 1.0;"/><!--link 读者 to 借书--><path d="M148.613,141.5 C158.498,141.5 168.382,141.5 178.267,141.5 " fill="none" id="读者-借书" style="stroke: #A80036; stroke-width: 1.0;"/><polygon fill="#A80036" points="183.436,141.5,174.436,137.5,178.436,141.5,174.436,145.5,183.436,141.5" style="stroke: #A80036; stroke-width: 1.0;"/><!--link 读者 to 还书--><path d="M118.323,165.772 C103.8378,187.982 82.3667,220.904 69.4722,240.676 " fill="none" id="读者-还书" style="stroke: #A80036; stroke-width: 1.0;"/><polygon fill="#A80036" points="66.7005,244.926,74.9674,239.5726,69.4319,240.738,68.2665,235.2024,66.7005,244.926" style="stroke: #A80036; stroke-width: 1.0;"/><!--link 读者 to 书籍查询--><path d="M142.667,183.045 C146.938,201.935 151.815,223.507 155.216,238.552 " fill="none" id="读者-书籍查询" style="stroke: #A80036; stroke-width: 1.0;"/><polygon fill="#A80036" points="156.398,243.782,158.3145,234.1214,155.2952,238.9051,150.5115,235.8859,156.398,243.782" style="stroke: #A80036; stroke-width: 1.0;"/><!--link 还书 to 交逾期罚金--><path d="M58.5,273.096 C58.5,291.3927 58.5,324.0211 58.5,344.6705 " fill="none" id="还书-交逾期罚金" style="stroke: #A80036; stroke-width: 1.0; stroke-dasharray: 7.0,7.0;"/><polygon fill="#A80036" points="58.5,349.9005,62.5,340.9005,58.5,344.9005,54.5,340.9005,58.5,349.9005" style="stroke: #A80036; stroke-width: 1.0;"/><text fill="#000000" font-family="sans-serif" font-size="13" lengthAdjust="spacingAndGlyphs" textLength="60" x="59.5" y="316.0669">«extend»</text><!--
@startuml
actor 读者

读者 -up-> (登录校书籍系统)
读者 -right-> (借书)
读者 -down-> (还书)
读者 -down-> (书籍查询)
(还书) ..> (交逾期罚金):<<extend>>
@enduml

PlantUML version 1.2019.01(Sat Feb 09 15:32:04 UTC 2019)
(GPL source distribution)
Java Runtime: OpenJDK Runtime Environment
JVM: OpenJDK 64-Bit Server VM
Java Version: 1.8.0_181-8u181-b13-2~deb9u1-b13
Operating System: Linux
OS Version: 3.10.0-957.5.1.el7.x86_64
Default Encoding: UTF-8
Language: en
Country: null
--></g></svg>