<?xml version="1.0" encoding="UTF-8" standalone="no"?><svg xmlns="http://www.w3.org/2000/svg" xmlns:xlink="http://www.w3.org/1999/xlink" contentScriptType="application/ecmascript" contentStyleType="text/css" height="288px" preserveAspectRatio="none" style="width:461px;height:288px;" version="1.1" viewBox="0 0 461 288" width="461px" zoomAndPan="magnify"><defs><filter height="300%" id="f1kh06430sb5ew" width="300%" x="-1" y="-1"><feGaussianBlur result="blurOut" stdDeviation="2.0"/><feColorMatrix in="blurOut" result="blurOut2" type="matrix" values="0 0 0 0 0 0 0 0 0 0 0 0 0 0 0 0 0 0 .4 0"/><feOffset dx="4.0" dy="4.0" in="blurOut2" result="blurOut3"/><feBlend in="SourceGraphic" in2="blurOut3" mode="normal"/></filter></defs><g><!--entity 读者--><ellipse cx="153.5" cy="110" fill="#FEFECE" filter="url(#f1kh06430sb5ew)" rx="8" ry="8" style="stroke: #A80036; stroke-width: 2.0;"/><path d="M153.5,118 L153.5,145 M140.5,126 L166.5,126 M153.5,145 L140.5,160 M153.5,145 L166.5,160 " fill="none" filter="url(#f1kh06430sb5ew)" style="stroke: #A80036; stroke-width: 2.0;"/><text fill="#000000" font-family="sans-serif" font-size="14" lengthAdjust="spacingAndGlyphs" textLength="28" x="139.5" y="179.9951">读者</text><ellipse cx="216.299" cy="23.5236" fill="#FEFECE" filter="url(#f1kh06430sb5ew)" rx="22.799" ry="14.5236" style="stroke: #A80036; stroke-width: 1.5;"/><text fill="#000000" font-family="sans-serif" font-size="14" lengthAdjust="spacingAndGlyphs" textLength="28" x="202.299" y="28.1721">借书</text><ellipse cx="91.7254" cy="23.7451" fill="#FEFECE" filter="url(#f1kh06430sb5ew)" rx="66.7254" ry="15.7451" style="stroke: #A80036; stroke-width: 1.5;"/><text fill="#000000" font-family="sans-serif" font-size="14" lengthAdjust="spacingAndGlyphs" textLength="98" x="42.7254" y="28.3935">登录校书籍系统</text><ellipse cx="78.2526" cy="260.8505" fill="#FEFECE" filter="url(#f1kh06430sb5ew)" rx="72.2526" ry="16.8505" style="stroke: #A80036; stroke-width: 1.5;"/><text fill="#000000" font-family="sans-serif" font-size="14" lengthAdjust="spacingAndGlyphs" textLength="112" x="22.2526" y="265.499">查询个人统计信息</text><ellipse cx="228.598" cy="261.0236" fill="#FEFECE" filter="url(#f1kh06430sb5ew)" rx="42.598" ry="14.5236" style="stroke: #A80036; stroke-width: 1.5;"/><text fill="#000000" font-family="sans-serif" font-size="14" lengthAdjust="spacingAndGlyphs" textLength="56" x="200.598" y="265.6721">书籍查询</text><ellipse cx="226.299" cy="141.5236" fill="#FEFECE" filter="url(#f1kh06430sb5ew)" rx="22.799" ry="14.5236" style="stroke: #A80036; stroke-width: 1.5;"/><text fill="#000000" font-family="sans-serif" font-size="14" lengthAdjust="spacingAndGlyphs" textLength="28" x="212.299" y="146.1721">还书</text><ellipse cx="398.4975" cy="141.5236" fill="#FEFECE" filter="url(#f1kh06430sb5ew)" rx="52.4975" ry="14.5236" style="stroke: #A80036; stroke-width: 1.5;"/><text fill="#000000" font-family="sans-serif" font-size="14" lengthAdjust="spacingAndGlyphs" textLength="70" x="363.4975" y="146.1721">交逾期罚金</text><!--link 借书 to 读者--><path d="M207.074,41.856 C196.918,60.556 180.606,90.59 168.646,112.611 " fill="none" id="借书-读者" style="stroke: #A80036; stroke-width: 1.0;"/><polygon fill="#A80036" points="209.517,37.357,201.7075,43.358,207.1314,41.7512,208.7382,47.175,209.517,37.357" style="stroke: #A80036; stroke-width: 1.0;"/><!--link 登录校书籍系统 to 读者--><path d="M101.7685,43.712 C111.742,62.372 127.001,90.921 138.365,112.183 " fill="none" id="登录校书籍系统-读者" style="stroke: #A80036; stroke-width: 1.0;"/><polygon fill="#A80036" points="99.3523,39.191,100.0674,49.0139,101.7094,43.6006,107.1227,45.2426,99.3523,39.191" style="stroke: #A80036; stroke-width: 1.0;"/><!--link 读者 to 查询个人统计信息--><path d="M138.323,166.278 C124.554,187.8486 104.4731,219.3088 91.4461,239.7177 " fill="none" id="读者-查询个人统计信息" style="stroke: #A80036; stroke-width: 1.0;"/><polygon fill="#A80036" points="88.6173,244.1496,96.8314,238.7156,91.3076,239.935,90.0881,234.4112,88.6173,244.1496" style="stroke: #A80036; stroke-width: 1.0;"/><!--link 读者 to 书籍查询--><path d="M168.677,166.278 C183.003,188.7215 204.162,221.8709 217.1,242.1394 " fill="none" id="读者-书籍查询" style="stroke: #A80036; stroke-width: 1.0;"/><polygon fill="#A80036" points="219.887,246.5069,218.4159,236.7685,217.1966,242.2924,211.6727,241.0732,219.887,246.5069" style="stroke: #A80036; stroke-width: 1.0;"/><!--link 读者 to 还书--><path d="M168.613,141.5 C178.498,141.5 188.382,141.5 198.267,141.5 " fill="none" id="读者-还书" style="stroke: #A80036; stroke-width: 1.0;"/><polygon fill="#A80036" points="203.436,141.5,194.436,137.5,198.436,141.5,194.436,145.5,203.436,141.5" style="stroke: #A80036; stroke-width: 1.0;"/><!--link 还书 to 交逾期罚金--><path d="M249.697,141.5 C272.841,141.5 309.328,141.5 340.378,141.5 " fill="none" id="还书-交逾期罚金" style="stroke: #A80036; stroke-width: 1.0; stroke-dasharray: 7.0,7.0;"/><polygon fill="#A80036" points="345.709,141.5,336.709,137.5,340.709,141.5,336.709,145.5,345.709,141.5" style="stroke: #A80036; stroke-width: 1.0;"/><text fill="#000000" font-family="sans-serif" font-size="13" lengthAdjust="spacingAndGlyphs" textLength="60" x="267.75" y="134.5669">«extend»</text><!--
@startuml
actor 读者

读者 -up-> (借书)
读者 -up-> (登录校书籍系统)
读者 -down-> (查询个人统计信息)
读者 -down-> (书籍查询)
读者 -right-> (还书)
(还书) .right.> (交逾期罚金):<<extend>>
@enduml

PlantUML version 1.2019.01(Sat Feb 09 15:32:04 UTC 2019)
(GPL source distribution)
Java Runtime: OpenJDK Runtime Environment
JVM: OpenJDK 64-Bit Server VM
Java Version: 1.8.0_181-8u181-b13-2~deb9u1-b13
Operating System: Linux
OS Version: 3.10.0-957.5.1.el7.x86_64
Default Encoding: UTF-8
Language: en
Country: null
--></g></svg>