<?xml version="1.0" encoding="UTF-8" standalone="no"?><svg xmlns="http://www.w3.org/2000/svg" xmlns:xlink="http://www.w3.org/1999/xlink" contentScriptType="application/ecmascript" contentStyleType="text/css" height="1178px" preserveAspectRatio="none" style="width:829px;height:1178px;" version="1.1" viewBox="0 0 829 1178" width="829px" zoomAndPan="magnify"><defs><filter height="300%" id="fwzyx15p3adnu" width="300%" x="-1" y="-1"><feGaussianBlur result="blurOut" stdDeviation="2.0"/><feColorMatrix in="blurOut" result="blurOut2" type="matrix" values="0 0 0 0 0 0 0 0 0 0 0 0 0 0 0 0 0 0 .4 0"/><feOffset dx="4.0" dy="4.0" in="blurOut2" result="blurOut3"/><feBlend in="SourceGraphic" in2="blurOut3" mode="normal"/></filter></defs><g><ellipse cx="553" cy="20" fill="#000000" filter="url(#fwzyx15p3adnu)" rx="10" ry="10" style="stroke: none; stroke-width: 1.0;"/><rect fill="#FEFECE" filter="url(#fwzyx15p3adnu)" height="33.9688" rx="12.5" ry="12.5" style="stroke: #A80036; stroke-width: 1.5;" width="68" x="519" y="50"/><text fill="#000000" font-family="sans-serif" font-size="12" lengthAdjust="spacingAndGlyphs" textLength="48" x="529" y="71.1387">点击还书</text><rect fill="#000000" filter="url(#fwzyx15p3adnu)" height="6" rx="2.5" ry="2.5" style="stroke: #000000; stroke-width: 1.0;" width="456" x="325" y="103.9688"/><rect fill="#FEFECE" filter="url(#fwzyx15p3adnu)" height="33.9688" rx="12.5" ry="12.5" style="stroke: #A80036; stroke-width: 1.5;" width="200" x="339" y="129.9688"/><text fill="#000000" font-family="sans-serif" font-size="12" lengthAdjust="spacingAndGlyphs" textLength="180" x="349" y="151.1074">系统显示该用户所有借阅可还书目</text><rect fill="#FEFECE" filter="url(#fwzyx15p3adnu)" height="33.9688" rx="12.5" ry="12.5" style="stroke: #A80036; stroke-width: 1.5;" width="200" x="567" y="129.9688"/><text fill="#000000" font-family="sans-serif" font-size="12" lengthAdjust="spacingAndGlyphs" textLength="180" x="577" y="151.1074">系统提示用户扫描书中馆藏二维码</text><rect fill="#000000" filter="url(#fwzyx15p3adnu)" height="6" rx="2.5" ry="2.5" style="stroke: #000000; stroke-width: 1.0;" width="456" x="325" y="183.9375"/><rect fill="#FEFECE" filter="url(#fwzyx15p3adnu)" height="33.9688" rx="12.5" ry="12.5" style="stroke: #A80036; stroke-width: 1.5;" width="80" x="513" y="265.6479"/><text fill="#000000" font-family="sans-serif" font-size="12" lengthAdjust="spacingAndGlyphs" textLength="60" x="523" y="286.7866">扫描二维码</text><rect fill="#FEFECE" filter="url(#fwzyx15p3adnu)" height="33.9688" rx="12.5" ry="12.5" style="stroke: #A80036; stroke-width: 1.5;" width="92" x="507" y="328.7144"/><text fill="#000000" font-family="sans-serif" font-size="12" lengthAdjust="spacingAndGlyphs" textLength="72" x="517" y="349.853">显示书籍信息</text><polygon fill="#FEFECE" filter="url(#fwzyx15p3adnu)" points="509,209.9375,597,209.9375,609,221.9375,597,233.9375,509,233.9375,497,221.9375,509,209.9375" style="stroke: #A80036; stroke-width: 1.5;"/><text fill="#000000" font-family="sans-serif" font-size="11" lengthAdjust="spacingAndGlyphs" textLength="11" x="557" y="244.1479">是</text><text fill="#000000" font-family="sans-serif" font-size="11" lengthAdjust="spacingAndGlyphs" textLength="88" x="509" y="225.7456">还有书籍需要归还</text><text fill="#000000" font-family="sans-serif" font-size="11" lengthAdjust="spacingAndGlyphs" textLength="11" x="486" y="219.3433">否</text><rect fill="#FEFECE" filter="url(#fwzyx15p3adnu)" height="33.9688" rx="12.5" ry="12.5" style="stroke: #A80036; stroke-width: 1.5;" width="68" x="519" y="404.6831"/><text fill="#000000" font-family="sans-serif" font-size="12" lengthAdjust="spacingAndGlyphs" textLength="48" x="529" y="425.8218">点击还书</text><rect fill="#FEFECE" filter="url(#fwzyx15p3adnu)" height="33.9688" rx="12.5" ry="12.5" style="stroke: #A80036; stroke-width: 1.5;" width="140" x="483" y="458.6519"/><text fill="#000000" font-family="sans-serif" font-size="12" lengthAdjust="spacingAndGlyphs" textLength="120" x="493" y="479.7905">系统查阅书籍借阅状态</text><polygon fill="#FEFECE" filter="url(#fwzyx15p3adnu)" points="509,512.6206,597,512.6206,609,524.6206,597,536.6206,509,536.6206,497,524.6206,509,512.6206" style="stroke: #A80036; stroke-width: 1.5;"/><text fill="#000000" font-family="sans-serif" font-size="11" lengthAdjust="spacingAndGlyphs" textLength="88" x="509" y="528.4287">借阅状态为已借阅</text><text fill="#000000" font-family="sans-serif" font-size="11" lengthAdjust="spacingAndGlyphs" textLength="11" x="486" y="522.0264">是</text><text fill="#000000" font-family="sans-serif" font-size="11" lengthAdjust="spacingAndGlyphs" textLength="11" x="609" y="522.0264">否</text><rect fill="#000000" filter="url(#fwzyx15p3adnu)" height="6" rx="2.5" ry="2.5" style="stroke: #000000; stroke-width: 1.0;" width="672" x="10" y="546.6206"/><rect fill="#FEFECE" filter="url(#fwzyx15p3adnu)" height="33.9688" rx="12.5" ry="12.5" style="stroke: #A80036; stroke-width: 1.5;" width="92" x="24" y="790.0425"/><text fill="#000000" font-family="sans-serif" font-size="12" lengthAdjust="spacingAndGlyphs" textLength="72" x="34" y="811.1812">更新借阅状态</text><rect fill="#FEFECE" filter="url(#fwzyx15p3adnu)" height="33.9688" rx="12.5" ry="12.5" style="stroke: #A80036; stroke-width: 1.5;" width="164" x="387" y="572.6206"/><text fill="#000000" font-family="sans-serif" font-size="12" lengthAdjust="spacingAndGlyphs" textLength="144" x="397" y="593.7593">查询用户归还时间是否逾期</text><polygon fill="#FEFECE" filter="url(#fwzyx15p3adnu)" points="457,626.5894,481,626.5894,493,638.5894,481,650.5894,457,650.5894,445,638.5894,457,626.5894" style="stroke: #A80036; stroke-width: 1.5;"/><text fill="#000000" font-family="sans-serif" font-size="11" lengthAdjust="spacingAndGlyphs" textLength="22" x="458" y="642.3975">逾期</text><text fill="#000000" font-family="sans-serif" font-size="11" lengthAdjust="spacingAndGlyphs" textLength="11" x="434" y="635.9951">是</text><text fill="#000000" font-family="sans-serif" font-size="11" lengthAdjust="spacingAndGlyphs" textLength="11" x="493" y="635.9951">否</text><rect fill="#FEFECE" filter="url(#fwzyx15p3adnu)" height="33.9688" rx="12.5" ry="12.5" style="stroke: #A80036; stroke-width: 1.5;" width="92" x="292" y="660.5894"/><text fill="#000000" font-family="sans-serif" font-size="12" lengthAdjust="spacingAndGlyphs" textLength="72" x="302" y="681.728">计算需付费用</text><rect fill="#FEFECE" filter="url(#fwzyx15p3adnu)" height="33.9688" rx="12.5" ry="12.5" style="stroke: #A80036; stroke-width: 1.5;" width="183" x="246.5" y="714.5581"/><text fill="#000000" font-family="sans-serif" font-size="12" lengthAdjust="spacingAndGlyphs" textLength="163" x="256.5" y="735.6968">发送收款费用至第三方支付API</text><rect fill="#FEFECE" filter="url(#fwzyx15p3adnu)" height="33.9688" rx="12.5" ry="12.5" style="stroke: #A80036; stroke-width: 1.5;" width="80" x="298" y="768.5269"/><text fill="#000000" font-family="sans-serif" font-size="12" lengthAdjust="spacingAndGlyphs" textLength="60" x="308" y="789.6655">获取收款码</text><rect fill="#000000" filter="url(#fwzyx15p3adnu)" height="6" rx="2.5" ry="2.5" style="stroke: #000000; stroke-width: 1.0;" width="288" x="194" y="837.4956"/><rect fill="#FEFECE" filter="url(#fwzyx15p3adnu)" height="33.9688" rx="12.5" ry="12.5" style="stroke: #A80036; stroke-width: 1.5;" width="80" x="208" y="863.4956"/><text fill="#000000" font-family="sans-serif" font-size="12" lengthAdjust="spacingAndGlyphs" textLength="60" x="218" y="884.6343">显示收款码</text><rect fill="#FEFECE" filter="url(#fwzyx15p3adnu)" height="33.9688" rx="12.5" ry="12.5" style="stroke: #A80036; stroke-width: 1.5;" width="152" x="316" y="863.4956"/><text fill="#000000" font-family="sans-serif" font-size="12" lengthAdjust="spacingAndGlyphs" textLength="132" x="326" y="884.6343">显示逾期天数与计算方法</text><rect fill="#000000" filter="url(#fwzyx15p3adnu)" height="6" rx="2.5" ry="2.5" style="stroke: #000000; stroke-width: 1.0;" width="288" x="194" y="917.4644"/><polygon fill="#FEFECE" filter="url(#fwzyx15p3adnu)" points="305,943.4644,371,943.4644,383,955.4644,371,967.4644,305,967.4644,293,955.4644,305,943.4644" style="stroke: #A80036; stroke-width: 1.5;"/><text fill="#000000" font-family="sans-serif" font-size="11" lengthAdjust="spacingAndGlyphs" textLength="66" x="305" y="959.2725">用户付款成功</text><text fill="#000000" font-family="sans-serif" font-size="11" lengthAdjust="spacingAndGlyphs" textLength="11" x="282" y="952.8701">是</text><text fill="#000000" font-family="sans-serif" font-size="11" lengthAdjust="spacingAndGlyphs" textLength="11" x="383" y="952.8701">否</text><rect fill="#FEFECE" filter="url(#fwzyx15p3adnu)" height="33.9688" rx="12.5" ry="12.5" style="stroke: #A80036; stroke-width: 1.5;" width="164" x="164" y="977.4644"/><text fill="#000000" font-family="sans-serif" font-size="12" lengthAdjust="spacingAndGlyphs" textLength="144" x="174" y="998.603">显示用户缴纳逾期费用成功</text><rect fill="#FEFECE" filter="url(#fwzyx15p3adnu)" height="33.9688" rx="12.5" ry="12.5" style="stroke: #A80036; stroke-width: 1.5;" width="164" x="348" y="977.4644"/><text fill="#000000" font-family="sans-serif" font-size="12" lengthAdjust="spacingAndGlyphs" textLength="144" x="358" y="998.603">显示用户缴纳逾期费用失败</text><polygon fill="#FEFECE" filter="url(#fwzyx15p3adnu)" points="338,1017.4331,350,1029.4331,338,1041.4331,326,1029.4331,338,1017.4331" style="stroke: #A80036; stroke-width: 1.5;"/><rect fill="#FEFECE" filter="url(#fwzyx15p3adnu)" height="33.9688" rx="12.5" ry="12.5" style="stroke: #A80036; stroke-width: 1.5;" width="116" x="542" y="660.5894"/><text fill="#000000" font-family="sans-serif" font-size="12" lengthAdjust="spacingAndGlyphs" textLength="96" x="552" y="681.728">显示用户还书成功</text><polygon fill="#FEFECE" filter="url(#fwzyx15p3adnu)" points="469,1047.4331,481,1059.4331,469,1071.4331,457,1059.4331,469,1047.4331" style="stroke: #A80036; stroke-width: 1.5;"/><rect fill="#000000" filter="url(#fwzyx15p3adnu)" height="6" rx="2.5" ry="2.5" style="stroke: #000000; stroke-width: 1.0;" width="672" x="10" y="1091.4331"/><rect fill="#FEFECE" filter="url(#fwzyx15p3adnu)" height="33.9688" rx="12.5" ry="12.5" style="stroke: #A80036; stroke-width: 1.5;" width="116" x="702" y="546.6206"/><text fill="#000000" font-family="sans-serif" font-size="12" lengthAdjust="spacingAndGlyphs" textLength="96" x="712" y="567.7593">提示用户发送异常</text><polygon fill="#FEFECE" filter="url(#fwzyx15p3adnu)" points="553,1103.4331,565,1115.4331,553,1127.4331,541,1115.4331,553,1103.4331" style="stroke: #A80036; stroke-width: 1.5;"/><ellipse cx="553" cy="1157.4331" fill="none" filter="url(#fwzyx15p3adnu)" rx="10" ry="10" style="stroke: #000000; stroke-width: 1.0;"/><ellipse cx="553.5" cy="1157.9331" fill="#000000" filter="url(#fwzyx15p3adnu)" rx="6" ry="6" style="stroke: none; stroke-width: 1.0;"/><line style="stroke: #A80036; stroke-width: 1.5;" x1="553" x2="553" y1="30" y2="50"/><polygon fill="#A80036" points="549,40,553,50,557,40,553,44" style="stroke: #A80036; stroke-width: 1.0;"/><line style="stroke: #A80036; stroke-width: 1.5;" x1="439" x2="439" y1="109.9688" y2="129.9688"/><polygon fill="#A80036" points="435,119.9688,439,129.9688,443,119.9688,439,123.9688" style="stroke: #A80036; stroke-width: 1.0;"/><line style="stroke: #A80036; stroke-width: 1.5;" x1="667" x2="667" y1="109.9688" y2="129.9688"/><polygon fill="#A80036" points="663,119.9688,667,129.9688,671,119.9688,667,123.9688" style="stroke: #A80036; stroke-width: 1.0;"/><line style="stroke: #A80036; stroke-width: 1.5;" x1="439" x2="439" y1="163.9375" y2="183.9375"/><polygon fill="#A80036" points="435,173.9375,439,183.9375,443,173.9375,439,177.9375" style="stroke: #A80036; stroke-width: 1.0;"/><line style="stroke: #A80036; stroke-width: 1.5;" x1="667" x2="667" y1="163.9375" y2="183.9375"/><polygon fill="#A80036" points="663,173.9375,667,183.9375,671,173.9375,667,177.9375" style="stroke: #A80036; stroke-width: 1.0;"/><line style="stroke: #A80036; stroke-width: 1.5;" x1="553" x2="553" y1="83.9688" y2="103.9688"/><polygon fill="#A80036" points="549,93.9688,553,103.9688,557,93.9688,553,97.9688" style="stroke: #A80036; stroke-width: 1.0;"/><line style="stroke: #A80036; stroke-width: 1.5;" x1="553" x2="553" y1="299.6167" y2="328.7144"/><polygon fill="#A80036" points="549,318.7144,553,328.7144,557,318.7144,553,322.7144" style="stroke: #A80036; stroke-width: 1.0;"/><line style="stroke: #A80036; stroke-width: 1.5;" x1="553" x2="553" y1="233.9375" y2="265.6479"/><polygon fill="#A80036" points="549,255.6479,553,265.6479,557,255.6479,553,259.6479" style="stroke: #A80036; stroke-width: 1.0;"/><line style="stroke: #A80036; stroke-width: 1.5;" x1="553" x2="553" y1="362.6831" y2="372.6831"/><line style="stroke: #A80036; stroke-width: 1.5;" x1="553" x2="621" y1="372.6831" y2="372.6831"/><polygon fill="#A80036" points="617,308.7144,621,298.7144,625,308.7144,621,304.7144" style="stroke: #A80036; stroke-width: 1.5;"/><line style="stroke: #A80036; stroke-width: 1.5;" x1="621" x2="621" y1="221.9375" y2="372.6831"/><line style="stroke: #A80036; stroke-width: 1.5;" x1="621" x2="609" y1="221.9375" y2="221.9375"/><polygon fill="#A80036" points="619,217.9375,609,221.9375,619,225.9375,615,221.9375" style="stroke: #A80036; stroke-width: 1.0;"/><line style="stroke: #A80036; stroke-width: 1.5;" x1="497" x2="485" y1="221.9375" y2="221.9375"/><polygon fill="#A80036" points="481,294.7144,485,304.7144,489,294.7144,485,298.7144" style="stroke: #A80036; stroke-width: 1.5;"/><line style="stroke: #A80036; stroke-width: 1.5;" x1="485" x2="485" y1="221.9375" y2="384.6831"/><line style="stroke: #A80036; stroke-width: 1.5;" x1="485" x2="553" y1="384.6831" y2="384.6831"/><line style="stroke: #A80036; stroke-width: 1.5;" x1="553" x2="553" y1="384.6831" y2="404.6831"/><polygon fill="#A80036" points="549,394.6831,553,404.6831,557,394.6831,553,398.6831" style="stroke: #A80036; stroke-width: 1.0;"/><line style="stroke: #A80036; stroke-width: 1.5;" x1="553" x2="553" y1="189.9375" y2="209.9375"/><polygon fill="#A80036" points="549,199.9375,553,209.9375,557,199.9375,553,203.9375" style="stroke: #A80036; stroke-width: 1.0;"/><line style="stroke: #A80036; stroke-width: 1.5;" x1="553" x2="553" y1="438.6519" y2="458.6519"/><polygon fill="#A80036" points="549,448.6519,553,458.6519,557,448.6519,553,452.6519" style="stroke: #A80036; stroke-width: 1.0;"/><line style="stroke: #A80036; stroke-width: 1.5;" x1="338" x2="338" y1="694.5581" y2="714.5581"/><polygon fill="#A80036" points="334,704.5581,338,714.5581,342,704.5581,338,708.5581" style="stroke: #A80036; stroke-width: 1.0;"/><line style="stroke: #A80036; stroke-width: 1.5;" x1="338" x2="338" y1="748.5269" y2="768.5269"/><polygon fill="#A80036" points="334,758.5269,338,768.5269,342,758.5269,338,762.5269" style="stroke: #A80036; stroke-width: 1.0;"/><line style="stroke: #A80036; stroke-width: 1.5;" x1="248" x2="248" y1="843.4956" y2="863.4956"/><polygon fill="#A80036" points="244,853.4956,248,863.4956,252,853.4956,248,857.4956" style="stroke: #A80036; stroke-width: 1.0;"/><line style="stroke: #A80036; stroke-width: 1.5;" x1="392" x2="392" y1="843.4956" y2="863.4956"/><polygon fill="#A80036" points="388,853.4956,392,863.4956,396,853.4956,392,857.4956" style="stroke: #A80036; stroke-width: 1.0;"/><line style="stroke: #A80036; stroke-width: 1.5;" x1="248" x2="248" y1="897.4644" y2="917.4644"/><polygon fill="#A80036" points="244,907.4644,248,917.4644,252,907.4644,248,911.4644" style="stroke: #A80036; stroke-width: 1.0;"/><line style="stroke: #A80036; stroke-width: 1.5;" x1="392" x2="392" y1="897.4644" y2="917.4644"/><polygon fill="#A80036" points="388,907.4644,392,917.4644,396,907.4644,392,911.4644" style="stroke: #A80036; stroke-width: 1.0;"/><line style="stroke: #A80036; stroke-width: 1.5;" x1="338" x2="338" y1="802.4956" y2="837.4956"/><polygon fill="#A80036" points="334,827.4956,338,837.4956,342,827.4956,338,831.4956" style="stroke: #A80036; stroke-width: 1.0;"/><line style="stroke: #A80036; stroke-width: 1.5;" x1="293" x2="246" y1="955.4644" y2="955.4644"/><line style="stroke: #A80036; stroke-width: 1.5;" x1="246" x2="246" y1="955.4644" y2="977.4644"/><polygon fill="#A80036" points="242,967.4644,246,977.4644,250,967.4644,246,971.4644" style="stroke: #A80036; stroke-width: 1.0;"/><line style="stroke: #A80036; stroke-width: 1.5;" x1="383" x2="430" y1="955.4644" y2="955.4644"/><line style="stroke: #A80036; stroke-width: 1.5;" x1="430" x2="430" y1="955.4644" y2="977.4644"/><polygon fill="#A80036" points="426,967.4644,430,977.4644,434,967.4644,430,971.4644" style="stroke: #A80036; stroke-width: 1.0;"/><line style="stroke: #A80036; stroke-width: 1.5;" x1="246" x2="246" y1="1011.4331" y2="1029.4331"/><line style="stroke: #A80036; stroke-width: 1.5;" x1="246" x2="326" y1="1029.4331" y2="1029.4331"/><polygon fill="#A80036" points="316,1025.4331,326,1029.4331,316,1033.4331,320,1029.4331" style="stroke: #A80036; stroke-width: 1.0;"/><line style="stroke: #A80036; stroke-width: 1.5;" x1="430" x2="430" y1="1011.4331" y2="1029.4331"/><line style="stroke: #A80036; stroke-width: 1.5;" x1="430" x2="350" y1="1029.4331" y2="1029.4331"/><polygon fill="#A80036" points="360,1025.4331,350,1029.4331,360,1033.4331,356,1029.4331" style="stroke: #A80036; stroke-width: 1.0;"/><line style="stroke: #A80036; stroke-width: 1.5;" x1="338" x2="338" y1="923.4644" y2="943.4644"/><polygon fill="#A80036" points="334,933.4644,338,943.4644,342,933.4644,338,937.4644" style="stroke: #A80036; stroke-width: 1.0;"/><line style="stroke: #A80036; stroke-width: 1.5;" x1="445" x2="338" y1="638.5894" y2="638.5894"/><line style="stroke: #A80036; stroke-width: 1.5;" x1="338" x2="338" y1="638.5894" y2="660.5894"/><polygon fill="#A80036" points="334,650.5894,338,660.5894,342,650.5894,338,654.5894" style="stroke: #A80036; stroke-width: 1.0;"/><line style="stroke: #A80036; stroke-width: 1.5;" x1="493" x2="600" y1="638.5894" y2="638.5894"/><line style="stroke: #A80036; stroke-width: 1.5;" x1="600" x2="600" y1="638.5894" y2="660.5894"/><polygon fill="#A80036" points="596,650.5894,600,660.5894,604,650.5894,600,654.5894" style="stroke: #A80036; stroke-width: 1.0;"/><line style="stroke: #A80036; stroke-width: 1.5;" x1="338" x2="338" y1="1041.4331" y2="1059.4331"/><line style="stroke: #A80036; stroke-width: 1.5;" x1="338" x2="457" y1="1059.4331" y2="1059.4331"/><polygon fill="#A80036" points="447,1055.4331,457,1059.4331,447,1063.4331,451,1059.4331" style="stroke: #A80036; stroke-width: 1.0;"/><line style="stroke: #A80036; stroke-width: 1.5;" x1="600" x2="600" y1="694.5581" y2="1059.4331"/><line style="stroke: #A80036; stroke-width: 1.5;" x1="600" x2="481" y1="1059.4331" y2="1059.4331"/><polygon fill="#A80036" points="491,1055.4331,481,1059.4331,491,1063.4331,487,1059.4331" style="stroke: #A80036; stroke-width: 1.0;"/><line style="stroke: #A80036; stroke-width: 1.5;" x1="469" x2="469" y1="606.5894" y2="626.5894"/><polygon fill="#A80036" points="465,616.5894,469,626.5894,473,616.5894,469,620.5894" style="stroke: #A80036; stroke-width: 1.0;"/><line style="stroke: #A80036; stroke-width: 1.5;" x1="70" x2="70" y1="552.6206" y2="790.0425"/><polygon fill="#A80036" points="66,780.0425,70,790.0425,74,780.0425,70,784.0425" style="stroke: #A80036; stroke-width: 1.0;"/><line style="stroke: #A80036; stroke-width: 1.5;" x1="469" x2="469" y1="552.6206" y2="572.6206"/><polygon fill="#A80036" points="465,562.6206,469,572.6206,473,562.6206,469,566.6206" style="stroke: #A80036; stroke-width: 1.0;"/><line style="stroke: #A80036; stroke-width: 1.5;" x1="70" x2="70" y1="824.0112" y2="1091.4331"/><polygon fill="#A80036" points="66,1081.4331,70,1091.4331,74,1081.4331,70,1085.4331" style="stroke: #A80036; stroke-width: 1.0;"/><line style="stroke: #A80036; stroke-width: 1.5;" x1="469" x2="469" y1="1071.4331" y2="1091.4331"/><polygon fill="#A80036" points="465,1081.4331,469,1091.4331,473,1081.4331,469,1085.4331" style="stroke: #A80036; stroke-width: 1.0;"/><line style="stroke: #A80036; stroke-width: 1.5;" x1="497" x2="346" y1="524.6206" y2="524.6206"/><line style="stroke: #A80036; stroke-width: 1.5;" x1="346" x2="346" y1="524.6206" y2="546.6206"/><polygon fill="#A80036" points="342,536.6206,346,546.6206,350,536.6206,346,540.6206" style="stroke: #A80036; stroke-width: 1.0;"/><line style="stroke: #A80036; stroke-width: 1.5;" x1="609" x2="760" y1="524.6206" y2="524.6206"/><line style="stroke: #A80036; stroke-width: 1.5;" x1="760" x2="760" y1="524.6206" y2="546.6206"/><polygon fill="#A80036" points="756,536.6206,760,546.6206,764,536.6206,760,540.6206" style="stroke: #A80036; stroke-width: 1.0;"/><line style="stroke: #A80036; stroke-width: 1.5;" x1="346" x2="346" y1="1097.4331" y2="1115.4331"/><line style="stroke: #A80036; stroke-width: 1.5;" x1="346" x2="541" y1="1115.4331" y2="1115.4331"/><polygon fill="#A80036" points="531,1111.4331,541,1115.4331,531,1119.4331,535,1115.4331" style="stroke: #A80036; stroke-width: 1.0;"/><line style="stroke: #A80036; stroke-width: 1.5;" x1="760" x2="760" y1="580.5894" y2="1115.4331"/><line style="stroke: #A80036; stroke-width: 1.5;" x1="760" x2="565" y1="1115.4331" y2="1115.4331"/><polygon fill="#A80036" points="575,1111.4331,565,1115.4331,575,1119.4331,571,1115.4331" style="stroke: #A80036; stroke-width: 1.0;"/><line style="stroke: #A80036; stroke-width: 1.5;" x1="553" x2="553" y1="492.6206" y2="512.6206"/><polygon fill="#A80036" points="549,502.6206,553,512.6206,557,502.6206,553,506.6206" style="stroke: #A80036; stroke-width: 1.0;"/><line style="stroke: #A80036; stroke-width: 1.5;" x1="553" x2="553" y1="1127.4331" y2="1147.4331"/><polygon fill="#A80036" points="549,1137.4331,553,1147.4331,557,1137.4331,553,1141.4331" style="stroke: #A80036; stroke-width: 1.0;"/><!--
@startuml
start
:点击还书;
fork
:系统显示该用户所有借阅可还书目;
fork again
:系统提示用户扫描书中馆藏二维码;
end fork
while (还有书籍需要归还) is (是)
:扫描二维码;
:显示书籍信息;
endwhile (否)
:点击还书;
:系统查阅书籍借阅状态;
if (借阅状态为已借阅) then (是)
  fork
  :更新借阅状态;
  fork again
  :查询用户归还时间是否逾期;
if (逾期) then (是)
:计算需付费用;
:发送收款费用至第三方支付API;
:获取收款码;
fork
:显示收款码;
fork again
:显示逾期天数与计算方法;
end fork
if (用户付款成功) then (是)
:显示用户缴纳逾期费用成功;
else (否)
:显示用户缴纳逾期费用失败;
endif
else (否)
:显示用户还书成功;
endif
  end fork
else (否)
:提示用户发送异常;
endif
stop
@enduml

PlantUML version 1.2019.01(Sat Feb 09 15:32:04 UTC 2019)
(GPL source distribution)
Java Runtime: OpenJDK Runtime Environment
JVM: OpenJDK 64-Bit Server VM
Java Version: 1.8.0_181-8u181-b13-2~deb9u1-b13
Operating System: Linux
OS Version: 3.10.0-957.5.1.el7.x86_64
Default Encoding: UTF-8
Language: en
Country: null
--></g></svg>